<mxfile host="Electron" agent="Mozilla/5.0 (Windows NT 10.0; Win64; x64) AppleWebKit/537.36 (KHTML, like Gecko) draw.io/24.7.17 Chrome/128.0.6613.36 Electron/32.0.1 Safari/537.36" version="24.7.17" pages="2">
  <diagram id="-IdPd8V6WHmgXJUZLb8S" name="Entity Relationship">
    <mxGraphModel dx="5457" dy="2793" grid="1" gridSize="10" guides="1" tooltips="1" connect="1" arrows="1" fold="1" page="0" pageScale="1" pageWidth="827" pageHeight="1169" math="0" shadow="0">
      <root>
        <mxCell id="0" />
        <mxCell id="1" parent="0" />
        <mxCell id="gJ4gh3AajOQVxKOba_xv-10" style="edgeStyle=orthogonalEdgeStyle;html=1;entryX=0;entryY=0.5;entryDx=0;entryDy=0;endArrow=none;endFill=0;rounded=1;labelBackgroundColor=none;fontColor=default;" parent="1" source="rRxs-527I7gYvrwWn9lE-1" target="gJ4gh3AajOQVxKOba_xv-8" edge="1">
          <mxGeometry relative="1" as="geometry" />
        </mxCell>
        <mxCell id="11" value="1" style="edgeLabel;html=1;align=center;verticalAlign=middle;resizable=0;points=[];rounded=1;labelBackgroundColor=none;" parent="gJ4gh3AajOQVxKOba_xv-10" vertex="1" connectable="0">
          <mxGeometry x="-0.691" y="1" relative="1" as="geometry">
            <mxPoint x="-74" y="-9" as="offset" />
          </mxGeometry>
        </mxCell>
        <mxCell id="Rw1I9RlVvu-Liqeo6EUA-53" style="edgeStyle=orthogonalEdgeStyle;html=1;entryX=0.5;entryY=1;entryDx=0;entryDy=0;endArrow=none;endFill=0;rounded=1;labelBackgroundColor=none;fontColor=default;" parent="1" source="rRxs-527I7gYvrwWn9lE-1" target="X15DQP2Ge36uVb0Z_0wF-20" edge="1">
          <mxGeometry relative="1" as="geometry">
            <Array as="points">
              <mxPoint x="-1045" y="-180" />
              <mxPoint x="-1154" y="-180" />
            </Array>
          </mxGeometry>
        </mxCell>
        <mxCell id="Rw1I9RlVvu-Liqeo6EUA-54" style="edgeStyle=orthogonalEdgeStyle;html=1;entryX=0.5;entryY=1;entryDx=0;entryDy=0;endArrow=none;endFill=0;rounded=1;labelBackgroundColor=none;fontColor=default;" parent="1" source="rRxs-527I7gYvrwWn9lE-1" target="X15DQP2Ge36uVb0Z_0wF-23" edge="1">
          <mxGeometry relative="1" as="geometry" />
        </mxCell>
        <mxCell id="Rw1I9RlVvu-Liqeo6EUA-55" style="edgeStyle=orthogonalEdgeStyle;html=1;entryX=0.5;entryY=1;entryDx=0;entryDy=0;endArrow=none;endFill=0;rounded=1;labelBackgroundColor=none;fontColor=default;" parent="1" source="rRxs-527I7gYvrwWn9lE-1" target="X15DQP2Ge36uVb0Z_0wF-25" edge="1">
          <mxGeometry relative="1" as="geometry">
            <Array as="points">
              <mxPoint x="-1045" y="-180" />
              <mxPoint x="-934" y="-180" />
            </Array>
          </mxGeometry>
        </mxCell>
        <mxCell id="Rw1I9RlVvu-Liqeo6EUA-58" style="edgeStyle=orthogonalEdgeStyle;html=1;entryX=0.5;entryY=0;entryDx=0;entryDy=0;endArrow=none;endFill=0;shape=link;rounded=1;labelBackgroundColor=none;fontColor=default;" parent="1" source="rRxs-527I7gYvrwWn9lE-1" target="Rw1I9RlVvu-Liqeo6EUA-57" edge="1">
          <mxGeometry relative="1" as="geometry">
            <mxPoint x="-1045.0000000000005" y="-70" as="targetPoint" />
          </mxGeometry>
        </mxCell>
        <mxCell id="hnY4cimSsR87jAR_6S_2-47" style="edgeStyle=orthogonalEdgeStyle;html=1;entryX=1;entryY=0.5;entryDx=0;entryDy=0;endArrow=none;endFill=0;rounded=1;labelBackgroundColor=none;fontColor=default;shape=link;" parent="1" source="rRxs-527I7gYvrwWn9lE-1" target="hnY4cimSsR87jAR_6S_2-46" edge="1">
          <mxGeometry relative="1" as="geometry" />
        </mxCell>
        <mxCell id="N3dC1drku8q0TnIEMgw_-39" value="1" style="edgeLabel;html=1;align=center;verticalAlign=middle;resizable=0;points=[];rounded=1;" parent="hnY4cimSsR87jAR_6S_2-47" vertex="1" connectable="0">
          <mxGeometry x="-0.7227" relative="1" as="geometry">
            <mxPoint x="-474" y="700" as="offset" />
          </mxGeometry>
        </mxCell>
        <mxCell id="MabK6VyOBC5WTbX4r10v-128" value="N" style="edgeLabel;html=1;align=center;verticalAlign=middle;resizable=0;points=[];" vertex="1" connectable="0" parent="hnY4cimSsR87jAR_6S_2-47">
          <mxGeometry x="-0.7615" relative="1" as="geometry">
            <mxPoint x="25" y="-10" as="offset" />
          </mxGeometry>
        </mxCell>
        <mxCell id="rRxs-527I7gYvrwWn9lE-1" value="Kund" style="whiteSpace=wrap;html=1;align=center;rounded=1;labelBackgroundColor=none;" parent="1" vertex="1">
          <mxGeometry x="-1095" y="-140" width="100" height="40" as="geometry" />
        </mxCell>
        <mxCell id="X15DQP2Ge36uVb0Z_0wF-20" value="KundID" style="ellipse;whiteSpace=wrap;html=1;align=center;fontStyle=4;rounded=1;labelBackgroundColor=none;" parent="1" vertex="1">
          <mxGeometry x="-1204" y="-260" width="100" height="40" as="geometry" />
        </mxCell>
        <mxCell id="Rw1I9RlVvu-Liqeo6EUA-43" style="edgeStyle=orthogonalEdgeStyle;html=1;entryX=0;entryY=0.5;entryDx=0;entryDy=0;endArrow=none;endFill=0;rounded=1;labelBackgroundColor=none;fontColor=default;" parent="1" source="X15DQP2Ge36uVb0Z_0wF-21" target="Rw1I9RlVvu-Liqeo6EUA-39" edge="1">
          <mxGeometry relative="1" as="geometry" />
        </mxCell>
        <mxCell id="X15DQP2Ge36uVb0Z_0wF-21" value="FÃ¶rnamn" style="ellipse;whiteSpace=wrap;html=1;align=center;rounded=1;labelBackgroundColor=none;" parent="1" vertex="1">
          <mxGeometry x="-1285" y="-57.49999999999999" width="100" height="40" as="geometry" />
        </mxCell>
        <mxCell id="Rw1I9RlVvu-Liqeo6EUA-44" style="edgeStyle=orthogonalEdgeStyle;html=1;entryX=0;entryY=0.5;entryDx=0;entryDy=0;endArrow=none;endFill=0;rounded=1;labelBackgroundColor=none;fontColor=default;" parent="1" source="X15DQP2Ge36uVb0Z_0wF-22" target="Rw1I9RlVvu-Liqeo6EUA-39" edge="1">
          <mxGeometry relative="1" as="geometry" />
        </mxCell>
        <mxCell id="X15DQP2Ge36uVb0Z_0wF-22" value="Efternamn" style="ellipse;whiteSpace=wrap;html=1;align=center;rounded=1;labelBackgroundColor=none;" parent="1" vertex="1">
          <mxGeometry x="-1285" y="-7.499999999999998" width="100" height="40" as="geometry" />
        </mxCell>
        <mxCell id="X15DQP2Ge36uVb0Z_0wF-23" value="Telefonnummer" style="ellipse;whiteSpace=wrap;html=1;align=center;rounded=1;labelBackgroundColor=none;" parent="1" vertex="1">
          <mxGeometry x="-1095" y="-260" width="100" height="40" as="geometry" />
        </mxCell>
        <mxCell id="X15DQP2Ge36uVb0Z_0wF-25" value="Epost" style="ellipse;whiteSpace=wrap;html=1;align=center;rounded=1;labelBackgroundColor=none;" parent="1" vertex="1">
          <mxGeometry x="-985" y="-260" width="100" height="40" as="geometry" />
        </mxCell>
        <mxCell id="gJ4gh3AajOQVxKOba_xv-2" style="edgeStyle=orthogonalEdgeStyle;html=1;entryX=0;entryY=0.5;entryDx=0;entryDy=0;endArrow=none;endFill=0;rounded=1;labelBackgroundColor=none;fontColor=default;exitX=1;exitY=0.75;exitDx=0;exitDy=0;" parent="1" source="X15DQP2Ge36uVb0Z_0wF-45" target="gJ4gh3AajOQVxKOba_xv-1" edge="1">
          <mxGeometry relative="1" as="geometry" />
        </mxCell>
        <mxCell id="MabK6VyOBC5WTbX4r10v-186" value="&amp;nbsp;M" style="edgeLabel;html=1;align=center;verticalAlign=middle;resizable=0;points=[];" vertex="1" connectable="0" parent="gJ4gh3AajOQVxKOba_xv-2">
          <mxGeometry x="0.0167" y="-1" relative="1" as="geometry">
            <mxPoint x="-244" y="-25" as="offset" />
          </mxGeometry>
        </mxCell>
        <mxCell id="UbkJ7RGwHsrbK7u8BlGE-78" style="edgeStyle=orthogonalEdgeStyle;rounded=1;orthogonalLoop=1;jettySize=auto;html=1;entryX=0.5;entryY=1;entryDx=0;entryDy=0;endArrow=none;endFill=0;shape=link;" parent="1" source="X15DQP2Ge36uVb0Z_0wF-45" target="UbkJ7RGwHsrbK7u8BlGE-55" edge="1">
          <mxGeometry relative="1" as="geometry" />
        </mxCell>
        <mxCell id="MabK6VyOBC5WTbX4r10v-120" style="edgeStyle=orthogonalEdgeStyle;rounded=1;orthogonalLoop=1;jettySize=auto;html=1;exitX=0.75;exitY=1;exitDx=0;exitDy=0;entryX=0;entryY=0.5;entryDx=0;entryDy=0;endArrow=none;endFill=0;curved=0;shape=link;" edge="1" parent="1" source="X15DQP2Ge36uVb0Z_0wF-45" target="MabK6VyOBC5WTbX4r10v-119">
          <mxGeometry relative="1" as="geometry" />
        </mxCell>
        <mxCell id="X15DQP2Ge36uVb0Z_0wF-45" value="Artikel" style="whiteSpace=wrap;html=1;align=center;rounded=1;labelBackgroundColor=none;" parent="1" vertex="1">
          <mxGeometry x="-900" y="280" width="100" height="40" as="geometry" />
        </mxCell>
        <mxCell id="MabK6VyOBC5WTbX4r10v-205" style="edgeStyle=orthogonalEdgeStyle;rounded=1;orthogonalLoop=1;jettySize=auto;html=1;entryX=0;entryY=0.5;entryDx=0;entryDy=0;endArrow=none;endFill=0;curved=0;" edge="1" parent="1" source="X15DQP2Ge36uVb0Z_0wF-46" target="X15DQP2Ge36uVb0Z_0wF-45">
          <mxGeometry relative="1" as="geometry">
            <Array as="points">
              <mxPoint x="-1040" y="150" />
              <mxPoint x="-1040" y="300" />
            </Array>
          </mxGeometry>
        </mxCell>
        <mxCell id="X15DQP2Ge36uVb0Z_0wF-46" value="ArtikelID" style="ellipse;whiteSpace=wrap;html=1;align=center;fontStyle=4;rounded=1;labelBackgroundColor=none;" parent="1" vertex="1">
          <mxGeometry x="-1180" y="130" width="100" height="40" as="geometry" />
        </mxCell>
        <mxCell id="MabK6VyOBC5WTbX4r10v-206" style="edgeStyle=orthogonalEdgeStyle;rounded=1;orthogonalLoop=1;jettySize=auto;html=1;entryX=0;entryY=0.5;entryDx=0;entryDy=0;endArrow=none;endFill=0;curved=0;" edge="1" parent="1" source="X15DQP2Ge36uVb0Z_0wF-47" target="X15DQP2Ge36uVb0Z_0wF-45">
          <mxGeometry relative="1" as="geometry">
            <Array as="points">
              <mxPoint x="-1040" y="200" />
              <mxPoint x="-1040" y="300" />
            </Array>
          </mxGeometry>
        </mxCell>
        <mxCell id="X15DQP2Ge36uVb0Z_0wF-47" value="Namn" style="ellipse;whiteSpace=wrap;html=1;align=center;rounded=1;labelBackgroundColor=none;" parent="1" vertex="1">
          <mxGeometry x="-1180" y="180" width="100" height="40" as="geometry" />
        </mxCell>
        <mxCell id="MabK6VyOBC5WTbX4r10v-210" style="edgeStyle=orthogonalEdgeStyle;rounded=1;orthogonalLoop=1;jettySize=auto;html=1;entryX=0;entryY=0.5;entryDx=0;entryDy=0;endArrow=none;endFill=0;curved=0;" edge="1" parent="1" source="X15DQP2Ge36uVb0Z_0wF-48" target="X15DQP2Ge36uVb0Z_0wF-45">
          <mxGeometry relative="1" as="geometry">
            <Array as="points">
              <mxPoint x="-1040" y="250" />
              <mxPoint x="-1040" y="300" />
            </Array>
          </mxGeometry>
        </mxCell>
        <mxCell id="X15DQP2Ge36uVb0Z_0wF-48" value="Beskrivning" style="ellipse;whiteSpace=wrap;html=1;align=center;rounded=1;labelBackgroundColor=none;" parent="1" vertex="1">
          <mxGeometry x="-1180" y="230" width="100" height="40" as="geometry" />
        </mxCell>
        <mxCell id="MabK6VyOBC5WTbX4r10v-208" style="edgeStyle=orthogonalEdgeStyle;rounded=1;orthogonalLoop=1;jettySize=auto;html=1;endArrow=none;endFill=0;curved=0;" edge="1" parent="1" source="X15DQP2Ge36uVb0Z_0wF-49">
          <mxGeometry relative="1" as="geometry">
            <mxPoint x="-900" y="300" as="targetPoint" />
          </mxGeometry>
        </mxCell>
        <mxCell id="X15DQP2Ge36uVb0Z_0wF-49" value="Kommentar" style="ellipse;whiteSpace=wrap;html=1;align=center;rounded=1;labelBackgroundColor=none;" parent="1" vertex="1">
          <mxGeometry x="-1180" y="280" width="100" height="40" as="geometry" />
        </mxCell>
        <mxCell id="MabK6VyOBC5WTbX4r10v-209" style="edgeStyle=orthogonalEdgeStyle;rounded=1;orthogonalLoop=1;jettySize=auto;html=1;entryX=0;entryY=0.5;entryDx=0;entryDy=0;endArrow=none;endFill=0;curved=0;" edge="1" parent="1" source="X15DQP2Ge36uVb0Z_0wF-51" target="X15DQP2Ge36uVb0Z_0wF-45">
          <mxGeometry relative="1" as="geometry">
            <Array as="points">
              <mxPoint x="-1040" y="350" />
              <mxPoint x="-1040" y="300" />
            </Array>
          </mxGeometry>
        </mxCell>
        <mxCell id="X15DQP2Ge36uVb0Z_0wF-51" value="Pris" style="ellipse;whiteSpace=wrap;html=1;align=center;rounded=1;labelBackgroundColor=none;" parent="1" vertex="1">
          <mxGeometry x="-1180" y="330" width="100" height="40" as="geometry" />
        </mxCell>
        <mxCell id="hnY4cimSsR87jAR_6S_2-44" style="edgeStyle=orthogonalEdgeStyle;html=1;entryX=1;entryY=0.5;entryDx=0;entryDy=0;endArrow=none;endFill=0;rounded=1;labelBackgroundColor=none;fontColor=default;exitX=0;exitY=0.75;exitDx=0;exitDy=0;shape=link;" parent="1" source="X15DQP2Ge36uVb0Z_0wF-58" target="hnY4cimSsR87jAR_6S_2-43" edge="1">
          <mxGeometry relative="1" as="geometry">
            <Array as="points">
              <mxPoint x="-40" y="605" />
              <mxPoint x="-40" y="840" />
            </Array>
          </mxGeometry>
        </mxCell>
        <mxCell id="N3dC1drku8q0TnIEMgw_-42" value="1" style="edgeLabel;html=1;align=center;verticalAlign=middle;resizable=0;points=[];rounded=1;" parent="hnY4cimSsR87jAR_6S_2-44" vertex="1" connectable="0">
          <mxGeometry x="0.8259" y="1" relative="1" as="geometry">
            <mxPoint x="100" y="-221" as="offset" />
          </mxGeometry>
        </mxCell>
        <mxCell id="N8jOlP61B2uoSJelF5zk-71" style="edgeStyle=orthogonalEdgeStyle;rounded=1;orthogonalLoop=1;jettySize=auto;html=1;entryX=0.5;entryY=1;entryDx=0;entryDy=0;endArrow=none;endFill=0;" parent="1" source="X15DQP2Ge36uVb0Z_0wF-58" target="N8jOlP61B2uoSJelF5zk-69" edge="1">
          <mxGeometry relative="1" as="geometry" />
        </mxCell>
        <mxCell id="MabK6VyOBC5WTbX4r10v-223" value="1" style="edgeLabel;html=1;align=center;verticalAlign=middle;resizable=0;points=[];" vertex="1" connectable="0" parent="N8jOlP61B2uoSJelF5zk-71">
          <mxGeometry x="-0.9275" y="-1" relative="1" as="geometry">
            <mxPoint x="-12" y="-16" as="offset" />
          </mxGeometry>
        </mxCell>
        <mxCell id="MabK6VyOBC5WTbX4r10v-189" style="edgeStyle=orthogonalEdgeStyle;rounded=1;orthogonalLoop=1;jettySize=auto;html=1;exitX=0.5;exitY=1;exitDx=0;exitDy=0;entryX=0.5;entryY=0;entryDx=0;entryDy=0;endArrow=none;endFill=0;curved=0;" edge="1" parent="1" source="X15DQP2Ge36uVb0Z_0wF-58" target="X15DQP2Ge36uVb0Z_0wF-59">
          <mxGeometry relative="1" as="geometry" />
        </mxCell>
        <mxCell id="MabK6VyOBC5WTbX4r10v-190" style="edgeStyle=orthogonalEdgeStyle;rounded=1;orthogonalLoop=1;jettySize=auto;html=1;exitX=0.5;exitY=1;exitDx=0;exitDy=0;entryX=0.5;entryY=0;entryDx=0;entryDy=0;endArrow=none;endFill=0;curved=0;" edge="1" parent="1" source="X15DQP2Ge36uVb0Z_0wF-58" target="X15DQP2Ge36uVb0Z_0wF-60">
          <mxGeometry relative="1" as="geometry" />
        </mxCell>
        <mxCell id="X15DQP2Ge36uVb0Z_0wF-58" value="Lokal" style="whiteSpace=wrap;html=1;align=center;rounded=1;labelBackgroundColor=none;" parent="1" vertex="1">
          <mxGeometry x="60" y="575.26" width="100" height="40" as="geometry" />
        </mxCell>
        <mxCell id="X15DQP2Ge36uVb0Z_0wF-59" value="LokalID" style="ellipse;whiteSpace=wrap;html=1;align=center;fontStyle=4;rounded=1;labelBackgroundColor=none;" parent="1" vertex="1">
          <mxGeometry x="5" y="665.26" width="100" height="40" as="geometry" />
        </mxCell>
        <mxCell id="X15DQP2Ge36uVb0Z_0wF-60" value="Namn" style="ellipse;whiteSpace=wrap;html=1;align=center;rounded=1;labelBackgroundColor=none;" parent="1" vertex="1">
          <mxGeometry x="115" y="665.26" width="100" height="40" as="geometry" />
        </mxCell>
        <mxCell id="37" style="edgeStyle=orthogonalEdgeStyle;html=1;entryX=0;entryY=0.25;entryDx=0;entryDy=0;endArrow=none;endFill=0;rounded=1;labelBackgroundColor=none;fontColor=default;exitX=1;exitY=0.5;exitDx=0;exitDy=0;" parent="1" source="gJ4gh3AajOQVxKOba_xv-1" target="X15DQP2Ge36uVb0Z_0wF-58" edge="1">
          <mxGeometry relative="1" as="geometry">
            <Array as="points">
              <mxPoint x="-40" y="410" />
              <mxPoint x="-40" y="585" />
            </Array>
          </mxGeometry>
        </mxCell>
        <mxCell id="MabK6VyOBC5WTbX4r10v-91" value="N" style="edgeLabel;html=1;align=center;verticalAlign=middle;resizable=0;points=[];" vertex="1" connectable="0" parent="37">
          <mxGeometry x="0.3853" y="-1" relative="1" as="geometry">
            <mxPoint x="11" y="27" as="offset" />
          </mxGeometry>
        </mxCell>
        <mxCell id="gJ4gh3AajOQVxKOba_xv-1" value="Finns i" style="shape=rhombus;perimeter=rhombusPerimeter;whiteSpace=wrap;html=1;align=center;rounded=1;labelBackgroundColor=none;" parent="1" vertex="1">
          <mxGeometry x="-330" y="380" width="120" height="60" as="geometry" />
        </mxCell>
        <mxCell id="gJ4gh3AajOQVxKOba_xv-11" style="edgeStyle=orthogonalEdgeStyle;html=1;entryX=0;entryY=0.25;entryDx=0;entryDy=0;endArrow=none;endFill=0;rounded=1;labelBackgroundColor=none;fontColor=default;" parent="1" source="gJ4gh3AajOQVxKOba_xv-8" target="gJ4gh3AajOQVxKOba_xv-9" edge="1">
          <mxGeometry relative="1" as="geometry">
            <Array as="points">
              <mxPoint x="-160" y="-120" />
              <mxPoint x="-160" y="170" />
            </Array>
          </mxGeometry>
        </mxCell>
        <mxCell id="10" value="N" style="edgeLabel;html=1;align=center;verticalAlign=middle;resizable=0;points=[];rounded=1;labelBackgroundColor=none;" parent="gJ4gh3AajOQVxKOba_xv-11" vertex="1" connectable="0">
          <mxGeometry x="0.2461" y="-1" relative="1" as="geometry">
            <mxPoint x="21" y="126" as="offset" />
          </mxGeometry>
        </mxCell>
        <mxCell id="gJ4gh3AajOQVxKOba_xv-8" value="GÃ¶r" style="shape=rhombus;perimeter=rhombusPerimeter;whiteSpace=wrap;html=1;align=center;rounded=1;labelBackgroundColor=none;" parent="1" vertex="1">
          <mxGeometry x="-480" y="-150" width="120" height="60" as="geometry" />
        </mxCell>
        <mxCell id="xCbvcIHpF9s-PVdCFj8D-29" value="N" style="edgeStyle=orthogonalEdgeStyle;html=1;entryX=0.5;entryY=0;entryDx=0;entryDy=0;endArrow=none;endFill=0;rounded=1;labelBackgroundColor=none;fontColor=default;shape=link;" parent="1" target="xCbvcIHpF9s-PVdCFj8D-18" edge="1">
          <mxGeometry x="0.2401" y="10" relative="1" as="geometry">
            <mxPoint as="offset" />
            <mxPoint x="30" y="190" as="sourcePoint" />
          </mxGeometry>
        </mxCell>
        <mxCell id="23" style="edgeStyle=orthogonalEdgeStyle;html=1;entryX=0.5;entryY=0;entryDx=0;entryDy=0;exitX=1;exitY=0.75;exitDx=0;exitDy=0;endArrow=none;endFill=0;rounded=1;labelBackgroundColor=none;fontColor=default;shape=link;" parent="1" source="gJ4gh3AajOQVxKOba_xv-9" target="18" edge="1">
          <mxGeometry relative="1" as="geometry">
            <Array as="points">
              <mxPoint x="40" y="190" />
            </Array>
          </mxGeometry>
        </mxCell>
        <mxCell id="27" value="N" style="edgeLabel;html=1;align=center;verticalAlign=middle;resizable=0;points=[];rounded=1;labelBackgroundColor=none;" parent="23" vertex="1" connectable="0">
          <mxGeometry x="-0.4542" relative="1" as="geometry">
            <mxPoint x="11" y="20" as="offset" />
          </mxGeometry>
        </mxCell>
        <mxCell id="hnY4cimSsR87jAR_6S_2-50" style="edgeStyle=orthogonalEdgeStyle;html=1;entryX=0.5;entryY=0;entryDx=0;entryDy=0;endArrow=none;endFill=0;rounded=1;labelBackgroundColor=none;fontColor=default;shape=link;" parent="1" source="gJ4gh3AajOQVxKOba_xv-9" target="hnY4cimSsR87jAR_6S_2-49" edge="1">
          <mxGeometry relative="1" as="geometry">
            <Array as="points">
              <mxPoint x="330" y="190" />
            </Array>
          </mxGeometry>
        </mxCell>
        <mxCell id="L0jsFw3nJKriv6r09RL3-39" value="N" style="edgeLabel;html=1;align=center;verticalAlign=middle;resizable=0;points=[];rounded=1;" parent="hnY4cimSsR87jAR_6S_2-50" vertex="1" connectable="0">
          <mxGeometry x="0.8239" y="-2" relative="1" as="geometry">
            <mxPoint x="12" y="-68" as="offset" />
          </mxGeometry>
        </mxCell>
        <mxCell id="gJ4gh3AajOQVxKOba_xv-9" value="BestÃ¤llning" style="whiteSpace=wrap;html=1;align=center;rounded=1;labelBackgroundColor=none;" parent="1" vertex="1">
          <mxGeometry x="-110" y="160" width="100" height="40" as="geometry" />
        </mxCell>
        <mxCell id="gJ4gh3AajOQVxKOba_xv-18" style="edgeStyle=orthogonalEdgeStyle;html=1;entryX=1;entryY=0.25;entryDx=0;entryDy=0;endArrow=none;endFill=0;rounded=1;labelBackgroundColor=none;fontColor=default;" parent="1" source="gJ4gh3AajOQVxKOba_xv-14" target="X15DQP2Ge36uVb0Z_0wF-45" edge="1">
          <mxGeometry relative="1" as="geometry" />
        </mxCell>
        <mxCell id="MabK6VyOBC5WTbX4r10v-185" value="&amp;nbsp;M" style="edgeLabel;html=1;align=center;verticalAlign=middle;resizable=0;points=[];" vertex="1" connectable="0" parent="gJ4gh3AajOQVxKOba_xv-18">
          <mxGeometry x="0.935" y="-1" relative="1" as="geometry">
            <mxPoint x="-1" y="-9" as="offset" />
          </mxGeometry>
        </mxCell>
        <mxCell id="gJ4gh3AajOQVxKOba_xv-19" style="edgeStyle=orthogonalEdgeStyle;html=1;exitX=1;exitY=0.5;exitDx=0;exitDy=0;entryX=0.25;entryY=1;entryDx=0;entryDy=0;endArrow=none;endFill=0;rounded=1;labelBackgroundColor=none;fontColor=default;shape=link;" parent="1" source="gJ4gh3AajOQVxKOba_xv-14" target="gJ4gh3AajOQVxKOba_xv-9" edge="1">
          <mxGeometry relative="1" as="geometry" />
        </mxCell>
        <mxCell id="12" value="N" style="edgeLabel;html=1;align=center;verticalAlign=middle;resizable=0;points=[];rounded=1;labelBackgroundColor=none;" parent="gJ4gh3AajOQVxKOba_xv-19" vertex="1" connectable="0">
          <mxGeometry x="0.8847" y="1" relative="1" as="geometry">
            <mxPoint x="-14" y="4" as="offset" />
          </mxGeometry>
        </mxCell>
        <mxCell id="gJ4gh3AajOQVxKOba_xv-14" value="InnehÃ¥ller" style="shape=rhombus;perimeter=rhombusPerimeter;whiteSpace=wrap;html=1;align=center;rounded=1;labelBackgroundColor=none;" parent="1" vertex="1">
          <mxGeometry x="-450" y="260" width="120" height="60" as="geometry" />
        </mxCell>
        <mxCell id="MabK6VyOBC5WTbX4r10v-219" style="edgeStyle=orthogonalEdgeStyle;rounded=1;orthogonalLoop=1;jettySize=auto;html=1;exitX=0;exitY=0.5;exitDx=0;exitDy=0;entryX=0.75;entryY=0;entryDx=0;entryDy=0;endArrow=none;endFill=0;curved=0;" edge="1" parent="1" source="gJ4gh3AajOQVxKOba_xv-15" target="gJ4gh3AajOQVxKOba_xv-9">
          <mxGeometry relative="1" as="geometry" />
        </mxCell>
        <mxCell id="gJ4gh3AajOQVxKOba_xv-15" value="BestÃ¤llningsID" style="ellipse;whiteSpace=wrap;html=1;align=center;fontStyle=4;rounded=1;labelBackgroundColor=none;" parent="1" vertex="1">
          <mxGeometry y="-35" width="100" height="40" as="geometry" />
        </mxCell>
        <mxCell id="MabK6VyOBC5WTbX4r10v-220" style="edgeStyle=orthogonalEdgeStyle;rounded=1;orthogonalLoop=1;jettySize=auto;html=1;entryX=0.75;entryY=0;entryDx=0;entryDy=0;endArrow=none;endFill=0;curved=0;" edge="1" parent="1" source="gJ4gh3AajOQVxKOba_xv-16" target="gJ4gh3AajOQVxKOba_xv-9">
          <mxGeometry relative="1" as="geometry" />
        </mxCell>
        <mxCell id="gJ4gh3AajOQVxKOba_xv-16" value="UtlÃ¤mningsdatum" style="ellipse;whiteSpace=wrap;html=1;align=center;rounded=1;labelBackgroundColor=none;" parent="1" vertex="1">
          <mxGeometry y="12.5" width="100" height="40" as="geometry" />
        </mxCell>
        <mxCell id="MabK6VyOBC5WTbX4r10v-221" style="edgeStyle=orthogonalEdgeStyle;rounded=1;orthogonalLoop=1;jettySize=auto;html=1;entryX=0.75;entryY=0;entryDx=0;entryDy=0;endArrow=none;endFill=0;curved=0;" edge="1" parent="1" source="gJ4gh3AajOQVxKOba_xv-20" target="gJ4gh3AajOQVxKOba_xv-9">
          <mxGeometry relative="1" as="geometry" />
        </mxCell>
        <mxCell id="gJ4gh3AajOQVxKOba_xv-20" value="Returdatum" style="ellipse;whiteSpace=wrap;html=1;align=center;rounded=1;labelBackgroundColor=none;" parent="1" vertex="1">
          <mxGeometry y="60" width="100" height="40" as="geometry" />
        </mxCell>
        <mxCell id="gJ4gh3AajOQVxKOba_xv-64" style="edgeStyle=orthogonalEdgeStyle;html=1;entryX=1;entryY=0.5;entryDx=0;entryDy=0;endArrow=none;endFill=0;rounded=1;labelBackgroundColor=none;fontColor=default;" parent="1" source="gJ4gh3AajOQVxKOba_xv-22" target="gJ4gh3AajOQVxKOba_xv-23" edge="1">
          <mxGeometry relative="1" as="geometry" />
        </mxCell>
        <mxCell id="gJ4gh3AajOQVxKOba_xv-22" value="Leveransmetod" style="whiteSpace=wrap;html=1;align=center;rounded=1;labelBackgroundColor=none;" parent="1" vertex="1">
          <mxGeometry x="-295" y="-440" width="100" height="40" as="geometry" />
        </mxCell>
        <mxCell id="gJ4gh3AajOQVxKOba_xv-23" value="&lt;span style=&quot;font-weight: 400;&quot;&gt;LeveransmetodID&lt;/span&gt;" style="ellipse;whiteSpace=wrap;html=1;align=center;fontStyle=5;rounded=1;labelBackgroundColor=none;" parent="1" vertex="1">
          <mxGeometry x="-445" y="-490" width="100" height="40" as="geometry" />
        </mxCell>
        <mxCell id="gJ4gh3AajOQVxKOba_xv-26" style="edgeStyle=orthogonalEdgeStyle;html=1;entryX=0;entryY=0.5;entryDx=0;entryDy=0;endArrow=none;endFill=0;rounded=1;labelBackgroundColor=none;fontColor=default;" parent="1" source="gJ4gh3AajOQVxKOba_xv-24" target="gJ4gh3AajOQVxKOba_xv-22" edge="1">
          <mxGeometry relative="1" as="geometry" />
        </mxCell>
        <mxCell id="gJ4gh3AajOQVxKOba_xv-24" value="Beskrivning" style="ellipse;whiteSpace=wrap;html=1;align=center;rounded=1;labelBackgroundColor=none;" parent="1" vertex="1">
          <mxGeometry x="-445" y="-440" width="100" height="40" as="geometry" />
        </mxCell>
        <mxCell id="gJ4gh3AajOQVxKOba_xv-30" style="edgeStyle=orthogonalEdgeStyle;html=1;exitX=0.5;exitY=0;exitDx=0;exitDy=0;entryX=0.5;entryY=1;entryDx=0;entryDy=0;endArrow=none;endFill=0;rounded=1;labelBackgroundColor=none;fontColor=default;" parent="1" source="gJ4gh3AajOQVxKOba_xv-28" target="gJ4gh3AajOQVxKOba_xv-22" edge="1">
          <mxGeometry relative="1" as="geometry" />
        </mxCell>
        <mxCell id="gJ4gh3AajOQVxKOba_xv-70" style="edgeStyle=orthogonalEdgeStyle;html=1;entryX=0.25;entryY=0;entryDx=0;entryDy=0;endArrow=none;endFill=0;rounded=1;labelBackgroundColor=none;fontColor=default;shape=link;exitX=0.5;exitY=1;exitDx=0;exitDy=0;" parent="1" source="gJ4gh3AajOQVxKOba_xv-28" target="gJ4gh3AajOQVxKOba_xv-9" edge="1">
          <mxGeometry relative="1" as="geometry">
            <Array as="points">
              <mxPoint x="-245" y="-200" />
              <mxPoint x="-85" y="-200" />
            </Array>
          </mxGeometry>
        </mxCell>
        <mxCell id="2" value="1" style="edgeLabel;html=1;align=center;verticalAlign=middle;resizable=0;points=[];rounded=1;labelBackgroundColor=none;" parent="gJ4gh3AajOQVxKOba_xv-70" vertex="1" connectable="0">
          <mxGeometry x="-0.0539" y="-3" relative="1" as="geometry">
            <mxPoint x="-147" y="-234" as="offset" />
          </mxGeometry>
        </mxCell>
        <mxCell id="gJ4gh3AajOQVxKOba_xv-28" value="AnvÃ¤nder" style="shape=rhombus;perimeter=rhombusPerimeter;whiteSpace=wrap;html=1;align=center;rounded=1;labelBackgroundColor=none;" parent="1" vertex="1">
          <mxGeometry x="-305" y="-340" width="120" height="60" as="geometry" />
        </mxCell>
        <mxCell id="gJ4gh3AajOQVxKOba_xv-38" value="Returmetod" style="whiteSpace=wrap;html=1;align=center;rounded=1;labelBackgroundColor=none;" parent="1" vertex="1">
          <mxGeometry x="-135" y="-440" width="100" height="40" as="geometry" />
        </mxCell>
        <mxCell id="gJ4gh3AajOQVxKOba_xv-65" style="edgeStyle=orthogonalEdgeStyle;html=1;entryX=0.5;entryY=0;entryDx=0;entryDy=0;endArrow=none;endFill=0;rounded=1;labelBackgroundColor=none;fontColor=default;" parent="1" source="gJ4gh3AajOQVxKOba_xv-39" target="gJ4gh3AajOQVxKOba_xv-38" edge="1">
          <mxGeometry relative="1" as="geometry" />
        </mxCell>
        <mxCell id="gJ4gh3AajOQVxKOba_xv-39" value="&lt;span style=&quot;font-weight: 400;&quot;&gt;ReturmetodID&lt;/span&gt;" style="ellipse;whiteSpace=wrap;html=1;align=center;fontStyle=5;rounded=1;labelBackgroundColor=none;" parent="1" vertex="1">
          <mxGeometry x="-195" y="-520" width="100" height="40" as="geometry" />
        </mxCell>
        <mxCell id="gJ4gh3AajOQVxKOba_xv-66" style="edgeStyle=orthogonalEdgeStyle;html=1;endArrow=none;endFill=0;exitX=0.5;exitY=1;exitDx=0;exitDy=0;rounded=1;labelBackgroundColor=none;fontColor=default;" parent="1" source="gJ4gh3AajOQVxKOba_xv-40" edge="1">
          <mxGeometry relative="1" as="geometry">
            <mxPoint x="-85" y="-439.9999999999998" as="targetPoint" />
          </mxGeometry>
        </mxCell>
        <mxCell id="gJ4gh3AajOQVxKOba_xv-40" value="Beskrivning" style="ellipse;whiteSpace=wrap;html=1;align=center;rounded=1;labelBackgroundColor=none;" parent="1" vertex="1">
          <mxGeometry x="-75" y="-520" width="100" height="40" as="geometry" />
        </mxCell>
        <mxCell id="gJ4gh3AajOQVxKOba_xv-46" value="1" style="edgeStyle=orthogonalEdgeStyle;html=1;exitX=0.5;exitY=0;exitDx=0;exitDy=0;entryX=0.5;entryY=1;entryDx=0;entryDy=0;endArrow=none;endFill=0;rounded=1;labelBackgroundColor=none;fontColor=default;" parent="1" source="gJ4gh3AajOQVxKOba_xv-44" target="gJ4gh3AajOQVxKOba_xv-38" edge="1">
          <mxGeometry x="0.6667" y="-10" relative="1" as="geometry">
            <mxPoint as="offset" />
          </mxGeometry>
        </mxCell>
        <mxCell id="gJ4gh3AajOQVxKOba_xv-69" style="edgeStyle=orthogonalEdgeStyle;html=1;entryX=0.25;entryY=0;entryDx=0;entryDy=0;endArrow=none;endFill=0;rounded=1;labelBackgroundColor=none;fontColor=default;shape=link;exitX=0.5;exitY=1;exitDx=0;exitDy=0;" parent="1" source="gJ4gh3AajOQVxKOba_xv-44" target="gJ4gh3AajOQVxKOba_xv-9" edge="1">
          <mxGeometry relative="1" as="geometry">
            <Array as="points">
              <mxPoint x="-85" y="-280" />
            </Array>
          </mxGeometry>
        </mxCell>
        <mxCell id="6" value="N" style="edgeLabel;html=1;align=center;verticalAlign=middle;resizable=0;points=[];rounded=1;labelBackgroundColor=none;" parent="gJ4gh3AajOQVxKOba_xv-69" vertex="1" connectable="0">
          <mxGeometry x="-0.7718" relative="1" as="geometry">
            <mxPoint x="10" y="19" as="offset" />
          </mxGeometry>
        </mxCell>
        <mxCell id="gJ4gh3AajOQVxKOba_xv-44" value="AnvÃ¤nder" style="shape=rhombus;perimeter=rhombusPerimeter;whiteSpace=wrap;html=1;align=center;rounded=1;labelBackgroundColor=none;" parent="1" vertex="1">
          <mxGeometry x="-145" y="-340" width="120" height="60" as="geometry" />
        </mxCell>
        <mxCell id="gJ4gh3AajOQVxKOba_xv-61" style="edgeStyle=orthogonalEdgeStyle;html=1;entryX=0.5;entryY=0;entryDx=0;entryDy=0;endArrow=none;endFill=0;rounded=1;labelBackgroundColor=none;fontColor=default;" parent="1" source="gJ4gh3AajOQVxKOba_xv-56" target="gJ4gh3AajOQVxKOba_xv-60" edge="1">
          <mxGeometry relative="1" as="geometry" />
        </mxCell>
        <mxCell id="9" value="1" style="edgeLabel;html=1;align=center;verticalAlign=middle;resizable=0;points=[];rounded=1;labelBackgroundColor=none;" parent="gJ4gh3AajOQVxKOba_xv-61" vertex="1" connectable="0">
          <mxGeometry x="0.2098" y="-1" relative="1" as="geometry">
            <mxPoint x="11" y="-26" as="offset" />
          </mxGeometry>
        </mxCell>
        <mxCell id="gJ4gh3AajOQVxKOba_xv-56" value="Betalningsmetod" style="whiteSpace=wrap;html=1;align=center;rounded=1;labelBackgroundColor=none;" parent="1" vertex="1">
          <mxGeometry x="25" y="-440" width="100" height="40" as="geometry" />
        </mxCell>
        <mxCell id="gJ4gh3AajOQVxKOba_xv-68" style="edgeStyle=orthogonalEdgeStyle;html=1;exitX=0;exitY=0.5;exitDx=0;exitDy=0;entryX=1;entryY=0.5;entryDx=0;entryDy=0;endArrow=none;endFill=0;rounded=1;labelBackgroundColor=none;fontColor=default;" parent="1" source="gJ4gh3AajOQVxKOba_xv-58" target="gJ4gh3AajOQVxKOba_xv-56" edge="1">
          <mxGeometry relative="1" as="geometry" />
        </mxCell>
        <mxCell id="gJ4gh3AajOQVxKOba_xv-58" value="&lt;span style=&quot;font-weight: 400;&quot;&gt;BetalningsID&lt;/span&gt;" style="ellipse;whiteSpace=wrap;html=1;align=center;fontStyle=5;rounded=1;labelBackgroundColor=none;" parent="1" vertex="1">
          <mxGeometry x="175" y="-490" width="100" height="40" as="geometry" />
        </mxCell>
        <mxCell id="gJ4gh3AajOQVxKOba_xv-67" style="edgeStyle=orthogonalEdgeStyle;html=1;entryX=1;entryY=0.5;entryDx=0;entryDy=0;endArrow=none;endFill=0;rounded=1;labelBackgroundColor=none;fontColor=default;" parent="1" source="gJ4gh3AajOQVxKOba_xv-59" target="gJ4gh3AajOQVxKOba_xv-56" edge="1">
          <mxGeometry relative="1" as="geometry" />
        </mxCell>
        <mxCell id="gJ4gh3AajOQVxKOba_xv-59" value="Beskrivning" style="ellipse;whiteSpace=wrap;html=1;align=center;rounded=1;labelBackgroundColor=none;" parent="1" vertex="1">
          <mxGeometry x="175" y="-440" width="100" height="40" as="geometry" />
        </mxCell>
        <mxCell id="gJ4gh3AajOQVxKOba_xv-71" style="edgeStyle=orthogonalEdgeStyle;html=1;entryX=0.25;entryY=0;entryDx=0;entryDy=0;endArrow=none;endFill=0;rounded=1;labelBackgroundColor=none;fontColor=default;shape=link;exitX=0.5;exitY=1;exitDx=0;exitDy=0;" parent="1" source="gJ4gh3AajOQVxKOba_xv-60" target="gJ4gh3AajOQVxKOba_xv-9" edge="1">
          <mxGeometry relative="1" as="geometry">
            <Array as="points">
              <mxPoint x="75" y="-200" />
              <mxPoint x="-85" y="-200" />
            </Array>
          </mxGeometry>
        </mxCell>
        <mxCell id="7" value="N" style="edgeLabel;html=1;align=center;verticalAlign=middle;resizable=0;points=[];rounded=1;labelBackgroundColor=none;" parent="gJ4gh3AajOQVxKOba_xv-71" vertex="1" connectable="0">
          <mxGeometry x="-0.6753" y="-2" relative="1" as="geometry">
            <mxPoint x="33" y="-8" as="offset" />
          </mxGeometry>
        </mxCell>
        <mxCell id="gJ4gh3AajOQVxKOba_xv-60" value="AnvÃ¤nder" style="shape=rhombus;perimeter=rhombusPerimeter;whiteSpace=wrap;html=1;align=center;rounded=1;labelBackgroundColor=none;" parent="1" vertex="1">
          <mxGeometry x="15" y="-340" width="120" height="60" as="geometry" />
        </mxCell>
        <mxCell id="3" value="N" style="edgeLabel;html=1;align=center;verticalAlign=middle;resizable=0;points=[];rounded=1;labelBackgroundColor=none;" parent="1" vertex="1" connectable="0">
          <mxGeometry x="-295" y="-340" as="geometry">
            <mxPoint x="66" y="127" as="offset" />
          </mxGeometry>
        </mxCell>
        <mxCell id="38" style="edgeStyle=orthogonalEdgeStyle;html=1;entryX=0.75;entryY=0;entryDx=0;entryDy=0;endArrow=none;endFill=0;exitX=0.5;exitY=1;exitDx=0;exitDy=0;rounded=1;labelBackgroundColor=none;fontColor=default;" parent="1" source="xCbvcIHpF9s-PVdCFj8D-18" target="X15DQP2Ge36uVb0Z_0wF-58" edge="1">
          <mxGeometry relative="1" as="geometry" />
        </mxCell>
        <mxCell id="39" value="1" style="edgeLabel;html=1;align=center;verticalAlign=middle;resizable=0;points=[];rounded=1;labelBackgroundColor=none;" parent="38" vertex="1" connectable="0">
          <mxGeometry x="0.448" y="-1" relative="1" as="geometry">
            <mxPoint x="-34" y="60" as="offset" />
          </mxGeometry>
        </mxCell>
        <mxCell id="xCbvcIHpF9s-PVdCFj8D-18" value="Returneras till" style="shape=rhombus;perimeter=rhombusPerimeter;whiteSpace=wrap;html=1;align=center;rounded=1;labelBackgroundColor=none;" parent="1" vertex="1">
          <mxGeometry x="130" y="310" width="120" height="60" as="geometry" />
        </mxCell>
        <mxCell id="25" style="edgeStyle=orthogonalEdgeStyle;html=1;entryX=0.25;entryY=0;entryDx=0;entryDy=0;endArrow=none;endFill=0;rounded=1;labelBackgroundColor=none;fontColor=default;" parent="1" source="18" target="X15DQP2Ge36uVb0Z_0wF-58" edge="1">
          <mxGeometry relative="1" as="geometry" />
        </mxCell>
        <mxCell id="28" value="1" style="edgeLabel;html=1;align=center;verticalAlign=middle;resizable=0;points=[];rounded=1;labelBackgroundColor=none;" parent="25" vertex="1" connectable="0">
          <mxGeometry x="-0.3645" y="1" relative="1" as="geometry">
            <mxPoint x="109" y="116" as="offset" />
          </mxGeometry>
        </mxCell>
        <mxCell id="18" value="UtlÃ¤mnas vid" style="shape=rhombus;perimeter=rhombusPerimeter;whiteSpace=wrap;html=1;align=center;rounded=1;labelBackgroundColor=none;" parent="1" vertex="1">
          <mxGeometry x="-20" y="310" width="120" height="60" as="geometry" />
        </mxCell>
        <mxCell id="MabK6VyOBC5WTbX4r10v-90" style="edgeStyle=orthogonalEdgeStyle;rounded=1;orthogonalLoop=1;jettySize=auto;html=1;entryX=0.5;entryY=0;entryDx=0;entryDy=0;endArrow=none;endFill=0;curved=0;" edge="1" parent="1" source="29" target="gJ4gh3AajOQVxKOba_xv-14">
          <mxGeometry relative="1" as="geometry" />
        </mxCell>
        <mxCell id="29" value="Antal" style="ellipse;whiteSpace=wrap;html=1;align=center;rounded=1;labelBackgroundColor=none;" parent="1" vertex="1">
          <mxGeometry x="-440" y="190" width="100" height="40" as="geometry" />
        </mxCell>
        <mxCell id="zPHU5pYGophFMNfqE69X-41" style="edgeStyle=orthogonalEdgeStyle;html=1;entryX=0.5;entryY=1;entryDx=0;entryDy=0;endArrow=none;endFill=0;rounded=1;labelBackgroundColor=none;fontColor=default;" parent="1" source="zPHU5pYGophFMNfqE69X-40" target="gJ4gh3AajOQVxKOba_xv-1" edge="1">
          <mxGeometry relative="1" as="geometry" />
        </mxCell>
        <mxCell id="zPHU5pYGophFMNfqE69X-40" value="Inventerings-datum&amp;nbsp;" style="ellipse;whiteSpace=wrap;html=1;align=center;rounded=1;labelBackgroundColor=none;" parent="1" vertex="1">
          <mxGeometry x="-375" y="460" width="100" height="40" as="geometry" />
        </mxCell>
        <mxCell id="4b5mmPbWSpkRKRc2UZv8-40" style="edgeStyle=orthogonalEdgeStyle;html=1;entryX=0.5;entryY=1;entryDx=0;entryDy=0;endArrow=none;endFill=0;rounded=1;labelBackgroundColor=none;fontColor=default;" parent="1" source="4b5mmPbWSpkRKRc2UZv8-39" target="gJ4gh3AajOQVxKOba_xv-1" edge="1">
          <mxGeometry relative="1" as="geometry" />
        </mxCell>
        <mxCell id="4b5mmPbWSpkRKRc2UZv8-39" value="Antal" style="ellipse;whiteSpace=wrap;html=1;align=center;rounded=1;labelBackgroundColor=none;" parent="1" vertex="1">
          <mxGeometry x="-265" y="460" width="100" height="40" as="geometry" />
        </mxCell>
        <mxCell id="Rw1I9RlVvu-Liqeo6EUA-39" value="Privatperson" style="whiteSpace=wrap;html=1;align=center;rounded=1;labelBackgroundColor=none;" parent="1" vertex="1">
          <mxGeometry x="-1155" y="-7.499999999999998" width="100" height="40" as="geometry" />
        </mxCell>
        <mxCell id="Rw1I9RlVvu-Liqeo6EUA-50" style="edgeStyle=orthogonalEdgeStyle;html=1;entryX=0;entryY=0.5;entryDx=0;entryDy=0;endArrow=none;endFill=0;rounded=1;labelBackgroundColor=none;fontColor=default;" parent="1" source="Rw1I9RlVvu-Liqeo6EUA-40" target="Rw1I9RlVvu-Liqeo6EUA-42" edge="1">
          <mxGeometry relative="1" as="geometry" />
        </mxCell>
        <mxCell id="Rw1I9RlVvu-Liqeo6EUA-51" style="edgeStyle=orthogonalEdgeStyle;html=1;entryX=0;entryY=0.5;entryDx=0;entryDy=0;endArrow=none;endFill=0;rounded=1;labelBackgroundColor=none;fontColor=default;" parent="1" source="Rw1I9RlVvu-Liqeo6EUA-40" target="Rw1I9RlVvu-Liqeo6EUA-41" edge="1">
          <mxGeometry relative="1" as="geometry" />
        </mxCell>
        <mxCell id="Rw1I9RlVvu-Liqeo6EUA-40" value="FÃ¶retag" style="whiteSpace=wrap;html=1;align=center;rounded=1;labelBackgroundColor=none;" parent="1" vertex="1">
          <mxGeometry x="-1035" y="-7.499999999999998" width="100" height="40" as="geometry" />
        </mxCell>
        <mxCell id="Rw1I9RlVvu-Liqeo6EUA-41" value="Namn" style="ellipse;whiteSpace=wrap;html=1;align=center;rounded=1;labelBackgroundColor=none;" parent="1" vertex="1">
          <mxGeometry x="-905" y="-32.49999999999999" width="100" height="40" as="geometry" />
        </mxCell>
        <mxCell id="Rw1I9RlVvu-Liqeo6EUA-42" value="Organisations-nummer&amp;nbsp;" style="ellipse;whiteSpace=wrap;html=1;align=center;rounded=1;labelBackgroundColor=none;" parent="1" vertex="1">
          <mxGeometry x="-905" y="17.5" width="100" height="40" as="geometry" />
        </mxCell>
        <mxCell id="Rw1I9RlVvu-Liqeo6EUA-59" style="edgeStyle=orthogonalEdgeStyle;html=1;entryX=0.5;entryY=0;entryDx=0;entryDy=0;endArrow=none;endFill=0;rounded=1;labelBackgroundColor=none;fontColor=default;" parent="1" source="Rw1I9RlVvu-Liqeo6EUA-57" target="Rw1I9RlVvu-Liqeo6EUA-39" edge="1">
          <mxGeometry relative="1" as="geometry" />
        </mxCell>
        <mxCell id="Rw1I9RlVvu-Liqeo6EUA-60" style="edgeStyle=orthogonalEdgeStyle;html=1;entryX=0.5;entryY=0;entryDx=0;entryDy=0;endArrow=none;endFill=0;rounded=1;labelBackgroundColor=none;fontColor=default;" parent="1" source="Rw1I9RlVvu-Liqeo6EUA-57" target="Rw1I9RlVvu-Liqeo6EUA-40" edge="1">
          <mxGeometry relative="1" as="geometry" />
        </mxCell>
        <mxCell id="Rw1I9RlVvu-Liqeo6EUA-57" value="d" style="ellipse;whiteSpace=wrap;html=1;aspect=fixed;rounded=1;labelBackgroundColor=none;" parent="1" vertex="1">
          <mxGeometry x="-1060" y="-82.5" width="30" height="30" as="geometry" />
        </mxCell>
        <mxCell id="8t7_B2_ZQ1yEoZ1LnY9k-39" value="Adress" style="whiteSpace=wrap;html=1;align=center;rounded=1;labelBackgroundColor=none;" parent="1" vertex="1">
          <mxGeometry x="-1670" y="600.26" width="100" height="40" as="geometry" />
        </mxCell>
        <mxCell id="hnY4cimSsR87jAR_6S_2-39" style="edgeStyle=orthogonalEdgeStyle;html=1;entryX=0;entryY=0.5;entryDx=0;entryDy=0;endArrow=none;endFill=0;rounded=1;labelBackgroundColor=none;fontColor=default;" parent="1" source="NZWzQ8rSxIwKvkSdN42D-39" target="8t7_B2_ZQ1yEoZ1LnY9k-39" edge="1">
          <mxGeometry relative="1" as="geometry" />
        </mxCell>
        <mxCell id="NZWzQ8rSxIwKvkSdN42D-39" value="AdressID" style="ellipse;whiteSpace=wrap;html=1;align=center;fontStyle=4;rounded=1;labelBackgroundColor=none;" parent="1" vertex="1">
          <mxGeometry x="-1830" y="525.26" width="100" height="40" as="geometry" />
        </mxCell>
        <mxCell id="hnY4cimSsR87jAR_6S_2-41" style="edgeStyle=orthogonalEdgeStyle;html=1;entryX=0;entryY=0.5;entryDx=0;entryDy=0;endArrow=none;endFill=0;rounded=1;labelBackgroundColor=none;fontColor=default;" parent="1" source="NZWzQ8rSxIwKvkSdN42D-40" target="8t7_B2_ZQ1yEoZ1LnY9k-39" edge="1">
          <mxGeometry relative="1" as="geometry" />
        </mxCell>
        <mxCell id="NZWzQ8rSxIwKvkSdN42D-40" value="Gatuadress" style="ellipse;whiteSpace=wrap;html=1;align=center;rounded=1;labelBackgroundColor=none;" parent="1" vertex="1">
          <mxGeometry x="-1830" y="625.26" width="100" height="40" as="geometry" />
        </mxCell>
        <mxCell id="hnY4cimSsR87jAR_6S_2-42" style="edgeStyle=orthogonalEdgeStyle;html=1;entryX=0;entryY=0.5;entryDx=0;entryDy=0;endArrow=none;endFill=0;rounded=1;labelBackgroundColor=none;fontColor=default;" parent="1" source="NZWzQ8rSxIwKvkSdN42D-41" target="8t7_B2_ZQ1yEoZ1LnY9k-39" edge="1">
          <mxGeometry relative="1" as="geometry" />
        </mxCell>
        <mxCell id="NZWzQ8rSxIwKvkSdN42D-41" value="Postort" style="ellipse;whiteSpace=wrap;html=1;align=center;rounded=1;labelBackgroundColor=none;" parent="1" vertex="1">
          <mxGeometry x="-1830" y="675.26" width="100" height="40" as="geometry" />
        </mxCell>
        <mxCell id="hnY4cimSsR87jAR_6S_2-40" style="edgeStyle=orthogonalEdgeStyle;html=1;entryX=0;entryY=0.5;entryDx=0;entryDy=0;endArrow=none;endFill=0;rounded=1;labelBackgroundColor=none;fontColor=default;" parent="1" source="NZWzQ8rSxIwKvkSdN42D-42" target="8t7_B2_ZQ1yEoZ1LnY9k-39" edge="1">
          <mxGeometry relative="1" as="geometry" />
        </mxCell>
        <mxCell id="NZWzQ8rSxIwKvkSdN42D-42" value="Postnummer" style="ellipse;whiteSpace=wrap;html=1;align=center;rounded=1;labelBackgroundColor=none;" parent="1" vertex="1">
          <mxGeometry x="-1830" y="575.26" width="100" height="40" as="geometry" />
        </mxCell>
        <mxCell id="hnY4cimSsR87jAR_6S_2-45" style="edgeStyle=orthogonalEdgeStyle;html=1;exitX=0;exitY=0.5;exitDx=0;exitDy=0;entryX=0.5;entryY=1;entryDx=0;entryDy=0;endArrow=none;endFill=0;rounded=1;labelBackgroundColor=none;fontColor=default;" parent="1" source="hnY4cimSsR87jAR_6S_2-43" target="8t7_B2_ZQ1yEoZ1LnY9k-39" edge="1">
          <mxGeometry relative="1" as="geometry" />
        </mxCell>
        <mxCell id="hnY4cimSsR87jAR_6S_2-43" value="Har" style="shape=rhombus;perimeter=rhombusPerimeter;whiteSpace=wrap;html=1;align=center;rounded=1;labelBackgroundColor=none;" parent="1" vertex="1">
          <mxGeometry x="-290" y="810" width="120" height="60" as="geometry" />
        </mxCell>
        <mxCell id="hnY4cimSsR87jAR_6S_2-48" style="edgeStyle=orthogonalEdgeStyle;html=1;entryX=0.5;entryY=0;entryDx=0;entryDy=0;endArrow=none;endFill=0;rounded=1;labelBackgroundColor=none;fontColor=default;exitX=0;exitY=0.5;exitDx=0;exitDy=0;" parent="1" source="hnY4cimSsR87jAR_6S_2-46" target="8t7_B2_ZQ1yEoZ1LnY9k-39" edge="1">
          <mxGeometry relative="1" as="geometry">
            <Array as="points">
              <mxPoint x="-1620" y="-120" />
            </Array>
          </mxGeometry>
        </mxCell>
        <mxCell id="hnY4cimSsR87jAR_6S_2-46" value="Har" style="shape=rhombus;perimeter=rhombusPerimeter;whiteSpace=wrap;html=1;align=center;rounded=1;labelBackgroundColor=none;" parent="1" vertex="1">
          <mxGeometry x="-1510" y="-150" width="120" height="60" as="geometry" />
        </mxCell>
        <mxCell id="hnY4cimSsR87jAR_6S_2-51" style="edgeStyle=orthogonalEdgeStyle;html=1;entryX=0.5;entryY=1;entryDx=0;entryDy=0;endArrow=none;endFill=0;rounded=1;labelBackgroundColor=none;fontColor=default;exitX=0.5;exitY=1;exitDx=0;exitDy=0;jumpStyle=line;" parent="1" source="hnY4cimSsR87jAR_6S_2-49" target="8t7_B2_ZQ1yEoZ1LnY9k-39" edge="1">
          <mxGeometry relative="1" as="geometry">
            <Array as="points">
              <mxPoint x="330" y="920" />
              <mxPoint x="-1620" y="920" />
            </Array>
          </mxGeometry>
        </mxCell>
        <mxCell id="N3dC1drku8q0TnIEMgw_-41" value="1" style="edgeLabel;html=1;align=center;verticalAlign=middle;resizable=0;points=[];rounded=1;" parent="hnY4cimSsR87jAR_6S_2-51" vertex="1" connectable="0">
          <mxGeometry x="0.9728" y="1" relative="1" as="geometry">
            <mxPoint x="21" y="135" as="offset" />
          </mxGeometry>
        </mxCell>
        <mxCell id="L0jsFw3nJKriv6r09RL3-40" value="1" style="edgeLabel;html=1;align=center;verticalAlign=middle;resizable=0;points=[];rounded=1;" parent="hnY4cimSsR87jAR_6S_2-51" vertex="1" connectable="0">
          <mxGeometry x="0.7334" y="-1" relative="1" as="geometry">
            <mxPoint x="-70" y="-19" as="offset" />
          </mxGeometry>
        </mxCell>
        <mxCell id="hnY4cimSsR87jAR_6S_2-49" value="Har mottagare" style="shape=rhombus;perimeter=rhombusPerimeter;whiteSpace=wrap;html=1;align=center;rounded=1;labelBackgroundColor=none;" parent="1" vertex="1">
          <mxGeometry x="270" y="310" width="120" height="60" as="geometry" />
        </mxCell>
        <mxCell id="Z4GUB4jWSD3_mFD3uQad-73" style="edgeStyle=orthogonalEdgeStyle;html=1;entryX=0;entryY=0.5;entryDx=0;entryDy=0;endArrow=none;endFill=0;rounded=1;labelBackgroundColor=none;fontColor=default;" parent="1" source="Z4GUB4jWSD3_mFD3uQad-64" target="Z4GUB4jWSD3_mFD3uQad-65" edge="1">
          <mxGeometry relative="1" as="geometry" />
        </mxCell>
        <mxCell id="Z4GUB4jWSD3_mFD3uQad-74" style="edgeStyle=orthogonalEdgeStyle;html=1;entryX=0;entryY=0.5;entryDx=0;entryDy=0;endArrow=none;endFill=0;rounded=1;labelBackgroundColor=none;fontColor=default;" parent="1" source="Z4GUB4jWSD3_mFD3uQad-64" target="Z4GUB4jWSD3_mFD3uQad-67" edge="1">
          <mxGeometry relative="1" as="geometry" />
        </mxCell>
        <mxCell id="Z4GUB4jWSD3_mFD3uQad-76" style="edgeStyle=orthogonalEdgeStyle;html=1;entryX=0;entryY=0.5;entryDx=0;entryDy=0;endArrow=none;endFill=0;rounded=1;labelBackgroundColor=none;fontColor=default;" parent="1" source="Z4GUB4jWSD3_mFD3uQad-64" target="Z4GUB4jWSD3_mFD3uQad-71" edge="1">
          <mxGeometry relative="1" as="geometry" />
        </mxCell>
        <mxCell id="Z4GUB4jWSD3_mFD3uQad-77" style="edgeStyle=orthogonalEdgeStyle;html=1;entryX=0;entryY=0.5;entryDx=0;entryDy=0;endArrow=none;endFill=0;rounded=1;labelBackgroundColor=none;fontColor=default;" parent="1" source="Z4GUB4jWSD3_mFD3uQad-64" target="Z4GUB4jWSD3_mFD3uQad-70" edge="1">
          <mxGeometry relative="1" as="geometry" />
        </mxCell>
        <mxCell id="Z4GUB4jWSD3_mFD3uQad-78" style="edgeStyle=orthogonalEdgeStyle;html=1;entryX=0;entryY=0.5;entryDx=0;entryDy=0;endArrow=none;endFill=0;rounded=1;labelBackgroundColor=none;fontColor=default;" parent="1" source="Z4GUB4jWSD3_mFD3uQad-64" target="Z4GUB4jWSD3_mFD3uQad-68" edge="1">
          <mxGeometry relative="1" as="geometry" />
        </mxCell>
        <mxCell id="Z4GUB4jWSD3_mFD3uQad-88" style="edgeStyle=orthogonalEdgeStyle;html=1;entryX=0;entryY=0.5;entryDx=0;entryDy=0;endArrow=none;endFill=0;rounded=1;labelBackgroundColor=none;fontColor=default;" parent="1" source="Z4GUB4jWSD3_mFD3uQad-64" target="Z4GUB4jWSD3_mFD3uQad-85" edge="1">
          <mxGeometry relative="1" as="geometry" />
        </mxCell>
        <mxCell id="N8jOlP61B2uoSJelF5zk-67" style="edgeStyle=orthogonalEdgeStyle;rounded=1;orthogonalLoop=1;jettySize=auto;html=1;entryX=0.5;entryY=0;entryDx=0;entryDy=0;endArrow=none;endFill=0;" parent="1" source="Z4GUB4jWSD3_mFD3uQad-64" target="N8jOlP61B2uoSJelF5zk-65" edge="1">
          <mxGeometry relative="1" as="geometry">
            <mxPoint x="1100" y="351" as="targetPoint" />
          </mxGeometry>
        </mxCell>
        <mxCell id="MabK6VyOBC5WTbX4r10v-143" value="1" style="edgeLabel;html=1;align=center;verticalAlign=middle;resizable=0;points=[];" vertex="1" connectable="0" parent="N8jOlP61B2uoSJelF5zk-67">
          <mxGeometry x="0.6815" y="3" relative="1" as="geometry">
            <mxPoint x="7" y="-123" as="offset" />
          </mxGeometry>
        </mxCell>
        <mxCell id="N8jOlP61B2uoSJelF5zk-70" style="edgeStyle=orthogonalEdgeStyle;rounded=1;orthogonalLoop=1;jettySize=auto;html=1;exitX=0.25;exitY=1;exitDx=0;exitDy=0;entryX=1;entryY=0.5;entryDx=0;entryDy=0;endArrow=none;endFill=0;shape=link;" parent="1" source="Z4GUB4jWSD3_mFD3uQad-64" target="N8jOlP61B2uoSJelF5zk-69" edge="1">
          <mxGeometry relative="1" as="geometry" />
        </mxCell>
        <mxCell id="MabK6VyOBC5WTbX4r10v-225" value="N" style="edgeLabel;html=1;align=center;verticalAlign=middle;resizable=0;points=[];" vertex="1" connectable="0" parent="N8jOlP61B2uoSJelF5zk-70">
          <mxGeometry x="-0.8777" relative="1" as="geometry">
            <mxPoint x="-15" y="-10" as="offset" />
          </mxGeometry>
        </mxCell>
        <mxCell id="Z4GUB4jWSD3_mFD3uQad-64" value="AnstÃ¤lld" style="whiteSpace=wrap;html=1;align=center;rounded=1;labelBackgroundColor=none;" parent="1" vertex="1">
          <mxGeometry x="1050" y="150" width="100" height="40" as="geometry" />
        </mxCell>
        <mxCell id="Z4GUB4jWSD3_mFD3uQad-65" value="AnstÃ¤llningsID" style="ellipse;whiteSpace=wrap;html=1;align=center;fontStyle=4;rounded=1;labelBackgroundColor=none;" parent="1" vertex="1">
          <mxGeometry x="1290" width="100" height="40" as="geometry" />
        </mxCell>
        <mxCell id="zjlgXmpVwNW4HeltINd3-40" style="rounded=1;orthogonalLoop=1;jettySize=auto;html=1;exitX=0;exitY=0.5;exitDx=0;exitDy=0;entryX=1;entryY=0.5;entryDx=0;entryDy=0;endArrow=none;endFill=0;elbow=vertical;edgeStyle=orthogonalEdgeStyle;flowAnimation=0;shadow=0;curved=0;labelBackgroundColor=none;fontColor=default;" parent="1" source="Z4GUB4jWSD3_mFD3uQad-66" target="Z4GUB4jWSD3_mFD3uQad-67" edge="1">
          <mxGeometry relative="1" as="geometry" />
        </mxCell>
        <mxCell id="Z4GUB4jWSD3_mFD3uQad-66" value="Efternamn" style="ellipse;whiteSpace=wrap;html=1;align=center;rounded=1;labelBackgroundColor=none;" parent="1" vertex="1">
          <mxGeometry x="1420" y="50" width="100" height="40" as="geometry" />
        </mxCell>
        <mxCell id="Z4GUB4jWSD3_mFD3uQad-67" value="Namn" style="ellipse;whiteSpace=wrap;html=1;align=center;rounded=1;labelBackgroundColor=none;" parent="1" vertex="1">
          <mxGeometry x="1290" y="50" width="100" height="40" as="geometry" />
        </mxCell>
        <mxCell id="Z4GUB4jWSD3_mFD3uQad-68" value="LÃ¶n" style="ellipse;whiteSpace=wrap;html=1;align=center;rounded=1;labelBackgroundColor=none;" parent="1" vertex="1">
          <mxGeometry x="1290" y="200" width="100" height="40" as="geometry" />
        </mxCell>
        <mxCell id="Z4GUB4jWSD3_mFD3uQad-70" value="Epost" style="ellipse;whiteSpace=wrap;html=1;align=center;rounded=1;labelBackgroundColor=none;" parent="1" vertex="1">
          <mxGeometry x="1290" y="150" width="100" height="40" as="geometry" />
        </mxCell>
        <mxCell id="Z4GUB4jWSD3_mFD3uQad-71" value="Telefonnummer" style="ellipse;whiteSpace=wrap;html=1;align=center;rounded=1;labelBackgroundColor=none;" parent="1" vertex="1">
          <mxGeometry x="1290" y="100" width="100" height="40" as="geometry" />
        </mxCell>
        <mxCell id="Z4GUB4jWSD3_mFD3uQad-82" style="edgeStyle=orthogonalEdgeStyle;html=1;entryX=0;entryY=0.5;entryDx=0;entryDy=0;endArrow=none;endFill=0;rounded=1;labelBackgroundColor=none;fontColor=default;" parent="1" source="Z4GUB4jWSD3_mFD3uQad-81" target="Rw1I9RlVvu-Liqeo6EUA-39" edge="1">
          <mxGeometry relative="1" as="geometry" />
        </mxCell>
        <mxCell id="Z4GUB4jWSD3_mFD3uQad-81" value="Personnummer" style="ellipse;whiteSpace=wrap;html=1;align=center;rounded=1;labelBackgroundColor=none;" parent="1" vertex="1">
          <mxGeometry x="-1285" y="42.5" width="100" height="40" as="geometry" />
        </mxCell>
        <mxCell id="Z4GUB4jWSD3_mFD3uQad-85" value="Personnummer" style="ellipse;whiteSpace=wrap;html=1;align=center;rounded=1;labelBackgroundColor=none;" parent="1" vertex="1">
          <mxGeometry x="1290" y="250" width="100" height="40" as="geometry" />
        </mxCell>
        <mxCell id="zjlgXmpVwNW4HeltINd3-50" style="edgeStyle=orthogonalEdgeStyle;orthogonalLoop=1;jettySize=auto;html=1;entryX=1;entryY=0.5;entryDx=0;entryDy=0;rounded=1;labelBackgroundColor=none;fontColor=default;endArrow=none;endFill=0;" parent="1" source="hah-HSdj0gOgd44aWikR-48" target="Z4GUB4jWSD3_mFD3uQad-64" edge="1">
          <mxGeometry relative="1" as="geometry" />
        </mxCell>
        <mxCell id="hah-HSdj0gOgd44aWikR-48" value="AnstÃ¤llnings-datum" style="ellipse;whiteSpace=wrap;html=1;align=center;rounded=1;labelBackgroundColor=none;" parent="1" vertex="1">
          <mxGeometry x="1290" y="300" width="100" height="40" as="geometry" />
        </mxCell>
        <mxCell id="zjlgXmpVwNW4HeltINd3-41" style="rounded=1;orthogonalLoop=1;jettySize=auto;html=1;exitX=0;exitY=0.5;exitDx=0;exitDy=0;entryX=1;entryY=0.5;entryDx=0;entryDy=0;endArrow=none;endFill=0;elbow=vertical;edgeStyle=orthogonalEdgeStyle;flowAnimation=0;shadow=0;curved=0;labelBackgroundColor=none;fontColor=default;" parent="1" source="zjlgXmpVwNW4HeltINd3-39" target="Z4GUB4jWSD3_mFD3uQad-67" edge="1">
          <mxGeometry relative="1" as="geometry">
            <Array as="points">
              <mxPoint x="1410" y="20" />
              <mxPoint x="1410" y="70" />
            </Array>
          </mxGeometry>
        </mxCell>
        <mxCell id="zjlgXmpVwNW4HeltINd3-39" value="FÃ¶rnamn" style="ellipse;whiteSpace=wrap;html=1;align=center;rounded=1;labelBackgroundColor=none;" parent="1" vertex="1">
          <mxGeometry x="1420" width="100" height="40" as="geometry" />
        </mxCell>
        <mxCell id="zjlgXmpVwNW4HeltINd3-44" style="edgeStyle=orthogonalEdgeStyle;rounded=1;orthogonalLoop=1;jettySize=auto;html=1;entryX=0.5;entryY=0;entryDx=0;entryDy=0;endArrow=none;endFill=0;curved=0;labelBackgroundColor=none;fontColor=default;" parent="1" source="zjlgXmpVwNW4HeltINd3-42" target="zjlgXmpVwNW4HeltINd3-43" edge="1">
          <mxGeometry relative="1" as="geometry" />
        </mxCell>
        <mxCell id="L0jsFw3nJKriv6r09RL3-41" value="1" style="edgeLabel;html=1;align=center;verticalAlign=middle;resizable=0;points=[];rounded=1;" parent="zjlgXmpVwNW4HeltINd3-44" vertex="1" connectable="0">
          <mxGeometry x="0.2348" relative="1" as="geometry">
            <mxPoint x="10" y="-16" as="offset" />
          </mxGeometry>
        </mxCell>
        <mxCell id="zjlgXmpVwNW4HeltINd3-48" style="edgeStyle=orthogonalEdgeStyle;orthogonalLoop=1;jettySize=auto;html=1;entryX=0.5;entryY=1;entryDx=0;entryDy=0;endArrow=none;endFill=0;rounded=1;labelBackgroundColor=none;fontColor=default;" parent="1" source="zjlgXmpVwNW4HeltINd3-42" target="zjlgXmpVwNW4HeltINd3-46" edge="1">
          <mxGeometry relative="1" as="geometry" />
        </mxCell>
        <mxCell id="zjlgXmpVwNW4HeltINd3-49" style="edgeStyle=orthogonalEdgeStyle;orthogonalLoop=1;jettySize=auto;html=1;exitX=0.5;exitY=0;exitDx=0;exitDy=0;entryX=0.5;entryY=1;entryDx=0;entryDy=0;endArrow=none;endFill=0;rounded=1;labelBackgroundColor=none;fontColor=default;" parent="1" source="zjlgXmpVwNW4HeltINd3-42" target="zjlgXmpVwNW4HeltINd3-47" edge="1">
          <mxGeometry relative="1" as="geometry" />
        </mxCell>
        <mxCell id="zjlgXmpVwNW4HeltINd3-42" value="TjÃ¤nsteroll" style="whiteSpace=wrap;html=1;align=center;rounded=1;labelBackgroundColor=none;" parent="1" vertex="1">
          <mxGeometry x="1050" y="-39" width="100" height="40" as="geometry" />
        </mxCell>
        <mxCell id="zjlgXmpVwNW4HeltINd3-45" style="edgeStyle=orthogonalEdgeStyle;rounded=1;orthogonalLoop=1;jettySize=auto;html=1;entryX=0.5;entryY=0;entryDx=0;entryDy=0;endArrow=none;endFill=0;curved=0;labelBackgroundColor=none;fontColor=default;shape=link;" parent="1" source="zjlgXmpVwNW4HeltINd3-43" target="Z4GUB4jWSD3_mFD3uQad-64" edge="1">
          <mxGeometry relative="1" as="geometry" />
        </mxCell>
        <mxCell id="L0jsFw3nJKriv6r09RL3-42" value="N" style="edgeLabel;html=1;align=center;verticalAlign=middle;resizable=0;points=[];rounded=1;" parent="zjlgXmpVwNW4HeltINd3-45" vertex="1" connectable="0">
          <mxGeometry x="0.2061" y="-2" relative="1" as="geometry">
            <mxPoint x="12" y="9" as="offset" />
          </mxGeometry>
        </mxCell>
        <mxCell id="zjlgXmpVwNW4HeltINd3-43" value="Har" style="shape=rhombus;perimeter=rhombusPerimeter;whiteSpace=wrap;html=1;align=center;rounded=1;labelBackgroundColor=none;" parent="1" vertex="1">
          <mxGeometry x="1040" y="41" width="120" height="60" as="geometry" />
        </mxCell>
        <mxCell id="zjlgXmpVwNW4HeltINd3-46" value="TjÃ¤nsterollID" style="ellipse;whiteSpace=wrap;html=1;align=center;fontStyle=4;rounded=1;labelBackgroundColor=none;" parent="1" vertex="1">
          <mxGeometry x="990" y="-119" width="100" height="40" as="geometry" />
        </mxCell>
        <mxCell id="zjlgXmpVwNW4HeltINd3-47" value="Titel" style="ellipse;whiteSpace=wrap;html=1;align=center;rounded=1;labelBackgroundColor=none;" parent="1" vertex="1">
          <mxGeometry x="1100" y="-119" width="100" height="40" as="geometry" />
        </mxCell>
        <mxCell id="UbkJ7RGwHsrbK7u8BlGE-60" style="edgeStyle=orthogonalEdgeStyle;rounded=1;orthogonalLoop=1;jettySize=auto;html=1;exitX=0.5;exitY=1;exitDx=0;exitDy=0;entryX=0.5;entryY=0;entryDx=0;entryDy=0;endArrow=none;endFill=0;" parent="1" source="UbkJ7RGwHsrbK7u8BlGE-50" target="UbkJ7RGwHsrbK7u8BlGE-53" edge="1">
          <mxGeometry relative="1" as="geometry" />
        </mxCell>
        <mxCell id="UbkJ7RGwHsrbK7u8BlGE-50" value="ErsÃ¤ttnings-&lt;br&gt;kostnad" style="ellipse;whiteSpace=wrap;html=1;align=center;rounded=1;labelBackgroundColor=none;" parent="1" vertex="1">
          <mxGeometry x="-960" y="101.00000000000011" width="100" height="40" as="geometry" />
        </mxCell>
        <mxCell id="UbkJ7RGwHsrbK7u8BlGE-53" value="Hyresartikel" style="whiteSpace=wrap;html=1;align=center;rounded=1;labelBackgroundColor=none;" parent="1" vertex="1">
          <mxGeometry x="-959.9999999999999" y="160.0000000000001" width="100" height="40" as="geometry" />
        </mxCell>
        <mxCell id="UbkJ7RGwHsrbK7u8BlGE-54" value="EngÃ¥ngartikel" style="whiteSpace=wrap;html=1;align=center;rounded=1;labelBackgroundColor=none;" parent="1" vertex="1">
          <mxGeometry x="-840" y="160.0000000000001" width="100" height="40" as="geometry" />
        </mxCell>
        <mxCell id="UbkJ7RGwHsrbK7u8BlGE-61" style="edgeStyle=orthogonalEdgeStyle;rounded=1;orthogonalLoop=1;jettySize=auto;html=1;entryX=0.5;entryY=1;entryDx=0;entryDy=0;endArrow=none;endFill=0;exitX=0;exitY=0.5;exitDx=0;exitDy=0;" parent="1" source="UbkJ7RGwHsrbK7u8BlGE-55" target="UbkJ7RGwHsrbK7u8BlGE-53" edge="1">
          <mxGeometry relative="1" as="geometry" />
        </mxCell>
        <mxCell id="UbkJ7RGwHsrbK7u8BlGE-62" style="edgeStyle=orthogonalEdgeStyle;rounded=1;orthogonalLoop=1;jettySize=auto;html=1;entryX=0.5;entryY=1;entryDx=0;entryDy=0;endArrow=none;endFill=0;exitX=1;exitY=0.5;exitDx=0;exitDy=0;" parent="1" source="UbkJ7RGwHsrbK7u8BlGE-55" target="UbkJ7RGwHsrbK7u8BlGE-54" edge="1">
          <mxGeometry relative="1" as="geometry" />
        </mxCell>
        <mxCell id="UbkJ7RGwHsrbK7u8BlGE-55" value="d" style="ellipse;whiteSpace=wrap;html=1;aspect=fixed;rounded=1;" parent="1" vertex="1">
          <mxGeometry x="-859.9999999999999" y="219.99999999999994" width="20" height="20" as="geometry" />
        </mxCell>
        <mxCell id="-hZ6D2lijQTjM8dFKEcx-44" style="edgeStyle=orthogonalEdgeStyle;rounded=1;orthogonalLoop=1;jettySize=auto;html=1;entryX=1;entryY=0.25;entryDx=0;entryDy=0;exitX=0;exitY=0.5;exitDx=0;exitDy=0;endArrow=none;endFill=0;" parent="1" source="-hZ6D2lijQTjM8dFKEcx-39" target="gJ4gh3AajOQVxKOba_xv-9" edge="1">
          <mxGeometry relative="1" as="geometry">
            <Array as="points">
              <mxPoint x="580" y="170" />
            </Array>
          </mxGeometry>
        </mxCell>
        <mxCell id="-hZ6D2lijQTjM8dFKEcx-45" value="N" style="edgeLabel;html=1;align=center;verticalAlign=middle;resizable=0;points=[];rounded=1;" parent="-hZ6D2lijQTjM8dFKEcx-44" vertex="1" connectable="0">
          <mxGeometry x="-0.8714" y="1" relative="1" as="geometry">
            <mxPoint x="-542" y="-11" as="offset" />
          </mxGeometry>
        </mxCell>
        <mxCell id="MabK6VyOBC5WTbX4r10v-131" style="edgeStyle=orthogonalEdgeStyle;rounded=0;orthogonalLoop=1;jettySize=auto;html=1;exitX=1;exitY=0.5;exitDx=0;exitDy=0;entryX=0;entryY=0.5;entryDx=0;entryDy=0;endArrow=none;endFill=0;" edge="1" parent="1" source="-hZ6D2lijQTjM8dFKEcx-39" target="Z4GUB4jWSD3_mFD3uQad-64">
          <mxGeometry relative="1" as="geometry" />
        </mxCell>
        <mxCell id="MabK6VyOBC5WTbX4r10v-132" value="M" style="edgeLabel;html=1;align=center;verticalAlign=middle;resizable=0;points=[];" vertex="1" connectable="0" parent="MabK6VyOBC5WTbX4r10v-131">
          <mxGeometry x="-0.9054" relative="1" as="geometry">
            <mxPoint x="285" y="-10" as="offset" />
          </mxGeometry>
        </mxCell>
        <mxCell id="-hZ6D2lijQTjM8dFKEcx-39" value="Hanteras av" style="shape=rhombus;perimeter=rhombusPerimeter;whiteSpace=wrap;html=1;align=center;rounded=1;" parent="1" vertex="1">
          <mxGeometry x="580" y="140" width="160" height="60" as="geometry" />
        </mxCell>
        <mxCell id="MabK6VyOBC5WTbX4r10v-193" style="edgeStyle=orthogonalEdgeStyle;rounded=1;orthogonalLoop=1;jettySize=auto;html=1;entryX=0.25;entryY=1;entryDx=0;entryDy=0;endArrow=none;endFill=0;curved=0;exitX=1;exitY=0.5;exitDx=0;exitDy=0;" edge="1" parent="1" source="MabK6VyOBC5WTbX4r10v-51" target="X15DQP2Ge36uVb0Z_0wF-45">
          <mxGeometry relative="1" as="geometry">
            <Array as="points">
              <mxPoint x="-875" y="661" />
            </Array>
          </mxGeometry>
        </mxCell>
        <mxCell id="MabK6VyOBC5WTbX4r10v-194" value="N" style="edgeLabel;html=1;align=center;verticalAlign=middle;resizable=0;points=[];" vertex="1" connectable="0" parent="MabK6VyOBC5WTbX4r10v-193">
          <mxGeometry x="-0.0454" relative="1" as="geometry">
            <mxPoint x="10" y="-192" as="offset" />
          </mxGeometry>
        </mxCell>
        <mxCell id="N8jOlP61B2uoSJelF5zk-46" value="Rabatt" style="whiteSpace=wrap;html=1;align=center;rounded=1;labelBackgroundColor=none;" parent="1" vertex="1">
          <mxGeometry x="-1050" y="515.73" width="100" height="40" as="geometry" />
        </mxCell>
        <mxCell id="MabK6VyOBC5WTbX4r10v-41" style="edgeStyle=orthogonalEdgeStyle;rounded=1;orthogonalLoop=1;jettySize=auto;html=1;entryX=0.5;entryY=0;entryDx=0;entryDy=0;endArrow=none;endFill=0;curved=0;exitX=0.5;exitY=1;exitDx=0;exitDy=0;" edge="1" parent="1" source="N8jOlP61B2uoSJelF5zk-47" target="N8jOlP61B2uoSJelF5zk-46">
          <mxGeometry relative="1" as="geometry">
            <Array as="points">
              <mxPoint x="-1110" y="496" />
              <mxPoint x="-1000" y="496" />
            </Array>
          </mxGeometry>
        </mxCell>
        <mxCell id="N8jOlP61B2uoSJelF5zk-47" value="RabattID" style="ellipse;whiteSpace=wrap;html=1;align=center;fontStyle=4;rounded=1;labelBackgroundColor=none;" parent="1" vertex="1">
          <mxGeometry x="-1160" y="439.99999999999994" width="100" height="40" as="geometry" />
        </mxCell>
        <mxCell id="MabK6VyOBC5WTbX4r10v-39" value="" style="edgeStyle=orthogonalEdgeStyle;rounded=1;orthogonalLoop=1;jettySize=auto;html=1;endArrow=none;endFill=0;" edge="1" parent="1" source="N8jOlP61B2uoSJelF5zk-48" target="N8jOlP61B2uoSJelF5zk-52">
          <mxGeometry relative="1" as="geometry" />
        </mxCell>
        <mxCell id="N8jOlP61B2uoSJelF5zk-48" value="Typ" style="ellipse;whiteSpace=wrap;html=1;align=center;rounded=1;labelBackgroundColor=none;" parent="1" vertex="1">
          <mxGeometry x="-1410" y="360" width="100" height="40" as="geometry" />
        </mxCell>
        <mxCell id="MabK6VyOBC5WTbX4r10v-42" style="edgeStyle=orthogonalEdgeStyle;rounded=1;orthogonalLoop=1;jettySize=auto;html=1;entryX=0.5;entryY=0;entryDx=0;entryDy=0;endArrow=none;endFill=0;curved=0;" edge="1" parent="1" source="N8jOlP61B2uoSJelF5zk-49" target="N8jOlP61B2uoSJelF5zk-46">
          <mxGeometry relative="1" as="geometry" />
        </mxCell>
        <mxCell id="N8jOlP61B2uoSJelF5zk-49" value="VÃ¤rde" style="ellipse;whiteSpace=wrap;html=1;align=center;rounded=1;labelBackgroundColor=none;" parent="1" vertex="1">
          <mxGeometry x="-1050" y="439.99999999999994" width="100" height="40" as="geometry" />
        </mxCell>
        <mxCell id="N8jOlP61B2uoSJelF5zk-58" style="edgeStyle=orthogonalEdgeStyle;rounded=1;orthogonalLoop=1;jettySize=auto;html=1;entryX=0;entryY=0.5;entryDx=0;entryDy=0;endArrow=none;endFill=0;exitX=0.5;exitY=1;exitDx=0;exitDy=0;" parent="1" source="N8jOlP61B2uoSJelF5zk-52" target="N8jOlP61B2uoSJelF5zk-57" edge="1">
          <mxGeometry relative="1" as="geometry" />
        </mxCell>
        <mxCell id="MabK6VyOBC5WTbX4r10v-46" value="1" style="edgeLabel;html=1;align=center;verticalAlign=middle;resizable=0;points=[];" vertex="1" connectable="0" parent="N8jOlP61B2uoSJelF5zk-58">
          <mxGeometry x="-0.4457" y="1" relative="1" as="geometry">
            <mxPoint x="9" y="-40" as="offset" />
          </mxGeometry>
        </mxCell>
        <mxCell id="N8jOlP61B2uoSJelF5zk-52" value="RabattTyp" style="whiteSpace=wrap;html=1;align=center;rounded=1;labelBackgroundColor=none;" parent="1" vertex="1">
          <mxGeometry x="-1460" y="440" width="100" height="40" as="geometry" />
        </mxCell>
        <mxCell id="MabK6VyOBC5WTbX4r10v-40" style="edgeStyle=orthogonalEdgeStyle;rounded=1;orthogonalLoop=1;jettySize=auto;html=1;endArrow=none;endFill=0;" edge="1" parent="1" source="N8jOlP61B2uoSJelF5zk-53" target="N8jOlP61B2uoSJelF5zk-52">
          <mxGeometry relative="1" as="geometry" />
        </mxCell>
        <mxCell id="N8jOlP61B2uoSJelF5zk-53" value="RabattTypID" style="ellipse;whiteSpace=wrap;html=1;align=center;fontStyle=4;rounded=1;labelBackgroundColor=none;" parent="1" vertex="1">
          <mxGeometry x="-1520" y="360" width="100" height="40" as="geometry" />
        </mxCell>
        <mxCell id="MabK6VyOBC5WTbX4r10v-191" style="edgeStyle=orthogonalEdgeStyle;rounded=0;orthogonalLoop=1;jettySize=auto;html=1;entryX=0;entryY=0.5;entryDx=0;entryDy=0;endArrow=none;endFill=0;shape=link;" edge="1" parent="1" source="N8jOlP61B2uoSJelF5zk-55" target="MabK6VyOBC5WTbX4r10v-51">
          <mxGeometry relative="1" as="geometry" />
        </mxCell>
        <mxCell id="MabK6VyOBC5WTbX4r10v-192" value="M" style="edgeLabel;html=1;align=center;verticalAlign=middle;resizable=0;points=[];" vertex="1" connectable="0" parent="MabK6VyOBC5WTbX4r10v-191">
          <mxGeometry x="0.4172" y="-1" relative="1" as="geometry">
            <mxPoint x="-107" y="-14" as="offset" />
          </mxGeometry>
        </mxCell>
        <mxCell id="N8jOlP61B2uoSJelF5zk-55" value="Kampanj" style="whiteSpace=wrap;html=1;align=center;rounded=1;labelBackgroundColor=none;" parent="1" vertex="1">
          <mxGeometry x="-1335" y="640.72" width="100" height="40" as="geometry" />
        </mxCell>
        <mxCell id="MabK6VyOBC5WTbX4r10v-178" style="edgeStyle=orthogonalEdgeStyle;rounded=1;orthogonalLoop=1;jettySize=auto;html=1;entryX=0.5;entryY=1;entryDx=0;entryDy=0;endArrow=none;endFill=0;curved=0;" edge="1" parent="1" source="N8jOlP61B2uoSJelF5zk-56" target="N8jOlP61B2uoSJelF5zk-55">
          <mxGeometry relative="1" as="geometry">
            <Array as="points">
              <mxPoint x="-1450" y="715.26" />
              <mxPoint x="-1285" y="715.26" />
            </Array>
          </mxGeometry>
        </mxCell>
        <mxCell id="N8jOlP61B2uoSJelF5zk-56" value="KampanjID" style="ellipse;whiteSpace=wrap;html=1;align=center;fontStyle=4;rounded=1;labelBackgroundColor=none;" parent="1" vertex="1">
          <mxGeometry x="-1500" y="735.26" width="100" height="40" as="geometry" />
        </mxCell>
        <mxCell id="N8jOlP61B2uoSJelF5zk-59" style="edgeStyle=orthogonalEdgeStyle;rounded=1;orthogonalLoop=1;jettySize=auto;html=1;entryX=0;entryY=0.5;entryDx=0;entryDy=0;endArrow=none;endFill=0;exitX=1;exitY=0.5;exitDx=0;exitDy=0;shape=link;" parent="1" source="N8jOlP61B2uoSJelF5zk-57" target="N8jOlP61B2uoSJelF5zk-46" edge="1">
          <mxGeometry relative="1" as="geometry">
            <mxPoint x="-1130" y="567.76" as="sourcePoint" />
          </mxGeometry>
        </mxCell>
        <mxCell id="MabK6VyOBC5WTbX4r10v-45" value="N" style="edgeLabel;html=1;align=center;verticalAlign=middle;resizable=0;points=[];" vertex="1" connectable="0" parent="N8jOlP61B2uoSJelF5zk-59">
          <mxGeometry x="0.7962" y="2" relative="1" as="geometry">
            <mxPoint x="1" y="-14" as="offset" />
          </mxGeometry>
        </mxCell>
        <mxCell id="N8jOlP61B2uoSJelF5zk-57" value="Ãr av" style="shape=rhombus;perimeter=rhombusPerimeter;whiteSpace=wrap;html=1;align=center;rounded=1;labelBackgroundColor=none;" parent="1" vertex="1">
          <mxGeometry x="-1324" y="505.26" width="120" height="60" as="geometry" />
        </mxCell>
        <mxCell id="MabK6VyOBC5WTbX4r10v-177" style="edgeStyle=orthogonalEdgeStyle;rounded=1;orthogonalLoop=1;jettySize=auto;html=1;entryX=0.5;entryY=1;entryDx=0;entryDy=0;endArrow=none;endFill=0;curved=0;" edge="1" parent="1" source="N8jOlP61B2uoSJelF5zk-64" target="N8jOlP61B2uoSJelF5zk-55">
          <mxGeometry relative="1" as="geometry">
            <Array as="points">
              <mxPoint x="-1340" y="715.26" />
              <mxPoint x="-1285" y="715.26" />
            </Array>
          </mxGeometry>
        </mxCell>
        <mxCell id="N8jOlP61B2uoSJelF5zk-64" value="Namn" style="ellipse;whiteSpace=wrap;html=1;align=center;rounded=1;labelBackgroundColor=none;" parent="1" vertex="1">
          <mxGeometry x="-1390" y="735.26" width="100" height="40" as="geometry" />
        </mxCell>
        <mxCell id="N8jOlP61B2uoSJelF5zk-68" style="edgeStyle=orthogonalEdgeStyle;rounded=1;orthogonalLoop=1;jettySize=auto;html=1;entryX=0.5;entryY=0;entryDx=0;entryDy=0;endArrow=none;endFill=0;" parent="1" source="N8jOlP61B2uoSJelF5zk-65" target="N8jOlP61B2uoSJelF5zk-66" edge="1">
          <mxGeometry relative="1" as="geometry" />
        </mxCell>
        <mxCell id="MabK6VyOBC5WTbX4r10v-144" value="1" style="edgeLabel;html=1;align=center;verticalAlign=middle;resizable=0;points=[];" vertex="1" connectable="0" parent="N8jOlP61B2uoSJelF5zk-68">
          <mxGeometry x="0.5138" y="-2" relative="1" as="geometry">
            <mxPoint x="12" y="8" as="offset" />
          </mxGeometry>
        </mxCell>
        <mxCell id="N8jOlP61B2uoSJelF5zk-65" value="Tilldelas" style="shape=rhombus;perimeter=rhombusPerimeter;whiteSpace=wrap;html=1;align=center;rounded=1;labelBackgroundColor=none;" parent="1" vertex="1">
          <mxGeometry x="1040" y="360" width="120" height="60" as="geometry" />
        </mxCell>
        <mxCell id="MabK6VyOBC5WTbX4r10v-140" style="edgeStyle=orthogonalEdgeStyle;rounded=1;orthogonalLoop=1;jettySize=auto;html=1;entryX=1;entryY=0.5;entryDx=0;entryDy=0;endArrow=none;endFill=0;curved=0;" edge="1" parent="1" source="N8jOlP61B2uoSJelF5zk-66" target="MabK6VyOBC5WTbX4r10v-134">
          <mxGeometry relative="1" as="geometry" />
        </mxCell>
        <mxCell id="MabK6VyOBC5WTbX4r10v-141" style="edgeStyle=orthogonalEdgeStyle;rounded=1;orthogonalLoop=1;jettySize=auto;html=1;exitX=0;exitY=0.5;exitDx=0;exitDy=0;entryX=1;entryY=0.5;entryDx=0;entryDy=0;endArrow=none;endFill=0;curved=0;" edge="1" parent="1" source="N8jOlP61B2uoSJelF5zk-66" target="MabK6VyOBC5WTbX4r10v-133">
          <mxGeometry relative="1" as="geometry" />
        </mxCell>
        <mxCell id="MabK6VyOBC5WTbX4r10v-142" style="edgeStyle=orthogonalEdgeStyle;rounded=1;orthogonalLoop=1;jettySize=auto;html=1;exitX=0;exitY=0.5;exitDx=0;exitDy=0;entryX=1;entryY=0.5;entryDx=0;entryDy=0;endArrow=none;endFill=0;curved=0;" edge="1" parent="1" source="N8jOlP61B2uoSJelF5zk-66" target="MabK6VyOBC5WTbX4r10v-135">
          <mxGeometry relative="1" as="geometry" />
        </mxCell>
        <mxCell id="MabK6VyOBC5WTbX4r10v-147" style="edgeStyle=orthogonalEdgeStyle;rounded=0;orthogonalLoop=1;jettySize=auto;html=1;entryX=0;entryY=0.5;entryDx=0;entryDy=0;endArrow=none;endFill=0;" edge="1" parent="1" source="N8jOlP61B2uoSJelF5zk-66" target="MabK6VyOBC5WTbX4r10v-146">
          <mxGeometry relative="1" as="geometry" />
        </mxCell>
        <mxCell id="MabK6VyOBC5WTbX4r10v-150" value="N" style="edgeLabel;html=1;align=center;verticalAlign=middle;resizable=0;points=[];" vertex="1" connectable="0" parent="MabK6VyOBC5WTbX4r10v-147">
          <mxGeometry x="-0.3312" y="2" relative="1" as="geometry">
            <mxPoint x="-13" y="-13" as="offset" />
          </mxGeometry>
        </mxCell>
        <mxCell id="MabK6VyOBC5WTbX4r10v-164" style="edgeStyle=orthogonalEdgeStyle;rounded=1;orthogonalLoop=1;jettySize=auto;html=1;entryX=0;entryY=0.5;entryDx=0;entryDy=0;endArrow=none;endFill=0;curved=0;" edge="1" parent="1" source="N8jOlP61B2uoSJelF5zk-66" target="MabK6VyOBC5WTbX4r10v-163">
          <mxGeometry relative="1" as="geometry">
            <Array as="points">
              <mxPoint x="1100" y="745" />
            </Array>
          </mxGeometry>
        </mxCell>
        <mxCell id="MabK6VyOBC5WTbX4r10v-173" value="N" style="edgeLabel;html=1;align=center;verticalAlign=middle;resizable=0;points=[];" vertex="1" connectable="0" parent="MabK6VyOBC5WTbX4r10v-164">
          <mxGeometry x="-0.7831" y="1" relative="1" as="geometry">
            <mxPoint x="19" y="-5" as="offset" />
          </mxGeometry>
        </mxCell>
        <mxCell id="MabK6VyOBC5WTbX4r10v-174" value="M" style="edgeLabel;html=1;align=center;verticalAlign=middle;resizable=0;points=[];" vertex="1" connectable="0" parent="MabK6VyOBC5WTbX4r10v-164">
          <mxGeometry x="-0.8491" y="1" relative="1" as="geometry">
            <mxPoint x="279" y="153" as="offset" />
          </mxGeometry>
        </mxCell>
        <mxCell id="N8jOlP61B2uoSJelF5zk-66" value="Konto" style="whiteSpace=wrap;html=1;align=center;rounded=1;labelBackgroundColor=none;" parent="1" vertex="1">
          <mxGeometry x="1050" y="520" width="100" height="40" as="geometry" />
        </mxCell>
        <mxCell id="N8jOlP61B2uoSJelF5zk-69" value="Arbetar vid" style="shape=rhombus;perimeter=rhombusPerimeter;whiteSpace=wrap;html=1;align=center;rounded=1;labelBackgroundColor=none;" parent="1" vertex="1">
          <mxGeometry x="600" y="290" width="120" height="60" as="geometry" />
        </mxCell>
        <mxCell id="MabK6VyOBC5WTbX4r10v-181" style="edgeStyle=orthogonalEdgeStyle;rounded=0;orthogonalLoop=1;jettySize=auto;html=1;entryX=0.5;entryY=1;entryDx=0;entryDy=0;endArrow=none;endFill=0;exitX=0.5;exitY=0;exitDx=0;exitDy=0;" edge="1" parent="1" source="MabK6VyOBC5WTbX4r10v-51" target="N8jOlP61B2uoSJelF5zk-46">
          <mxGeometry relative="1" as="geometry">
            <mxPoint x="-1000" y="625.2599999999999" as="sourcePoint" />
          </mxGeometry>
        </mxCell>
        <mxCell id="MabK6VyOBC5WTbX4r10v-182" value="1" style="edgeLabel;html=1;align=center;verticalAlign=middle;resizable=0;points=[];" vertex="1" connectable="0" parent="MabK6VyOBC5WTbX4r10v-181">
          <mxGeometry x="0.6274" relative="1" as="geometry">
            <mxPoint x="15" y="5" as="offset" />
          </mxGeometry>
        </mxCell>
        <mxCell id="MabK6VyOBC5WTbX4r10v-51" value="TillhÃ¶r" style="shape=rhombus;perimeter=rhombusPerimeter;whiteSpace=wrap;html=1;align=center;rounded=1;labelBackgroundColor=none;" vertex="1" parent="1">
          <mxGeometry x="-1060" y="630.9799999999999" width="120" height="60" as="geometry" />
        </mxCell>
        <mxCell id="MabK6VyOBC5WTbX4r10v-122" style="edgeStyle=orthogonalEdgeStyle;rounded=1;orthogonalLoop=1;jettySize=auto;html=1;entryX=0.5;entryY=0;entryDx=0;entryDy=0;endArrow=none;endFill=0;curved=0;" edge="1" parent="1" source="MabK6VyOBC5WTbX4r10v-85" target="MabK6VyOBC5WTbX4r10v-86">
          <mxGeometry relative="1" as="geometry">
            <Array as="points">
              <mxPoint x="-520" y="686.19" />
            </Array>
          </mxGeometry>
        </mxCell>
        <mxCell id="MabK6VyOBC5WTbX4r10v-123" style="edgeStyle=orthogonalEdgeStyle;rounded=1;orthogonalLoop=1;jettySize=auto;html=1;exitX=0.5;exitY=1;exitDx=0;exitDy=0;entryX=0.5;entryY=0;entryDx=0;entryDy=0;endArrow=none;endFill=0;curved=0;" edge="1" parent="1" source="MabK6VyOBC5WTbX4r10v-85" target="MabK6VyOBC5WTbX4r10v-87">
          <mxGeometry relative="1" as="geometry" />
        </mxCell>
        <mxCell id="MabK6VyOBC5WTbX4r10v-85" value="Kategori" style="whiteSpace=wrap;html=1;align=center;rounded=1;labelBackgroundColor=none;" vertex="1" parent="1">
          <mxGeometry x="-570" y="616.19" width="100" height="40" as="geometry" />
        </mxCell>
        <mxCell id="MabK6VyOBC5WTbX4r10v-86" value="KategoriID" style="ellipse;whiteSpace=wrap;html=1;align=center;fontStyle=4;rounded=1;labelBackgroundColor=none;" vertex="1" parent="1">
          <mxGeometry x="-690" y="706.19" width="100" height="40" as="geometry" />
        </mxCell>
        <mxCell id="MabK6VyOBC5WTbX4r10v-87" value="Namn" style="ellipse;whiteSpace=wrap;html=1;align=center;rounded=1;labelBackgroundColor=none;" vertex="1" parent="1">
          <mxGeometry x="-570" y="706.19" width="100" height="40" as="geometry" />
        </mxCell>
        <mxCell id="MabK6VyOBC5WTbX4r10v-180" style="edgeStyle=orthogonalEdgeStyle;rounded=1;orthogonalLoop=1;jettySize=auto;html=1;entryX=0.5;entryY=1;entryDx=0;entryDy=0;endArrow=none;endFill=0;curved=0;" edge="1" parent="1" source="MabK6VyOBC5WTbX4r10v-94" target="N8jOlP61B2uoSJelF5zk-55">
          <mxGeometry relative="1" as="geometry">
            <Array as="points">
              <mxPoint x="-1120" y="715.26" />
              <mxPoint x="-1285" y="715.26" />
            </Array>
          </mxGeometry>
        </mxCell>
        <mxCell id="MabK6VyOBC5WTbX4r10v-94" value="Slutdatum" style="ellipse;whiteSpace=wrap;html=1;align=center;rounded=1;labelBackgroundColor=none;" vertex="1" parent="1">
          <mxGeometry x="-1170" y="735.26" width="100" height="40" as="geometry" />
        </mxCell>
        <mxCell id="MabK6VyOBC5WTbX4r10v-179" style="edgeStyle=orthogonalEdgeStyle;rounded=1;orthogonalLoop=1;jettySize=auto;html=1;entryX=0.5;entryY=1;entryDx=0;entryDy=0;endArrow=none;endFill=0;curved=0;" edge="1" parent="1" source="MabK6VyOBC5WTbX4r10v-95" target="N8jOlP61B2uoSJelF5zk-55">
          <mxGeometry relative="1" as="geometry">
            <Array as="points">
              <mxPoint x="-1230" y="715.26" />
              <mxPoint x="-1285" y="715.26" />
            </Array>
          </mxGeometry>
        </mxCell>
        <mxCell id="MabK6VyOBC5WTbX4r10v-95" value="Startdatum" style="ellipse;whiteSpace=wrap;html=1;align=center;rounded=1;labelBackgroundColor=none;" vertex="1" parent="1">
          <mxGeometry x="-1280" y="735.26" width="100" height="40" as="geometry" />
        </mxCell>
        <mxCell id="MabK6VyOBC5WTbX4r10v-121" style="edgeStyle=orthogonalEdgeStyle;rounded=0;orthogonalLoop=1;jettySize=auto;html=1;entryX=0.5;entryY=0;entryDx=0;entryDy=0;endArrow=none;endFill=0;" edge="1" parent="1" source="MabK6VyOBC5WTbX4r10v-119" target="MabK6VyOBC5WTbX4r10v-85">
          <mxGeometry relative="1" as="geometry" />
        </mxCell>
        <mxCell id="MabK6VyOBC5WTbX4r10v-119" value="TillhÃ¶r" style="shape=rhombus;perimeter=rhombusPerimeter;whiteSpace=wrap;html=1;align=center;rounded=1;labelBackgroundColor=none;" vertex="1" parent="1">
          <mxGeometry x="-580" y="530" width="120" height="60" as="geometry" />
        </mxCell>
        <mxCell id="MabK6VyOBC5WTbX4r10v-127" style="edgeStyle=orthogonalEdgeStyle;rounded=1;orthogonalLoop=1;jettySize=auto;html=1;entryX=0.5;entryY=1;entryDx=0;entryDy=0;endArrow=none;endFill=0;curved=0;" edge="1" parent="1" source="MabK6VyOBC5WTbX4r10v-126" target="MabK6VyOBC5WTbX4r10v-85">
          <mxGeometry relative="1" as="geometry">
            <Array as="points">
              <mxPoint x="-410" y="686.19" />
              <mxPoint x="-520" y="686.19" />
            </Array>
          </mxGeometry>
        </mxCell>
        <mxCell id="MabK6VyOBC5WTbX4r10v-126" value="Ãverkatagori*" style="ellipse;whiteSpace=wrap;html=1;align=center;rounded=1;labelBackgroundColor=none;" vertex="1" parent="1">
          <mxGeometry x="-460" y="706.19" width="100" height="40" as="geometry" />
        </mxCell>
        <mxCell id="MabK6VyOBC5WTbX4r10v-133" value="&lt;span&gt;KontoID&lt;/span&gt;" style="ellipse;whiteSpace=wrap;html=1;align=center;fontStyle=4;rounded=1;labelBackgroundColor=none;" vertex="1" parent="1">
          <mxGeometry x="890" y="470" width="100" height="40" as="geometry" />
        </mxCell>
        <mxCell id="MabK6VyOBC5WTbX4r10v-134" value="AnvÃ¤ndarnamn" style="ellipse;whiteSpace=wrap;html=1;align=center;rounded=1;labelBackgroundColor=none;" vertex="1" parent="1">
          <mxGeometry x="890" y="520" width="100" height="40" as="geometry" />
        </mxCell>
        <mxCell id="MabK6VyOBC5WTbX4r10v-135" value="Krypterat lÃ¶senord" style="ellipse;whiteSpace=wrap;html=1;align=center;rounded=1;labelBackgroundColor=none;" vertex="1" parent="1">
          <mxGeometry x="890" y="570" width="100" height="40" as="geometry" />
        </mxCell>
        <mxCell id="MabK6VyOBC5WTbX4r10v-149" style="edgeStyle=orthogonalEdgeStyle;rounded=0;orthogonalLoop=1;jettySize=auto;html=1;entryX=0;entryY=0.5;entryDx=0;entryDy=0;endArrow=none;endFill=0;" edge="1" parent="1" source="MabK6VyOBC5WTbX4r10v-146" target="MabK6VyOBC5WTbX4r10v-148">
          <mxGeometry relative="1" as="geometry" />
        </mxCell>
        <mxCell id="MabK6VyOBC5WTbX4r10v-146" value="Har" style="shape=rhombus;perimeter=rhombusPerimeter;whiteSpace=wrap;html=1;align=center;rounded=1;labelBackgroundColor=none;" vertex="1" parent="1">
          <mxGeometry x="1220" y="510" width="120" height="60" as="geometry" />
        </mxCell>
        <mxCell id="MabK6VyOBC5WTbX4r10v-166" style="edgeStyle=orthogonalEdgeStyle;rounded=0;orthogonalLoop=1;jettySize=auto;html=1;entryX=0.5;entryY=0;entryDx=0;entryDy=0;endArrow=none;endFill=0;" edge="1" parent="1" source="MabK6VyOBC5WTbX4r10v-148" target="MabK6VyOBC5WTbX4r10v-165">
          <mxGeometry relative="1" as="geometry" />
        </mxCell>
        <mxCell id="MabK6VyOBC5WTbX4r10v-170" value="N" style="edgeLabel;html=1;align=center;verticalAlign=middle;resizable=0;points=[];" vertex="1" connectable="0" parent="MabK6VyOBC5WTbX4r10v-166">
          <mxGeometry x="-0.4343" relative="1" as="geometry">
            <mxPoint x="-10" y="-4" as="offset" />
          </mxGeometry>
        </mxCell>
        <mxCell id="MabK6VyOBC5WTbX4r10v-148" value="BehÃ¶righetsroll" style="whiteSpace=wrap;html=1;align=center;rounded=1;labelBackgroundColor=none;" vertex="1" parent="1">
          <mxGeometry x="1400" y="520" width="100" height="40" as="geometry" />
        </mxCell>
        <mxCell id="MabK6VyOBC5WTbX4r10v-151" value="M" style="text;html=1;align=center;verticalAlign=middle;resizable=0;points=[];autosize=1;strokeColor=none;fillColor=none;" vertex="1" parent="1">
          <mxGeometry x="1370" y="510" width="30" height="30" as="geometry" />
        </mxCell>
        <mxCell id="MabK6VyOBC5WTbX4r10v-156" style="rounded=1;orthogonalLoop=1;jettySize=auto;html=1;entryX=0.5;entryY=0;entryDx=0;entryDy=0;endArrow=none;endFill=0;edgeStyle=orthogonalEdgeStyle;curved=0;" edge="1" parent="1" source="MabK6VyOBC5WTbX4r10v-152" target="MabK6VyOBC5WTbX4r10v-148">
          <mxGeometry relative="1" as="geometry" />
        </mxCell>
        <mxCell id="MabK6VyOBC5WTbX4r10v-152" value="BehÃ¶righetsrollID" style="ellipse;whiteSpace=wrap;html=1;align=center;fontStyle=4;rounded=1;labelBackgroundColor=none;" vertex="1" parent="1">
          <mxGeometry x="1340" y="420" width="100" height="40" as="geometry" />
        </mxCell>
        <mxCell id="MabK6VyOBC5WTbX4r10v-157" style="rounded=1;orthogonalLoop=1;jettySize=auto;html=1;entryX=0.5;entryY=0;entryDx=0;entryDy=0;endArrow=none;endFill=0;edgeStyle=orthogonalEdgeStyle;curved=0;" edge="1" parent="1" source="MabK6VyOBC5WTbX4r10v-153" target="MabK6VyOBC5WTbX4r10v-148">
          <mxGeometry relative="1" as="geometry" />
        </mxCell>
        <mxCell id="MabK6VyOBC5WTbX4r10v-153" value="Namn" style="ellipse;whiteSpace=wrap;html=1;align=center;rounded=1;labelBackgroundColor=none;" vertex="1" parent="1">
          <mxGeometry x="1460" y="420" width="100" height="40" as="geometry" />
        </mxCell>
        <mxCell id="MabK6VyOBC5WTbX4r10v-168" style="edgeStyle=orthogonalEdgeStyle;rounded=1;orthogonalLoop=1;jettySize=auto;html=1;entryX=0.5;entryY=0;entryDx=0;entryDy=0;endArrow=none;endFill=0;curved=0;" edge="1" parent="1" source="MabK6VyOBC5WTbX4r10v-158" target="MabK6VyOBC5WTbX4r10v-159">
          <mxGeometry relative="1" as="geometry" />
        </mxCell>
        <mxCell id="MabK6VyOBC5WTbX4r10v-169" style="edgeStyle=orthogonalEdgeStyle;rounded=1;orthogonalLoop=1;jettySize=auto;html=1;entryX=0.5;entryY=0;entryDx=0;entryDy=0;endArrow=none;endFill=0;curved=0;" edge="1" parent="1" source="MabK6VyOBC5WTbX4r10v-158" target="MabK6VyOBC5WTbX4r10v-160">
          <mxGeometry relative="1" as="geometry" />
        </mxCell>
        <mxCell id="MabK6VyOBC5WTbX4r10v-172" style="edgeStyle=orthogonalEdgeStyle;rounded=1;orthogonalLoop=1;jettySize=auto;html=1;entryX=1;entryY=0.5;entryDx=0;entryDy=0;endArrow=none;endFill=0;curved=0;" edge="1" parent="1" source="MabK6VyOBC5WTbX4r10v-158" target="MabK6VyOBC5WTbX4r10v-163">
          <mxGeometry relative="1" as="geometry" />
        </mxCell>
        <mxCell id="MabK6VyOBC5WTbX4r10v-158" value="BehÃ¶righet" style="whiteSpace=wrap;html=1;align=center;rounded=1;labelBackgroundColor=none;" vertex="1" parent="1">
          <mxGeometry x="1400" y="725" width="100" height="40" as="geometry" />
        </mxCell>
        <mxCell id="MabK6VyOBC5WTbX4r10v-159" value="BehÃ¶righetID" style="ellipse;whiteSpace=wrap;html=1;align=center;fontStyle=4;rounded=1;labelBackgroundColor=none;" vertex="1" parent="1">
          <mxGeometry x="1345" y="810" width="100" height="40" as="geometry" />
        </mxCell>
        <mxCell id="MabK6VyOBC5WTbX4r10v-160" value="Namn" style="ellipse;whiteSpace=wrap;html=1;align=center;rounded=1;labelBackgroundColor=none;" vertex="1" parent="1">
          <mxGeometry x="1455" y="810" width="100" height="40" as="geometry" />
        </mxCell>
        <mxCell id="MabK6VyOBC5WTbX4r10v-163" value="Har" style="shape=rhombus;perimeter=rhombusPerimeter;whiteSpace=wrap;html=1;align=center;rounded=1;labelBackgroundColor=none;" vertex="1" parent="1">
          <mxGeometry x="1140" y="715.26" width="120" height="60" as="geometry" />
        </mxCell>
        <mxCell id="MabK6VyOBC5WTbX4r10v-167" style="edgeStyle=orthogonalEdgeStyle;rounded=0;orthogonalLoop=1;jettySize=auto;html=1;entryX=0.5;entryY=0;entryDx=0;entryDy=0;endArrow=none;endFill=0;" edge="1" parent="1" source="MabK6VyOBC5WTbX4r10v-165" target="MabK6VyOBC5WTbX4r10v-158">
          <mxGeometry relative="1" as="geometry" />
        </mxCell>
        <mxCell id="MabK6VyOBC5WTbX4r10v-171" value="M" style="edgeLabel;html=1;align=center;verticalAlign=middle;resizable=0;points=[];" vertex="1" connectable="0" parent="MabK6VyOBC5WTbX4r10v-167">
          <mxGeometry x="0.5636" relative="1" as="geometry">
            <mxPoint x="-10" y="2" as="offset" />
          </mxGeometry>
        </mxCell>
        <mxCell id="MabK6VyOBC5WTbX4r10v-165" value="BestÃ¥r av" style="shape=rhombus;perimeter=rhombusPerimeter;whiteSpace=wrap;html=1;align=center;rounded=1;labelBackgroundColor=none;" vertex="1" parent="1">
          <mxGeometry x="1390" y="610" width="120" height="60" as="geometry" />
        </mxCell>
      </root>
    </mxGraphModel>
  </diagram>
  <diagram name="Tables" id="X-19RsMbxUD26dumCcnc">
    <mxGraphModel dx="2474" dy="1596" grid="0" gridSize="10" guides="1" tooltips="1" connect="1" arrows="1" fold="1" page="0" pageScale="1" pageWidth="827" pageHeight="1169" math="0" shadow="0">
      <root>
        <mxCell id="0" />
        <mxCell id="1" parent="0" />
        <mxCell id="65" value="Kund" style="shape=table;startSize=30;container=1;collapsible=1;childLayout=tableLayout;fixedRows=1;rowLines=0;fontStyle=1;align=center;resizeLast=1;" parent="1" vertex="1">
          <mxGeometry x="80" y="110" width="180" height="150" as="geometry">
            <mxRectangle x="-580" y="800" width="70" height="30" as="alternateBounds" />
          </mxGeometry>
        </mxCell>
        <mxCell id="66" value="" style="shape=tableRow;horizontal=0;startSize=0;swimlaneHead=0;swimlaneBody=0;fillColor=none;collapsible=0;dropTarget=0;points=[[0,0.5],[1,0.5]];portConstraint=eastwest;top=0;left=0;right=0;bottom=1;" parent="65" vertex="1">
          <mxGeometry y="30" width="180" height="30" as="geometry" />
        </mxCell>
        <mxCell id="67" value="PK" style="shape=partialRectangle;connectable=0;fillColor=none;top=0;left=0;bottom=0;right=0;fontStyle=1;overflow=hidden;" parent="66" vertex="1">
          <mxGeometry width="30" height="30" as="geometry">
            <mxRectangle width="30" height="30" as="alternateBounds" />
          </mxGeometry>
        </mxCell>
        <mxCell id="68" value="KundID" style="shape=partialRectangle;connectable=0;fillColor=none;top=0;left=0;bottom=0;right=0;align=left;spacingLeft=6;fontStyle=5;overflow=hidden;" parent="66" vertex="1">
          <mxGeometry x="30" width="150" height="30" as="geometry">
            <mxRectangle width="150" height="30" as="alternateBounds" />
          </mxGeometry>
        </mxCell>
        <mxCell id="69" value="" style="shape=tableRow;horizontal=0;startSize=0;swimlaneHead=0;swimlaneBody=0;fillColor=none;collapsible=0;dropTarget=0;points=[[0,0.5],[1,0.5]];portConstraint=eastwest;top=0;left=0;right=0;bottom=0;" parent="65" vertex="1">
          <mxGeometry y="60" width="180" height="30" as="geometry" />
        </mxCell>
        <mxCell id="70" value="" style="shape=partialRectangle;connectable=0;fillColor=none;top=0;left=0;bottom=0;right=0;editable=1;overflow=hidden;" parent="69" vertex="1">
          <mxGeometry width="30" height="30" as="geometry">
            <mxRectangle width="30" height="30" as="alternateBounds" />
          </mxGeometry>
        </mxCell>
        <mxCell id="71" value="Telefonnummer" style="shape=partialRectangle;connectable=0;fillColor=none;top=0;left=0;bottom=0;right=0;align=left;spacingLeft=6;overflow=hidden;" parent="69" vertex="1">
          <mxGeometry x="30" width="150" height="30" as="geometry">
            <mxRectangle width="150" height="30" as="alternateBounds" />
          </mxGeometry>
        </mxCell>
        <mxCell id="72" value="" style="shape=tableRow;horizontal=0;startSize=0;swimlaneHead=0;swimlaneBody=0;fillColor=none;collapsible=0;dropTarget=0;points=[[0,0.5],[1,0.5]];portConstraint=eastwest;top=0;left=0;right=0;bottom=0;" parent="65" vertex="1">
          <mxGeometry y="90" width="180" height="30" as="geometry" />
        </mxCell>
        <mxCell id="73" value="" style="shape=partialRectangle;connectable=0;fillColor=none;top=0;left=0;bottom=0;right=0;editable=1;overflow=hidden;" parent="72" vertex="1">
          <mxGeometry width="30" height="30" as="geometry">
            <mxRectangle width="30" height="30" as="alternateBounds" />
          </mxGeometry>
        </mxCell>
        <mxCell id="74" value="Epost" style="shape=partialRectangle;connectable=0;fillColor=none;top=0;left=0;bottom=0;right=0;align=left;spacingLeft=6;overflow=hidden;" parent="72" vertex="1">
          <mxGeometry x="30" width="150" height="30" as="geometry">
            <mxRectangle width="150" height="30" as="alternateBounds" />
          </mxGeometry>
        </mxCell>
        <mxCell id="75" value="" style="shape=tableRow;horizontal=0;startSize=0;swimlaneHead=0;swimlaneBody=0;fillColor=none;collapsible=0;dropTarget=0;points=[[0,0.5],[1,0.5]];portConstraint=eastwest;top=0;left=0;right=0;bottom=0;" parent="65" vertex="1">
          <mxGeometry y="120" width="180" height="30" as="geometry" />
        </mxCell>
        <mxCell id="76" value="FK" style="shape=partialRectangle;connectable=0;fillColor=none;top=0;left=0;bottom=0;right=0;editable=1;overflow=hidden;" parent="75" vertex="1">
          <mxGeometry width="30" height="30" as="geometry">
            <mxRectangle width="30" height="30" as="alternateBounds" />
          </mxGeometry>
        </mxCell>
        <mxCell id="77" value="Adress*" style="shape=partialRectangle;connectable=0;fillColor=none;top=0;left=0;bottom=0;right=0;align=left;spacingLeft=6;overflow=hidden;" parent="75" vertex="1">
          <mxGeometry x="30" width="150" height="30" as="geometry">
            <mxRectangle width="150" height="30" as="alternateBounds" />
          </mxGeometry>
        </mxCell>
        <mxCell id="87" value="Artikel" style="shape=table;startSize=30;container=1;collapsible=1;childLayout=tableLayout;fixedRows=1;rowLines=0;fontStyle=1;align=center;resizeLast=1;" parent="1" vertex="1">
          <mxGeometry x="80" y="700" width="180" height="180" as="geometry">
            <mxRectangle x="-720" y="840" width="70" height="30" as="alternateBounds" />
          </mxGeometry>
        </mxCell>
        <mxCell id="88" value="" style="shape=tableRow;horizontal=0;startSize=0;swimlaneHead=0;swimlaneBody=0;fillColor=none;collapsible=0;dropTarget=0;points=[[0,0.5],[1,0.5]];portConstraint=eastwest;top=0;left=0;right=0;bottom=1;" parent="87" vertex="1">
          <mxGeometry y="30" width="180" height="30" as="geometry" />
        </mxCell>
        <mxCell id="89" value="PK" style="shape=partialRectangle;connectable=0;fillColor=none;top=0;left=0;bottom=0;right=0;fontStyle=1;overflow=hidden;" parent="88" vertex="1">
          <mxGeometry width="30" height="30" as="geometry">
            <mxRectangle width="30" height="30" as="alternateBounds" />
          </mxGeometry>
        </mxCell>
        <mxCell id="90" value="ArtikelID" style="shape=partialRectangle;connectable=0;fillColor=none;top=0;left=0;bottom=0;right=0;align=left;spacingLeft=6;fontStyle=5;overflow=hidden;" parent="88" vertex="1">
          <mxGeometry x="30" width="150" height="30" as="geometry">
            <mxRectangle width="150" height="30" as="alternateBounds" />
          </mxGeometry>
        </mxCell>
        <mxCell id="91" value="" style="shape=tableRow;horizontal=0;startSize=0;swimlaneHead=0;swimlaneBody=0;fillColor=none;collapsible=0;dropTarget=0;points=[[0,0.5],[1,0.5]];portConstraint=eastwest;top=0;left=0;right=0;bottom=0;" parent="87" vertex="1">
          <mxGeometry y="60" width="180" height="30" as="geometry" />
        </mxCell>
        <mxCell id="92" value="" style="shape=partialRectangle;connectable=0;fillColor=none;top=0;left=0;bottom=0;right=0;editable=1;overflow=hidden;" parent="91" vertex="1">
          <mxGeometry width="30" height="30" as="geometry">
            <mxRectangle width="30" height="30" as="alternateBounds" />
          </mxGeometry>
        </mxCell>
        <mxCell id="93" value="Namn" style="shape=partialRectangle;connectable=0;fillColor=none;top=0;left=0;bottom=0;right=0;align=left;spacingLeft=6;overflow=hidden;" parent="91" vertex="1">
          <mxGeometry x="30" width="150" height="30" as="geometry">
            <mxRectangle width="150" height="30" as="alternateBounds" />
          </mxGeometry>
        </mxCell>
        <mxCell id="94" value="" style="shape=tableRow;horizontal=0;startSize=0;swimlaneHead=0;swimlaneBody=0;fillColor=none;collapsible=0;dropTarget=0;points=[[0,0.5],[1,0.5]];portConstraint=eastwest;top=0;left=0;right=0;bottom=0;" parent="87" vertex="1">
          <mxGeometry y="90" width="180" height="30" as="geometry" />
        </mxCell>
        <mxCell id="95" value="" style="shape=partialRectangle;connectable=0;fillColor=none;top=0;left=0;bottom=0;right=0;editable=1;overflow=hidden;" parent="94" vertex="1">
          <mxGeometry width="30" height="30" as="geometry">
            <mxRectangle width="30" height="30" as="alternateBounds" />
          </mxGeometry>
        </mxCell>
        <mxCell id="96" value="Beskrivning" style="shape=partialRectangle;connectable=0;fillColor=none;top=0;left=0;bottom=0;right=0;align=left;spacingLeft=6;overflow=hidden;" parent="94" vertex="1">
          <mxGeometry x="30" width="150" height="30" as="geometry">
            <mxRectangle width="150" height="30" as="alternateBounds" />
          </mxGeometry>
        </mxCell>
        <mxCell id="97" value="" style="shape=tableRow;horizontal=0;startSize=0;swimlaneHead=0;swimlaneBody=0;fillColor=none;collapsible=0;dropTarget=0;points=[[0,0.5],[1,0.5]];portConstraint=eastwest;top=0;left=0;right=0;bottom=0;" parent="87" vertex="1">
          <mxGeometry y="120" width="180" height="30" as="geometry" />
        </mxCell>
        <mxCell id="98" value="" style="shape=partialRectangle;connectable=0;fillColor=none;top=0;left=0;bottom=0;right=0;editable=1;overflow=hidden;" parent="97" vertex="1">
          <mxGeometry width="30" height="30" as="geometry">
            <mxRectangle width="30" height="30" as="alternateBounds" />
          </mxGeometry>
        </mxCell>
        <mxCell id="99" value="Kommentar" style="shape=partialRectangle;connectable=0;fillColor=none;top=0;left=0;bottom=0;right=0;align=left;spacingLeft=6;overflow=hidden;" parent="97" vertex="1">
          <mxGeometry x="30" width="150" height="30" as="geometry">
            <mxRectangle width="150" height="30" as="alternateBounds" />
          </mxGeometry>
        </mxCell>
        <mxCell id="100" style="shape=tableRow;horizontal=0;startSize=0;swimlaneHead=0;swimlaneBody=0;fillColor=none;collapsible=0;dropTarget=0;points=[[0,0.5],[1,0.5]];portConstraint=eastwest;top=0;left=0;right=0;bottom=0;" parent="87" vertex="1">
          <mxGeometry y="150" width="180" height="30" as="geometry" />
        </mxCell>
        <mxCell id="101" style="shape=partialRectangle;connectable=0;fillColor=none;top=0;left=0;bottom=0;right=0;editable=1;overflow=hidden;" parent="100" vertex="1">
          <mxGeometry width="30" height="30" as="geometry">
            <mxRectangle width="30" height="30" as="alternateBounds" />
          </mxGeometry>
        </mxCell>
        <mxCell id="102" value="Pris" style="shape=partialRectangle;connectable=0;fillColor=none;top=0;left=0;bottom=0;right=0;align=left;spacingLeft=6;overflow=hidden;" parent="100" vertex="1">
          <mxGeometry x="30" width="150" height="30" as="geometry">
            <mxRectangle width="150" height="30" as="alternateBounds" />
          </mxGeometry>
        </mxCell>
        <mxCell id="106" value="BestÃ¤llning" style="shape=table;startSize=30;container=1;collapsible=1;childLayout=tableLayout;fixedRows=1;rowLines=0;fontStyle=1;align=center;resizeLast=1;" parent="1" vertex="1">
          <mxGeometry x="460" y="80" width="180" height="360" as="geometry">
            <mxRectangle x="-110" y="830" width="110" height="30" as="alternateBounds" />
          </mxGeometry>
        </mxCell>
        <mxCell id="107" value="" style="shape=tableRow;horizontal=0;startSize=0;swimlaneHead=0;swimlaneBody=0;fillColor=none;collapsible=0;dropTarget=0;points=[[0,0.5],[1,0.5]];portConstraint=eastwest;top=0;left=0;right=0;bottom=1;" parent="106" vertex="1">
          <mxGeometry y="30" width="180" height="30" as="geometry" />
        </mxCell>
        <mxCell id="108" value="PK" style="shape=partialRectangle;connectable=0;fillColor=none;top=0;left=0;bottom=0;right=0;fontStyle=1;overflow=hidden;" parent="107" vertex="1">
          <mxGeometry width="30" height="30" as="geometry">
            <mxRectangle width="30" height="30" as="alternateBounds" />
          </mxGeometry>
        </mxCell>
        <mxCell id="109" value="BestÃ¤llningsID" style="shape=partialRectangle;connectable=0;fillColor=none;top=0;left=0;bottom=0;right=0;align=left;spacingLeft=6;fontStyle=5;overflow=hidden;" parent="107" vertex="1">
          <mxGeometry x="30" width="150" height="30" as="geometry">
            <mxRectangle width="150" height="30" as="alternateBounds" />
          </mxGeometry>
        </mxCell>
        <mxCell id="110" value="" style="shape=tableRow;horizontal=0;startSize=0;swimlaneHead=0;swimlaneBody=0;fillColor=none;collapsible=0;dropTarget=0;points=[[0,0.5],[1,0.5]];portConstraint=eastwest;top=0;left=0;right=0;bottom=0;" parent="106" vertex="1">
          <mxGeometry y="60" width="180" height="30" as="geometry" />
        </mxCell>
        <mxCell id="111" value="FK" style="shape=partialRectangle;connectable=0;fillColor=none;top=0;left=0;bottom=0;right=0;editable=1;overflow=hidden;fontStyle=1" parent="110" vertex="1">
          <mxGeometry width="30" height="30" as="geometry">
            <mxRectangle width="30" height="30" as="alternateBounds" />
          </mxGeometry>
        </mxCell>
        <mxCell id="112" value="Kund*" style="shape=partialRectangle;connectable=0;fillColor=none;top=0;left=0;bottom=0;right=0;align=left;spacingLeft=6;overflow=hidden;" parent="110" vertex="1">
          <mxGeometry x="30" width="150" height="30" as="geometry">
            <mxRectangle width="150" height="30" as="alternateBounds" />
          </mxGeometry>
        </mxCell>
        <mxCell id="113" value="" style="shape=tableRow;horizontal=0;startSize=0;swimlaneHead=0;swimlaneBody=0;fillColor=none;collapsible=0;dropTarget=0;points=[[0,0.5],[1,0.5]];portConstraint=eastwest;top=0;left=0;right=0;bottom=0;" parent="106" vertex="1">
          <mxGeometry y="90" width="180" height="30" as="geometry" />
        </mxCell>
        <mxCell id="114" value="FK" style="shape=partialRectangle;connectable=0;fillColor=none;top=0;left=0;bottom=0;right=0;editable=1;overflow=hidden;fontStyle=1" parent="113" vertex="1">
          <mxGeometry width="30" height="30" as="geometry">
            <mxRectangle width="30" height="30" as="alternateBounds" />
          </mxGeometry>
        </mxCell>
        <mxCell id="115" value="Leveransmetod*" style="shape=partialRectangle;connectable=0;fillColor=none;top=0;left=0;bottom=0;right=0;align=left;spacingLeft=6;overflow=hidden;" parent="113" vertex="1">
          <mxGeometry x="30" width="150" height="30" as="geometry">
            <mxRectangle width="150" height="30" as="alternateBounds" />
          </mxGeometry>
        </mxCell>
        <mxCell id="116" value="" style="shape=tableRow;horizontal=0;startSize=0;swimlaneHead=0;swimlaneBody=0;fillColor=none;collapsible=0;dropTarget=0;points=[[0,0.5],[1,0.5]];portConstraint=eastwest;top=0;left=0;right=0;bottom=0;" parent="106" vertex="1">
          <mxGeometry y="120" width="180" height="30" as="geometry" />
        </mxCell>
        <mxCell id="117" value="FK" style="shape=partialRectangle;connectable=0;fillColor=none;top=0;left=0;bottom=0;right=0;editable=1;overflow=hidden;fontStyle=1" parent="116" vertex="1">
          <mxGeometry width="30" height="30" as="geometry">
            <mxRectangle width="30" height="30" as="alternateBounds" />
          </mxGeometry>
        </mxCell>
        <mxCell id="118" value="Returmetod*" style="shape=partialRectangle;connectable=0;fillColor=none;top=0;left=0;bottom=0;right=0;align=left;spacingLeft=6;overflow=hidden;" parent="116" vertex="1">
          <mxGeometry x="30" width="150" height="30" as="geometry">
            <mxRectangle width="150" height="30" as="alternateBounds" />
          </mxGeometry>
        </mxCell>
        <mxCell id="NgCR5Z2Uf9liRK6gi1Le-193" style="shape=tableRow;horizontal=0;startSize=0;swimlaneHead=0;swimlaneBody=0;fillColor=none;collapsible=0;dropTarget=0;points=[[0,0.5],[1,0.5]];portConstraint=eastwest;top=0;left=0;right=0;bottom=0;" parent="106" vertex="1">
          <mxGeometry y="150" width="180" height="30" as="geometry" />
        </mxCell>
        <mxCell id="NgCR5Z2Uf9liRK6gi1Le-194" value="FK" style="shape=partialRectangle;connectable=0;fillColor=none;top=0;left=0;bottom=0;right=0;editable=1;overflow=hidden;fontStyle=1" parent="NgCR5Z2Uf9liRK6gi1Le-193" vertex="1">
          <mxGeometry width="30" height="30" as="geometry">
            <mxRectangle width="30" height="30" as="alternateBounds" />
          </mxGeometry>
        </mxCell>
        <mxCell id="NgCR5Z2Uf9liRK6gi1Le-195" value="Betalningsmetod*" style="shape=partialRectangle;connectable=0;fillColor=none;top=0;left=0;bottom=0;right=0;align=left;spacingLeft=6;overflow=hidden;" parent="NgCR5Z2Uf9liRK6gi1Le-193" vertex="1">
          <mxGeometry x="30" width="150" height="30" as="geometry">
            <mxRectangle width="150" height="30" as="alternateBounds" />
          </mxGeometry>
        </mxCell>
        <mxCell id="NgCR5Z2Uf9liRK6gi1Le-190" style="shape=tableRow;horizontal=0;startSize=0;swimlaneHead=0;swimlaneBody=0;fillColor=none;collapsible=0;dropTarget=0;points=[[0,0.5],[1,0.5]];portConstraint=eastwest;top=0;left=0;right=0;bottom=0;" parent="106" vertex="1">
          <mxGeometry y="180" width="180" height="30" as="geometry" />
        </mxCell>
        <mxCell id="NgCR5Z2Uf9liRK6gi1Le-191" value="FK" style="shape=partialRectangle;connectable=0;fillColor=none;top=0;left=0;bottom=0;right=0;editable=1;overflow=hidden;fontStyle=1" parent="NgCR5Z2Uf9liRK6gi1Le-190" vertex="1">
          <mxGeometry width="30" height="30" as="geometry">
            <mxRectangle width="30" height="30" as="alternateBounds" />
          </mxGeometry>
        </mxCell>
        <mxCell id="NgCR5Z2Uf9liRK6gi1Le-192" value="UtlÃ¤mningsplats*" style="shape=partialRectangle;connectable=0;fillColor=none;top=0;left=0;bottom=0;right=0;align=left;spacingLeft=6;overflow=hidden;" parent="NgCR5Z2Uf9liRK6gi1Le-190" vertex="1">
          <mxGeometry x="30" width="150" height="30" as="geometry">
            <mxRectangle width="150" height="30" as="alternateBounds" />
          </mxGeometry>
        </mxCell>
        <mxCell id="NgCR5Z2Uf9liRK6gi1Le-187" style="shape=tableRow;horizontal=0;startSize=0;swimlaneHead=0;swimlaneBody=0;fillColor=none;collapsible=0;dropTarget=0;points=[[0,0.5],[1,0.5]];portConstraint=eastwest;top=0;left=0;right=0;bottom=0;" parent="106" vertex="1">
          <mxGeometry y="210" width="180" height="30" as="geometry" />
        </mxCell>
        <mxCell id="NgCR5Z2Uf9liRK6gi1Le-188" value="FK" style="shape=partialRectangle;connectable=0;fillColor=none;top=0;left=0;bottom=0;right=0;editable=1;overflow=hidden;fontStyle=1" parent="NgCR5Z2Uf9liRK6gi1Le-187" vertex="1">
          <mxGeometry width="30" height="30" as="geometry">
            <mxRectangle width="30" height="30" as="alternateBounds" />
          </mxGeometry>
        </mxCell>
        <mxCell id="NgCR5Z2Uf9liRK6gi1Le-189" value="Returplats*" style="shape=partialRectangle;connectable=0;fillColor=none;top=0;left=0;bottom=0;right=0;align=left;spacingLeft=6;overflow=hidden;" parent="NgCR5Z2Uf9liRK6gi1Le-187" vertex="1">
          <mxGeometry x="30" width="150" height="30" as="geometry">
            <mxRectangle width="150" height="30" as="alternateBounds" />
          </mxGeometry>
        </mxCell>
        <mxCell id="NgCR5Z2Uf9liRK6gi1Le-184" style="shape=tableRow;horizontal=0;startSize=0;swimlaneHead=0;swimlaneBody=0;fillColor=none;collapsible=0;dropTarget=0;points=[[0,0.5],[1,0.5]];portConstraint=eastwest;top=0;left=0;right=0;bottom=0;" parent="106" vertex="1">
          <mxGeometry y="240" width="180" height="30" as="geometry" />
        </mxCell>
        <mxCell id="NgCR5Z2Uf9liRK6gi1Le-185" style="shape=partialRectangle;connectable=0;fillColor=none;top=0;left=0;bottom=0;right=0;editable=1;overflow=hidden;" parent="NgCR5Z2Uf9liRK6gi1Le-184" vertex="1">
          <mxGeometry width="30" height="30" as="geometry">
            <mxRectangle width="30" height="30" as="alternateBounds" />
          </mxGeometry>
        </mxCell>
        <mxCell id="NgCR5Z2Uf9liRK6gi1Le-186" value="Returdatum" style="shape=partialRectangle;connectable=0;fillColor=none;top=0;left=0;bottom=0;right=0;align=left;spacingLeft=6;overflow=hidden;" parent="NgCR5Z2Uf9liRK6gi1Le-184" vertex="1">
          <mxGeometry x="30" width="150" height="30" as="geometry">
            <mxRectangle width="150" height="30" as="alternateBounds" />
          </mxGeometry>
        </mxCell>
        <mxCell id="NgCR5Z2Uf9liRK6gi1Le-181" style="shape=tableRow;horizontal=0;startSize=0;swimlaneHead=0;swimlaneBody=0;fillColor=none;collapsible=0;dropTarget=0;points=[[0,0.5],[1,0.5]];portConstraint=eastwest;top=0;left=0;right=0;bottom=0;" parent="106" vertex="1">
          <mxGeometry y="270" width="180" height="30" as="geometry" />
        </mxCell>
        <mxCell id="NgCR5Z2Uf9liRK6gi1Le-182" style="shape=partialRectangle;connectable=0;fillColor=none;top=0;left=0;bottom=0;right=0;editable=1;overflow=hidden;" parent="NgCR5Z2Uf9liRK6gi1Le-181" vertex="1">
          <mxGeometry width="30" height="30" as="geometry">
            <mxRectangle width="30" height="30" as="alternateBounds" />
          </mxGeometry>
        </mxCell>
        <mxCell id="NgCR5Z2Uf9liRK6gi1Le-183" value="UtlÃ¤mningsdatum" style="shape=partialRectangle;connectable=0;fillColor=none;top=0;left=0;bottom=0;right=0;align=left;spacingLeft=6;overflow=hidden;" parent="NgCR5Z2Uf9liRK6gi1Le-181" vertex="1">
          <mxGeometry x="30" width="150" height="30" as="geometry">
            <mxRectangle width="150" height="30" as="alternateBounds" />
          </mxGeometry>
        </mxCell>
        <mxCell id="NgCR5Z2Uf9liRK6gi1Le-196" style="shape=tableRow;horizontal=0;startSize=0;swimlaneHead=0;swimlaneBody=0;fillColor=none;collapsible=0;dropTarget=0;points=[[0,0.5],[1,0.5]];portConstraint=eastwest;top=0;left=0;right=0;bottom=0;" parent="106" vertex="1">
          <mxGeometry y="300" width="180" height="30" as="geometry" />
        </mxCell>
        <mxCell id="NgCR5Z2Uf9liRK6gi1Le-197" value="FK" style="shape=partialRectangle;connectable=0;fillColor=none;top=0;left=0;bottom=0;right=0;editable=1;overflow=hidden;fontStyle=1" parent="NgCR5Z2Uf9liRK6gi1Le-196" vertex="1">
          <mxGeometry width="30" height="30" as="geometry">
            <mxRectangle width="30" height="30" as="alternateBounds" />
          </mxGeometry>
        </mxCell>
        <mxCell id="NgCR5Z2Uf9liRK6gi1Le-198" value="Mottagaradress*" style="shape=partialRectangle;connectable=0;fillColor=none;top=0;left=0;bottom=0;right=0;align=left;spacingLeft=6;overflow=hidden;" parent="NgCR5Z2Uf9liRK6gi1Le-196" vertex="1">
          <mxGeometry x="30" width="150" height="30" as="geometry">
            <mxRectangle width="150" height="30" as="alternateBounds" />
          </mxGeometry>
        </mxCell>
        <mxCell id="NgCR5Z2Uf9liRK6gi1Le-199" style="shape=tableRow;horizontal=0;startSize=0;swimlaneHead=0;swimlaneBody=0;fillColor=none;collapsible=0;dropTarget=0;points=[[0,0.5],[1,0.5]];portConstraint=eastwest;top=0;left=0;right=0;bottom=0;" parent="106" vertex="1">
          <mxGeometry y="330" width="180" height="30" as="geometry" />
        </mxCell>
        <mxCell id="NgCR5Z2Uf9liRK6gi1Le-200" style="shape=partialRectangle;connectable=0;fillColor=none;top=0;left=0;bottom=0;right=0;editable=1;overflow=hidden;" parent="NgCR5Z2Uf9liRK6gi1Le-199" vertex="1">
          <mxGeometry width="30" height="30" as="geometry">
            <mxRectangle width="30" height="30" as="alternateBounds" />
          </mxGeometry>
        </mxCell>
        <mxCell id="NgCR5Z2Uf9liRK6gi1Le-201" value="Rabatt" style="shape=partialRectangle;connectable=0;fillColor=none;top=0;left=0;bottom=0;right=0;align=left;spacingLeft=6;overflow=hidden;" parent="NgCR5Z2Uf9liRK6gi1Le-199" vertex="1">
          <mxGeometry x="30" width="150" height="30" as="geometry">
            <mxRectangle width="150" height="30" as="alternateBounds" />
          </mxGeometry>
        </mxCell>
        <mxCell id="154" value="Lagersaldo" style="shape=table;startSize=30;container=1;collapsible=1;childLayout=tableLayout;fixedRows=1;rowLines=0;fontStyle=1;align=center;resizeLast=1;" parent="1" vertex="1">
          <mxGeometry x="360" y="700" width="180" height="150" as="geometry" />
        </mxCell>
        <mxCell id="155" value="" style="shape=tableRow;horizontal=0;startSize=0;swimlaneHead=0;swimlaneBody=0;fillColor=none;collapsible=0;dropTarget=0;points=[[0,0.5],[1,0.5]];portConstraint=eastwest;top=0;left=0;right=0;bottom=0;" parent="154" vertex="1">
          <mxGeometry y="30" width="180" height="30" as="geometry" />
        </mxCell>
        <mxCell id="156" value="PK, FK" style="shape=partialRectangle;connectable=0;fillColor=none;top=0;left=0;bottom=0;right=0;fontStyle=1;overflow=hidden;" parent="155" vertex="1">
          <mxGeometry width="60" height="30" as="geometry">
            <mxRectangle width="60" height="30" as="alternateBounds" />
          </mxGeometry>
        </mxCell>
        <mxCell id="157" value="Artikel*" style="shape=partialRectangle;connectable=0;fillColor=none;top=0;left=0;bottom=0;right=0;align=left;spacingLeft=6;fontStyle=5;overflow=hidden;" parent="155" vertex="1">
          <mxGeometry x="60" width="120" height="30" as="geometry">
            <mxRectangle width="120" height="30" as="alternateBounds" />
          </mxGeometry>
        </mxCell>
        <mxCell id="158" value="" style="shape=tableRow;horizontal=0;startSize=0;swimlaneHead=0;swimlaneBody=0;fillColor=none;collapsible=0;dropTarget=0;points=[[0,0.5],[1,0.5]];portConstraint=eastwest;top=0;left=0;right=0;bottom=1;" parent="154" vertex="1">
          <mxGeometry y="60" width="180" height="30" as="geometry" />
        </mxCell>
        <mxCell id="159" value="PK, FK" style="shape=partialRectangle;connectable=0;fillColor=none;top=0;left=0;bottom=0;right=0;fontStyle=1;overflow=hidden;" parent="158" vertex="1">
          <mxGeometry width="60" height="30" as="geometry">
            <mxRectangle width="60" height="30" as="alternateBounds" />
          </mxGeometry>
        </mxCell>
        <mxCell id="160" value="Lager*" style="shape=partialRectangle;connectable=0;fillColor=none;top=0;left=0;bottom=0;right=0;align=left;spacingLeft=6;fontStyle=5;overflow=hidden;" parent="158" vertex="1">
          <mxGeometry x="60" width="120" height="30" as="geometry">
            <mxRectangle width="120" height="30" as="alternateBounds" />
          </mxGeometry>
        </mxCell>
        <mxCell id="161" value="" style="shape=tableRow;horizontal=0;startSize=0;swimlaneHead=0;swimlaneBody=0;fillColor=none;collapsible=0;dropTarget=0;points=[[0,0.5],[1,0.5]];portConstraint=eastwest;top=0;left=0;right=0;bottom=0;" parent="154" vertex="1">
          <mxGeometry y="90" width="180" height="30" as="geometry" />
        </mxCell>
        <mxCell id="162" value="" style="shape=partialRectangle;connectable=0;fillColor=none;top=0;left=0;bottom=0;right=0;editable=1;overflow=hidden;" parent="161" vertex="1">
          <mxGeometry width="60" height="30" as="geometry">
            <mxRectangle width="60" height="30" as="alternateBounds" />
          </mxGeometry>
        </mxCell>
        <mxCell id="163" value="Antal" style="shape=partialRectangle;connectable=0;fillColor=none;top=0;left=0;bottom=0;right=0;align=left;spacingLeft=6;overflow=hidden;" parent="161" vertex="1">
          <mxGeometry x="60" width="120" height="30" as="geometry">
            <mxRectangle width="120" height="30" as="alternateBounds" />
          </mxGeometry>
        </mxCell>
        <mxCell id="ZOUmZxdnbHDAm0hCvJOH-176" style="shape=tableRow;horizontal=0;startSize=0;swimlaneHead=0;swimlaneBody=0;fillColor=none;collapsible=0;dropTarget=0;points=[[0,0.5],[1,0.5]];portConstraint=eastwest;top=0;left=0;right=0;bottom=0;" parent="154" vertex="1">
          <mxGeometry y="120" width="180" height="30" as="geometry" />
        </mxCell>
        <mxCell id="ZOUmZxdnbHDAm0hCvJOH-177" style="shape=partialRectangle;connectable=0;fillColor=none;top=0;left=0;bottom=0;right=0;editable=1;overflow=hidden;" parent="ZOUmZxdnbHDAm0hCvJOH-176" vertex="1">
          <mxGeometry width="60" height="30" as="geometry">
            <mxRectangle width="60" height="30" as="alternateBounds" />
          </mxGeometry>
        </mxCell>
        <mxCell id="ZOUmZxdnbHDAm0hCvJOH-178" value="Inventeringsdatum" style="shape=partialRectangle;connectable=0;fillColor=none;top=0;left=0;bottom=0;right=0;align=left;spacingLeft=6;overflow=hidden;" parent="ZOUmZxdnbHDAm0hCvJOH-176" vertex="1">
          <mxGeometry x="60" width="120" height="30" as="geometry">
            <mxRectangle width="120" height="30" as="alternateBounds" />
          </mxGeometry>
        </mxCell>
        <mxCell id="167" value="Lager" style="shape=table;startSize=30;container=1;collapsible=1;childLayout=tableLayout;fixedRows=1;rowLines=0;fontStyle=1;align=center;resizeLast=1;" parent="1" vertex="1">
          <mxGeometry x="640" y="730" width="180" height="120" as="geometry" />
        </mxCell>
        <mxCell id="168" value="" style="shape=tableRow;horizontal=0;startSize=0;swimlaneHead=0;swimlaneBody=0;fillColor=none;collapsible=0;dropTarget=0;points=[[0,0.5],[1,0.5]];portConstraint=eastwest;top=0;left=0;right=0;bottom=1;" parent="167" vertex="1">
          <mxGeometry y="30" width="180" height="30" as="geometry" />
        </mxCell>
        <mxCell id="169" value="PK" style="shape=partialRectangle;connectable=0;fillColor=none;top=0;left=0;bottom=0;right=0;fontStyle=1;overflow=hidden;" parent="168" vertex="1">
          <mxGeometry width="30" height="30" as="geometry">
            <mxRectangle width="30" height="30" as="alternateBounds" />
          </mxGeometry>
        </mxCell>
        <mxCell id="170" value="LagerID" style="shape=partialRectangle;connectable=0;fillColor=none;top=0;left=0;bottom=0;right=0;align=left;spacingLeft=6;fontStyle=5;overflow=hidden;" parent="168" vertex="1">
          <mxGeometry x="30" width="150" height="30" as="geometry">
            <mxRectangle width="150" height="30" as="alternateBounds" />
          </mxGeometry>
        </mxCell>
        <mxCell id="171" value="" style="shape=tableRow;horizontal=0;startSize=0;swimlaneHead=0;swimlaneBody=0;fillColor=none;collapsible=0;dropTarget=0;points=[[0,0.5],[1,0.5]];portConstraint=eastwest;top=0;left=0;right=0;bottom=0;" parent="167" vertex="1">
          <mxGeometry y="60" width="180" height="30" as="geometry" />
        </mxCell>
        <mxCell id="172" value="" style="shape=partialRectangle;connectable=0;fillColor=none;top=0;left=0;bottom=0;right=0;editable=1;overflow=hidden;" parent="171" vertex="1">
          <mxGeometry width="30" height="30" as="geometry">
            <mxRectangle width="30" height="30" as="alternateBounds" />
          </mxGeometry>
        </mxCell>
        <mxCell id="173" value="Namn" style="shape=partialRectangle;connectable=0;fillColor=none;top=0;left=0;bottom=0;right=0;align=left;spacingLeft=6;overflow=hidden;" parent="171" vertex="1">
          <mxGeometry x="30" width="150" height="30" as="geometry">
            <mxRectangle width="150" height="30" as="alternateBounds" />
          </mxGeometry>
        </mxCell>
        <mxCell id="174" value="" style="shape=tableRow;horizontal=0;startSize=0;swimlaneHead=0;swimlaneBody=0;fillColor=none;collapsible=0;dropTarget=0;points=[[0,0.5],[1,0.5]];portConstraint=eastwest;top=0;left=0;right=0;bottom=0;" parent="167" vertex="1">
          <mxGeometry y="90" width="180" height="30" as="geometry" />
        </mxCell>
        <mxCell id="175" value="FK" style="shape=partialRectangle;connectable=0;fillColor=none;top=0;left=0;bottom=0;right=0;editable=1;overflow=hidden;" parent="174" vertex="1">
          <mxGeometry width="30" height="30" as="geometry">
            <mxRectangle width="30" height="30" as="alternateBounds" />
          </mxGeometry>
        </mxCell>
        <mxCell id="176" value="Adress*" style="shape=partialRectangle;connectable=0;fillColor=none;top=0;left=0;bottom=0;right=0;align=left;spacingLeft=6;overflow=hidden;" parent="174" vertex="1">
          <mxGeometry x="30" width="150" height="30" as="geometry">
            <mxRectangle width="150" height="30" as="alternateBounds" />
          </mxGeometry>
        </mxCell>
        <mxCell id="NgCR5Z2Uf9liRK6gi1Le-202" value="Leveransmetod" style="shape=table;startSize=30;container=1;collapsible=1;childLayout=tableLayout;fixedRows=1;rowLines=0;fontStyle=1;align=center;resizeLast=1;" parent="1" vertex="1">
          <mxGeometry x="880" y="60" width="180" height="90" as="geometry" />
        </mxCell>
        <mxCell id="NgCR5Z2Uf9liRK6gi1Le-203" value="" style="shape=tableRow;horizontal=0;startSize=0;swimlaneHead=0;swimlaneBody=0;fillColor=none;collapsible=0;dropTarget=0;points=[[0,0.5],[1,0.5]];portConstraint=eastwest;top=0;left=0;right=0;bottom=1;" parent="NgCR5Z2Uf9liRK6gi1Le-202" vertex="1">
          <mxGeometry y="30" width="180" height="30" as="geometry" />
        </mxCell>
        <mxCell id="NgCR5Z2Uf9liRK6gi1Le-204" value="PK" style="shape=partialRectangle;connectable=0;fillColor=none;top=0;left=0;bottom=0;right=0;fontStyle=1;overflow=hidden;" parent="NgCR5Z2Uf9liRK6gi1Le-203" vertex="1">
          <mxGeometry width="30" height="30" as="geometry">
            <mxRectangle width="30" height="30" as="alternateBounds" />
          </mxGeometry>
        </mxCell>
        <mxCell id="NgCR5Z2Uf9liRK6gi1Le-205" value="LeveransmetodID" style="shape=partialRectangle;connectable=0;fillColor=none;top=0;left=0;bottom=0;right=0;align=left;spacingLeft=6;fontStyle=5;overflow=hidden;" parent="NgCR5Z2Uf9liRK6gi1Le-203" vertex="1">
          <mxGeometry x="30" width="150" height="30" as="geometry">
            <mxRectangle width="150" height="30" as="alternateBounds" />
          </mxGeometry>
        </mxCell>
        <mxCell id="NgCR5Z2Uf9liRK6gi1Le-206" value="" style="shape=tableRow;horizontal=0;startSize=0;swimlaneHead=0;swimlaneBody=0;fillColor=none;collapsible=0;dropTarget=0;points=[[0,0.5],[1,0.5]];portConstraint=eastwest;top=0;left=0;right=0;bottom=0;" parent="NgCR5Z2Uf9liRK6gi1Le-202" vertex="1">
          <mxGeometry y="60" width="180" height="30" as="geometry" />
        </mxCell>
        <mxCell id="NgCR5Z2Uf9liRK6gi1Le-207" value="" style="shape=partialRectangle;connectable=0;fillColor=none;top=0;left=0;bottom=0;right=0;editable=1;overflow=hidden;" parent="NgCR5Z2Uf9liRK6gi1Le-206" vertex="1">
          <mxGeometry width="30" height="30" as="geometry">
            <mxRectangle width="30" height="30" as="alternateBounds" />
          </mxGeometry>
        </mxCell>
        <mxCell id="NgCR5Z2Uf9liRK6gi1Le-208" value="Beskrivning" style="shape=partialRectangle;connectable=0;fillColor=none;top=0;left=0;bottom=0;right=0;align=left;spacingLeft=6;overflow=hidden;" parent="NgCR5Z2Uf9liRK6gi1Le-206" vertex="1">
          <mxGeometry x="30" width="150" height="30" as="geometry">
            <mxRectangle width="150" height="30" as="alternateBounds" />
          </mxGeometry>
        </mxCell>
        <mxCell id="NgCR5Z2Uf9liRK6gi1Le-215" value="Returmetod" style="shape=table;startSize=30;container=1;collapsible=1;childLayout=tableLayout;fixedRows=1;rowLines=0;fontStyle=1;align=center;resizeLast=1;" parent="1" vertex="1">
          <mxGeometry x="880" y="170" width="180" height="90" as="geometry" />
        </mxCell>
        <mxCell id="NgCR5Z2Uf9liRK6gi1Le-216" value="" style="shape=tableRow;horizontal=0;startSize=0;swimlaneHead=0;swimlaneBody=0;fillColor=none;collapsible=0;dropTarget=0;points=[[0,0.5],[1,0.5]];portConstraint=eastwest;top=0;left=0;right=0;bottom=1;" parent="NgCR5Z2Uf9liRK6gi1Le-215" vertex="1">
          <mxGeometry y="30" width="180" height="30" as="geometry" />
        </mxCell>
        <mxCell id="NgCR5Z2Uf9liRK6gi1Le-217" value="PK" style="shape=partialRectangle;connectable=0;fillColor=none;top=0;left=0;bottom=0;right=0;fontStyle=1;overflow=hidden;" parent="NgCR5Z2Uf9liRK6gi1Le-216" vertex="1">
          <mxGeometry width="30" height="30" as="geometry">
            <mxRectangle width="30" height="30" as="alternateBounds" />
          </mxGeometry>
        </mxCell>
        <mxCell id="NgCR5Z2Uf9liRK6gi1Le-218" value="ReturmetodID" style="shape=partialRectangle;connectable=0;fillColor=none;top=0;left=0;bottom=0;right=0;align=left;spacingLeft=6;fontStyle=5;overflow=hidden;" parent="NgCR5Z2Uf9liRK6gi1Le-216" vertex="1">
          <mxGeometry x="30" width="150" height="30" as="geometry">
            <mxRectangle width="150" height="30" as="alternateBounds" />
          </mxGeometry>
        </mxCell>
        <mxCell id="NgCR5Z2Uf9liRK6gi1Le-219" value="" style="shape=tableRow;horizontal=0;startSize=0;swimlaneHead=0;swimlaneBody=0;fillColor=none;collapsible=0;dropTarget=0;points=[[0,0.5],[1,0.5]];portConstraint=eastwest;top=0;left=0;right=0;bottom=0;" parent="NgCR5Z2Uf9liRK6gi1Le-215" vertex="1">
          <mxGeometry y="60" width="180" height="30" as="geometry" />
        </mxCell>
        <mxCell id="NgCR5Z2Uf9liRK6gi1Le-220" value="" style="shape=partialRectangle;connectable=0;fillColor=none;top=0;left=0;bottom=0;right=0;editable=1;overflow=hidden;" parent="NgCR5Z2Uf9liRK6gi1Le-219" vertex="1">
          <mxGeometry width="30" height="30" as="geometry">
            <mxRectangle width="30" height="30" as="alternateBounds" />
          </mxGeometry>
        </mxCell>
        <mxCell id="NgCR5Z2Uf9liRK6gi1Le-221" value="Beskrivning" style="shape=partialRectangle;connectable=0;fillColor=none;top=0;left=0;bottom=0;right=0;align=left;spacingLeft=6;overflow=hidden;" parent="NgCR5Z2Uf9liRK6gi1Le-219" vertex="1">
          <mxGeometry x="30" width="150" height="30" as="geometry">
            <mxRectangle width="150" height="30" as="alternateBounds" />
          </mxGeometry>
        </mxCell>
        <mxCell id="NgCR5Z2Uf9liRK6gi1Le-222" value="Betalningsmetod" style="shape=table;startSize=30;container=1;collapsible=1;childLayout=tableLayout;fixedRows=1;rowLines=0;fontStyle=1;align=center;resizeLast=1;" parent="1" vertex="1">
          <mxGeometry x="880" y="280" width="180" height="90" as="geometry" />
        </mxCell>
        <mxCell id="NgCR5Z2Uf9liRK6gi1Le-223" value="" style="shape=tableRow;horizontal=0;startSize=0;swimlaneHead=0;swimlaneBody=0;fillColor=none;collapsible=0;dropTarget=0;points=[[0,0.5],[1,0.5]];portConstraint=eastwest;top=0;left=0;right=0;bottom=1;" parent="NgCR5Z2Uf9liRK6gi1Le-222" vertex="1">
          <mxGeometry y="30" width="180" height="30" as="geometry" />
        </mxCell>
        <mxCell id="NgCR5Z2Uf9liRK6gi1Le-224" value="PK" style="shape=partialRectangle;connectable=0;fillColor=none;top=0;left=0;bottom=0;right=0;fontStyle=1;overflow=hidden;" parent="NgCR5Z2Uf9liRK6gi1Le-223" vertex="1">
          <mxGeometry width="30" height="30" as="geometry">
            <mxRectangle width="30" height="30" as="alternateBounds" />
          </mxGeometry>
        </mxCell>
        <mxCell id="NgCR5Z2Uf9liRK6gi1Le-225" value="BetalningsmetodID" style="shape=partialRectangle;connectable=0;fillColor=none;top=0;left=0;bottom=0;right=0;align=left;spacingLeft=6;fontStyle=5;overflow=hidden;" parent="NgCR5Z2Uf9liRK6gi1Le-223" vertex="1">
          <mxGeometry x="30" width="150" height="30" as="geometry">
            <mxRectangle width="150" height="30" as="alternateBounds" />
          </mxGeometry>
        </mxCell>
        <mxCell id="NgCR5Z2Uf9liRK6gi1Le-226" value="" style="shape=tableRow;horizontal=0;startSize=0;swimlaneHead=0;swimlaneBody=0;fillColor=none;collapsible=0;dropTarget=0;points=[[0,0.5],[1,0.5]];portConstraint=eastwest;top=0;left=0;right=0;bottom=0;" parent="NgCR5Z2Uf9liRK6gi1Le-222" vertex="1">
          <mxGeometry y="60" width="180" height="30" as="geometry" />
        </mxCell>
        <mxCell id="NgCR5Z2Uf9liRK6gi1Le-227" value="" style="shape=partialRectangle;connectable=0;fillColor=none;top=0;left=0;bottom=0;right=0;editable=1;overflow=hidden;" parent="NgCR5Z2Uf9liRK6gi1Le-226" vertex="1">
          <mxGeometry width="30" height="30" as="geometry">
            <mxRectangle width="30" height="30" as="alternateBounds" />
          </mxGeometry>
        </mxCell>
        <mxCell id="NgCR5Z2Uf9liRK6gi1Le-228" value="Beskrivning" style="shape=partialRectangle;connectable=0;fillColor=none;top=0;left=0;bottom=0;right=0;align=left;spacingLeft=6;overflow=hidden;" parent="NgCR5Z2Uf9liRK6gi1Le-226" vertex="1">
          <mxGeometry x="30" width="150" height="30" as="geometry">
            <mxRectangle width="150" height="30" as="alternateBounds" />
          </mxGeometry>
        </mxCell>
        <mxCell id="NgCR5Z2Uf9liRK6gi1Le-232" style="edgeStyle=orthogonalEdgeStyle;html=1;entryX=1;entryY=0.5;entryDx=0;entryDy=0;endArrow=none;endFill=0;" parent="1" source="NgCR5Z2Uf9liRK6gi1Le-216" target="116" edge="1">
          <mxGeometry relative="1" as="geometry" />
        </mxCell>
        <mxCell id="NgCR5Z2Uf9liRK6gi1Le-233" style="edgeStyle=orthogonalEdgeStyle;html=1;exitX=0;exitY=0.5;exitDx=0;exitDy=0;entryX=1;entryY=0.5;entryDx=0;entryDy=0;endArrow=none;endFill=0;" parent="1" source="NgCR5Z2Uf9liRK6gi1Le-223" target="NgCR5Z2Uf9liRK6gi1Le-193" edge="1">
          <mxGeometry relative="1" as="geometry" />
        </mxCell>
        <mxCell id="NgCR5Z2Uf9liRK6gi1Le-234" style="edgeStyle=orthogonalEdgeStyle;html=1;entryX=1;entryY=0.5;entryDx=0;entryDy=0;endArrow=none;endFill=0;" parent="1" source="NgCR5Z2Uf9liRK6gi1Le-203" target="113" edge="1">
          <mxGeometry relative="1" as="geometry" />
        </mxCell>
        <mxCell id="NgCR5Z2Uf9liRK6gi1Le-240" style="edgeStyle=orthogonalEdgeStyle;html=1;entryX=1;entryY=0.5;entryDx=0;entryDy=0;endArrow=none;endFill=0;" parent="1" source="168" target="158" edge="1">
          <mxGeometry relative="1" as="geometry" />
        </mxCell>
        <mxCell id="NgCR5Z2Uf9liRK6gi1Le-241" style="edgeStyle=orthogonalEdgeStyle;html=1;entryX=0;entryY=0.5;entryDx=0;entryDy=0;endArrow=none;endFill=0;" parent="1" source="88" target="155" edge="1">
          <mxGeometry relative="1" as="geometry" />
        </mxCell>
        <mxCell id="NgCR5Z2Uf9liRK6gi1Le-242" style="edgeStyle=orthogonalEdgeStyle;html=1;entryX=0;entryY=0.5;entryDx=0;entryDy=0;endArrow=none;endFill=0;" parent="1" source="66" target="110" edge="1">
          <mxGeometry relative="1" as="geometry" />
        </mxCell>
        <mxCell id="NgCR5Z2Uf9liRK6gi1Le-243" style="edgeStyle=orthogonalEdgeStyle;html=1;entryX=1;entryY=0.5;entryDx=0;entryDy=0;endArrow=none;endFill=0;" parent="1" source="NgCR5Z2Uf9liRK6gi1Le-187" target="168" edge="1">
          <mxGeometry relative="1" as="geometry">
            <Array as="points">
              <mxPoint x="720" y="305" />
              <mxPoint x="720" y="520" />
              <mxPoint x="880" y="520" />
              <mxPoint x="880" y="775" />
            </Array>
          </mxGeometry>
        </mxCell>
        <mxCell id="NgCR5Z2Uf9liRK6gi1Le-258" value="BestÃ¤llningsInnehÃ¥ll" style="shape=table;startSize=30;container=1;collapsible=1;childLayout=tableLayout;fixedRows=1;rowLines=0;fontStyle=1;align=center;resizeLast=1;" parent="1" vertex="1">
          <mxGeometry x="80" y="400" width="180" height="150" as="geometry" />
        </mxCell>
        <mxCell id="NgCR5Z2Uf9liRK6gi1Le-259" value="" style="shape=tableRow;horizontal=0;startSize=0;swimlaneHead=0;swimlaneBody=0;fillColor=none;collapsible=0;dropTarget=0;points=[[0,0.5],[1,0.5]];portConstraint=eastwest;top=0;left=0;right=0;bottom=0;" parent="NgCR5Z2Uf9liRK6gi1Le-258" vertex="1">
          <mxGeometry y="30" width="180" height="30" as="geometry" />
        </mxCell>
        <mxCell id="NgCR5Z2Uf9liRK6gi1Le-260" value="PK, FK" style="shape=partialRectangle;connectable=0;fillColor=none;top=0;left=0;bottom=0;right=0;fontStyle=1;overflow=hidden;" parent="NgCR5Z2Uf9liRK6gi1Le-259" vertex="1">
          <mxGeometry width="60" height="30" as="geometry">
            <mxRectangle width="60" height="30" as="alternateBounds" />
          </mxGeometry>
        </mxCell>
        <mxCell id="NgCR5Z2Uf9liRK6gi1Le-261" value="BestÃ¤llning*" style="shape=partialRectangle;connectable=0;fillColor=none;top=0;left=0;bottom=0;right=0;align=left;spacingLeft=6;fontStyle=5;overflow=hidden;" parent="NgCR5Z2Uf9liRK6gi1Le-259" vertex="1">
          <mxGeometry x="60" width="120" height="30" as="geometry">
            <mxRectangle width="120" height="30" as="alternateBounds" />
          </mxGeometry>
        </mxCell>
        <mxCell id="NgCR5Z2Uf9liRK6gi1Le-262" value="" style="shape=tableRow;horizontal=0;startSize=0;swimlaneHead=0;swimlaneBody=0;fillColor=none;collapsible=0;dropTarget=0;points=[[0,0.5],[1,0.5]];portConstraint=eastwest;top=0;left=0;right=0;bottom=1;" parent="NgCR5Z2Uf9liRK6gi1Le-258" vertex="1">
          <mxGeometry y="60" width="180" height="30" as="geometry" />
        </mxCell>
        <mxCell id="NgCR5Z2Uf9liRK6gi1Le-263" value="PK, FK" style="shape=partialRectangle;connectable=0;fillColor=none;top=0;left=0;bottom=0;right=0;fontStyle=1;overflow=hidden;" parent="NgCR5Z2Uf9liRK6gi1Le-262" vertex="1">
          <mxGeometry width="60" height="30" as="geometry">
            <mxRectangle width="60" height="30" as="alternateBounds" />
          </mxGeometry>
        </mxCell>
        <mxCell id="NgCR5Z2Uf9liRK6gi1Le-264" value="Artikel" style="shape=partialRectangle;connectable=0;fillColor=none;top=0;left=0;bottom=0;right=0;align=left;spacingLeft=6;fontStyle=5;overflow=hidden;" parent="NgCR5Z2Uf9liRK6gi1Le-262" vertex="1">
          <mxGeometry x="60" width="120" height="30" as="geometry">
            <mxRectangle width="120" height="30" as="alternateBounds" />
          </mxGeometry>
        </mxCell>
        <mxCell id="NgCR5Z2Uf9liRK6gi1Le-265" value="" style="shape=tableRow;horizontal=0;startSize=0;swimlaneHead=0;swimlaneBody=0;fillColor=none;collapsible=0;dropTarget=0;points=[[0,0.5],[1,0.5]];portConstraint=eastwest;top=0;left=0;right=0;bottom=0;" parent="NgCR5Z2Uf9liRK6gi1Le-258" vertex="1">
          <mxGeometry y="90" width="180" height="30" as="geometry" />
        </mxCell>
        <mxCell id="NgCR5Z2Uf9liRK6gi1Le-266" value="" style="shape=partialRectangle;connectable=0;fillColor=none;top=0;left=0;bottom=0;right=0;editable=1;overflow=hidden;" parent="NgCR5Z2Uf9liRK6gi1Le-265" vertex="1">
          <mxGeometry width="60" height="30" as="geometry">
            <mxRectangle width="60" height="30" as="alternateBounds" />
          </mxGeometry>
        </mxCell>
        <mxCell id="NgCR5Z2Uf9liRK6gi1Le-267" value="Antal" style="shape=partialRectangle;connectable=0;fillColor=none;top=0;left=0;bottom=0;right=0;align=left;spacingLeft=6;overflow=hidden;" parent="NgCR5Z2Uf9liRK6gi1Le-265" vertex="1">
          <mxGeometry x="60" width="120" height="30" as="geometry">
            <mxRectangle width="120" height="30" as="alternateBounds" />
          </mxGeometry>
        </mxCell>
        <mxCell id="NgCR5Z2Uf9liRK6gi1Le-268" value="" style="shape=tableRow;horizontal=0;startSize=0;swimlaneHead=0;swimlaneBody=0;fillColor=none;collapsible=0;dropTarget=0;points=[[0,0.5],[1,0.5]];portConstraint=eastwest;top=0;left=0;right=0;bottom=0;" parent="NgCR5Z2Uf9liRK6gi1Le-258" vertex="1">
          <mxGeometry y="120" width="180" height="30" as="geometry" />
        </mxCell>
        <mxCell id="NgCR5Z2Uf9liRK6gi1Le-269" value="" style="shape=partialRectangle;connectable=0;fillColor=none;top=0;left=0;bottom=0;right=0;editable=1;overflow=hidden;" parent="NgCR5Z2Uf9liRK6gi1Le-268" vertex="1">
          <mxGeometry width="60" height="30" as="geometry">
            <mxRectangle width="60" height="30" as="alternateBounds" />
          </mxGeometry>
        </mxCell>
        <mxCell id="NgCR5Z2Uf9liRK6gi1Le-270" value="Rabatt" style="shape=partialRectangle;connectable=0;fillColor=none;top=0;left=0;bottom=0;right=0;align=left;spacingLeft=6;overflow=hidden;" parent="NgCR5Z2Uf9liRK6gi1Le-268" vertex="1">
          <mxGeometry x="60" width="120" height="30" as="geometry">
            <mxRectangle width="120" height="30" as="alternateBounds" />
          </mxGeometry>
        </mxCell>
        <mxCell id="NgCR5Z2Uf9liRK6gi1Le-271" style="edgeStyle=orthogonalEdgeStyle;html=1;entryX=0;entryY=0.5;entryDx=0;entryDy=0;endArrow=none;endFill=0;jumpStyle=line;" parent="1" source="NgCR5Z2Uf9liRK6gi1Le-259" target="107" edge="1">
          <mxGeometry relative="1" as="geometry" />
        </mxCell>
        <mxCell id="NgCR5Z2Uf9liRK6gi1Le-272" style="edgeStyle=orthogonalEdgeStyle;jumpStyle=line;html=1;entryX=0;entryY=0.5;entryDx=0;entryDy=0;endArrow=none;endFill=0;" parent="1" source="NgCR5Z2Uf9liRK6gi1Le-262" target="88" edge="1">
          <mxGeometry relative="1" as="geometry">
            <Array as="points">
              <mxPoint x="40" y="475" />
              <mxPoint x="40" y="745" />
            </Array>
          </mxGeometry>
        </mxCell>
        <mxCell id="NgCR5Z2Uf9liRK6gi1Le-274" style="edgeStyle=orthogonalEdgeStyle;jumpStyle=line;html=1;entryX=1;entryY=0.5;entryDx=0;entryDy=0;endArrow=none;endFill=0;" parent="1" source="NgCR5Z2Uf9liRK6gi1Le-190" target="168" edge="1">
          <mxGeometry relative="1" as="geometry">
            <Array as="points">
              <mxPoint x="720" y="275" />
              <mxPoint x="720" y="520" />
              <mxPoint x="880" y="520" />
              <mxPoint x="880" y="775" />
            </Array>
          </mxGeometry>
        </mxCell>
        <mxCell id="BkoIJ332fnc5y_oovac8-176" value="Adress" style="shape=table;startSize=30;container=1;collapsible=1;childLayout=tableLayout;fixedRows=1;rowLines=0;fontStyle=1;align=center;resizeLast=1;" parent="1" vertex="1">
          <mxGeometry x="-330" y="260" width="180" height="150" as="geometry" />
        </mxCell>
        <mxCell id="BkoIJ332fnc5y_oovac8-177" value="" style="shape=tableRow;horizontal=0;startSize=0;swimlaneHead=0;swimlaneBody=0;fillColor=none;collapsible=0;dropTarget=0;points=[[0,0.5],[1,0.5]];portConstraint=eastwest;top=0;left=0;right=0;bottom=1;" parent="BkoIJ332fnc5y_oovac8-176" vertex="1">
          <mxGeometry y="30" width="180" height="30" as="geometry" />
        </mxCell>
        <mxCell id="BkoIJ332fnc5y_oovac8-178" value="PK" style="shape=partialRectangle;connectable=0;fillColor=none;top=0;left=0;bottom=0;right=0;fontStyle=1;overflow=hidden;" parent="BkoIJ332fnc5y_oovac8-177" vertex="1">
          <mxGeometry width="30" height="30" as="geometry">
            <mxRectangle width="30" height="30" as="alternateBounds" />
          </mxGeometry>
        </mxCell>
        <mxCell id="BkoIJ332fnc5y_oovac8-179" value="AdressID" style="shape=partialRectangle;connectable=0;fillColor=none;top=0;left=0;bottom=0;right=0;align=left;spacingLeft=6;fontStyle=5;overflow=hidden;" parent="BkoIJ332fnc5y_oovac8-177" vertex="1">
          <mxGeometry x="30" width="150" height="30" as="geometry">
            <mxRectangle width="150" height="30" as="alternateBounds" />
          </mxGeometry>
        </mxCell>
        <mxCell id="BkoIJ332fnc5y_oovac8-180" value="" style="shape=tableRow;horizontal=0;startSize=0;swimlaneHead=0;swimlaneBody=0;fillColor=none;collapsible=0;dropTarget=0;points=[[0,0.5],[1,0.5]];portConstraint=eastwest;top=0;left=0;right=0;bottom=0;" parent="BkoIJ332fnc5y_oovac8-176" vertex="1">
          <mxGeometry y="60" width="180" height="30" as="geometry" />
        </mxCell>
        <mxCell id="BkoIJ332fnc5y_oovac8-181" value="" style="shape=partialRectangle;connectable=0;fillColor=none;top=0;left=0;bottom=0;right=0;editable=1;overflow=hidden;" parent="BkoIJ332fnc5y_oovac8-180" vertex="1">
          <mxGeometry width="30" height="30" as="geometry">
            <mxRectangle width="30" height="30" as="alternateBounds" />
          </mxGeometry>
        </mxCell>
        <mxCell id="BkoIJ332fnc5y_oovac8-182" value="Gatuadress" style="shape=partialRectangle;connectable=0;fillColor=none;top=0;left=0;bottom=0;right=0;align=left;spacingLeft=6;overflow=hidden;" parent="BkoIJ332fnc5y_oovac8-180" vertex="1">
          <mxGeometry x="30" width="150" height="30" as="geometry">
            <mxRectangle width="150" height="30" as="alternateBounds" />
          </mxGeometry>
        </mxCell>
        <mxCell id="BkoIJ332fnc5y_oovac8-183" value="" style="shape=tableRow;horizontal=0;startSize=0;swimlaneHead=0;swimlaneBody=0;fillColor=none;collapsible=0;dropTarget=0;points=[[0,0.5],[1,0.5]];portConstraint=eastwest;top=0;left=0;right=0;bottom=0;" parent="BkoIJ332fnc5y_oovac8-176" vertex="1">
          <mxGeometry y="90" width="180" height="30" as="geometry" />
        </mxCell>
        <mxCell id="BkoIJ332fnc5y_oovac8-184" value="" style="shape=partialRectangle;connectable=0;fillColor=none;top=0;left=0;bottom=0;right=0;editable=1;overflow=hidden;" parent="BkoIJ332fnc5y_oovac8-183" vertex="1">
          <mxGeometry width="30" height="30" as="geometry">
            <mxRectangle width="30" height="30" as="alternateBounds" />
          </mxGeometry>
        </mxCell>
        <mxCell id="BkoIJ332fnc5y_oovac8-185" value="Postnummer" style="shape=partialRectangle;connectable=0;fillColor=none;top=0;left=0;bottom=0;right=0;align=left;spacingLeft=6;overflow=hidden;" parent="BkoIJ332fnc5y_oovac8-183" vertex="1">
          <mxGeometry x="30" width="150" height="30" as="geometry">
            <mxRectangle width="150" height="30" as="alternateBounds" />
          </mxGeometry>
        </mxCell>
        <mxCell id="BkoIJ332fnc5y_oovac8-186" value="" style="shape=tableRow;horizontal=0;startSize=0;swimlaneHead=0;swimlaneBody=0;fillColor=none;collapsible=0;dropTarget=0;points=[[0,0.5],[1,0.5]];portConstraint=eastwest;top=0;left=0;right=0;bottom=0;" parent="BkoIJ332fnc5y_oovac8-176" vertex="1">
          <mxGeometry y="120" width="180" height="30" as="geometry" />
        </mxCell>
        <mxCell id="BkoIJ332fnc5y_oovac8-187" value="" style="shape=partialRectangle;connectable=0;fillColor=none;top=0;left=0;bottom=0;right=0;editable=1;overflow=hidden;" parent="BkoIJ332fnc5y_oovac8-186" vertex="1">
          <mxGeometry width="30" height="30" as="geometry">
            <mxRectangle width="30" height="30" as="alternateBounds" />
          </mxGeometry>
        </mxCell>
        <mxCell id="BkoIJ332fnc5y_oovac8-188" value="Postort" style="shape=partialRectangle;connectable=0;fillColor=none;top=0;left=0;bottom=0;right=0;align=left;spacingLeft=6;overflow=hidden;" parent="BkoIJ332fnc5y_oovac8-186" vertex="1">
          <mxGeometry x="30" width="150" height="30" as="geometry">
            <mxRectangle width="150" height="30" as="alternateBounds" />
          </mxGeometry>
        </mxCell>
        <mxCell id="BkoIJ332fnc5y_oovac8-189" style="edgeStyle=orthogonalEdgeStyle;html=1;entryX=1;entryY=0.5;entryDx=0;entryDy=0;endArrow=none;endFill=0;" parent="1" target="BkoIJ332fnc5y_oovac8-177" edge="1">
          <mxGeometry relative="1" as="geometry" />
        </mxCell>
        <mxCell id="BkoIJ332fnc5y_oovac8-190" style="edgeStyle=orthogonalEdgeStyle;html=1;entryX=0;entryY=0.5;entryDx=0;entryDy=0;endArrow=none;endFill=0;" parent="1" source="174" target="BkoIJ332fnc5y_oovac8-177" edge="1">
          <mxGeometry relative="1" as="geometry">
            <Array as="points">
              <mxPoint x="600" y="835" />
              <mxPoint x="600" y="1001" />
              <mxPoint x="-400" y="1001" />
              <mxPoint x="-400" y="305" />
            </Array>
          </mxGeometry>
        </mxCell>
        <mxCell id="BkoIJ332fnc5y_oovac8-191" value="AnstÃ¤lld" style="shape=table;startSize=30;container=1;collapsible=1;childLayout=tableLayout;fixedRows=1;rowLines=0;fontStyle=1;align=center;resizeLast=1;" parent="1" vertex="1">
          <mxGeometry x="1477" y="193" width="180" height="330" as="geometry">
            <mxRectangle x="1189" y="434" width="70" height="30" as="alternateBounds" />
          </mxGeometry>
        </mxCell>
        <mxCell id="BkoIJ332fnc5y_oovac8-192" value="" style="shape=tableRow;horizontal=0;startSize=0;swimlaneHead=0;swimlaneBody=0;fillColor=none;collapsible=0;dropTarget=0;points=[[0,0.5],[1,0.5]];portConstraint=eastwest;top=0;left=0;right=0;bottom=1;" parent="BkoIJ332fnc5y_oovac8-191" vertex="1">
          <mxGeometry y="30" width="180" height="30" as="geometry" />
        </mxCell>
        <mxCell id="BkoIJ332fnc5y_oovac8-193" value="PK" style="shape=partialRectangle;connectable=0;fillColor=none;top=0;left=0;bottom=0;right=0;fontStyle=1;overflow=hidden;" parent="BkoIJ332fnc5y_oovac8-192" vertex="1">
          <mxGeometry width="30" height="30" as="geometry">
            <mxRectangle width="30" height="30" as="alternateBounds" />
          </mxGeometry>
        </mxCell>
        <mxCell id="BkoIJ332fnc5y_oovac8-194" value="AnstÃ¤llningsID" style="shape=partialRectangle;connectable=0;fillColor=none;top=0;left=0;bottom=0;right=0;align=left;spacingLeft=6;fontStyle=5;overflow=hidden;" parent="BkoIJ332fnc5y_oovac8-192" vertex="1">
          <mxGeometry x="30" width="150" height="30" as="geometry">
            <mxRectangle width="150" height="30" as="alternateBounds" />
          </mxGeometry>
        </mxCell>
        <mxCell id="BkoIJ332fnc5y_oovac8-195" value="" style="shape=tableRow;horizontal=0;startSize=0;swimlaneHead=0;swimlaneBody=0;fillColor=none;collapsible=0;dropTarget=0;points=[[0,0.5],[1,0.5]];portConstraint=eastwest;top=0;left=0;right=0;bottom=0;" parent="BkoIJ332fnc5y_oovac8-191" vertex="1">
          <mxGeometry y="60" width="180" height="30" as="geometry" />
        </mxCell>
        <mxCell id="BkoIJ332fnc5y_oovac8-196" value="" style="shape=partialRectangle;connectable=0;fillColor=none;top=0;left=0;bottom=0;right=0;editable=1;overflow=hidden;" parent="BkoIJ332fnc5y_oovac8-195" vertex="1">
          <mxGeometry width="30" height="30" as="geometry">
            <mxRectangle width="30" height="30" as="alternateBounds" />
          </mxGeometry>
        </mxCell>
        <mxCell id="BkoIJ332fnc5y_oovac8-197" value="FÃ¶rnamn" style="shape=partialRectangle;connectable=0;fillColor=none;top=0;left=0;bottom=0;right=0;align=left;spacingLeft=6;overflow=hidden;" parent="BkoIJ332fnc5y_oovac8-195" vertex="1">
          <mxGeometry x="30" width="150" height="30" as="geometry">
            <mxRectangle width="150" height="30" as="alternateBounds" />
          </mxGeometry>
        </mxCell>
        <mxCell id="BkoIJ332fnc5y_oovac8-198" value="" style="shape=tableRow;horizontal=0;startSize=0;swimlaneHead=0;swimlaneBody=0;fillColor=none;collapsible=0;dropTarget=0;points=[[0,0.5],[1,0.5]];portConstraint=eastwest;top=0;left=0;right=0;bottom=0;" parent="BkoIJ332fnc5y_oovac8-191" vertex="1">
          <mxGeometry y="90" width="180" height="30" as="geometry" />
        </mxCell>
        <mxCell id="BkoIJ332fnc5y_oovac8-199" value="" style="shape=partialRectangle;connectable=0;fillColor=none;top=0;left=0;bottom=0;right=0;editable=1;overflow=hidden;" parent="BkoIJ332fnc5y_oovac8-198" vertex="1">
          <mxGeometry width="30" height="30" as="geometry">
            <mxRectangle width="30" height="30" as="alternateBounds" />
          </mxGeometry>
        </mxCell>
        <mxCell id="BkoIJ332fnc5y_oovac8-200" value="Efternamn" style="shape=partialRectangle;connectable=0;fillColor=none;top=0;left=0;bottom=0;right=0;align=left;spacingLeft=6;overflow=hidden;" parent="BkoIJ332fnc5y_oovac8-198" vertex="1">
          <mxGeometry x="30" width="150" height="30" as="geometry">
            <mxRectangle width="150" height="30" as="alternateBounds" />
          </mxGeometry>
        </mxCell>
        <mxCell id="BkoIJ332fnc5y_oovac8-201" value="" style="shape=tableRow;horizontal=0;startSize=0;swimlaneHead=0;swimlaneBody=0;fillColor=none;collapsible=0;dropTarget=0;points=[[0,0.5],[1,0.5]];portConstraint=eastwest;top=0;left=0;right=0;bottom=0;" parent="BkoIJ332fnc5y_oovac8-191" vertex="1">
          <mxGeometry y="120" width="180" height="30" as="geometry" />
        </mxCell>
        <mxCell id="BkoIJ332fnc5y_oovac8-202" value="" style="shape=partialRectangle;connectable=0;fillColor=none;top=0;left=0;bottom=0;right=0;editable=1;overflow=hidden;" parent="BkoIJ332fnc5y_oovac8-201" vertex="1">
          <mxGeometry width="30" height="30" as="geometry">
            <mxRectangle width="30" height="30" as="alternateBounds" />
          </mxGeometry>
        </mxCell>
        <mxCell id="BkoIJ332fnc5y_oovac8-203" value="Telefonnummer" style="shape=partialRectangle;connectable=0;fillColor=none;top=0;left=0;bottom=0;right=0;align=left;spacingLeft=6;overflow=hidden;" parent="BkoIJ332fnc5y_oovac8-201" vertex="1">
          <mxGeometry x="30" width="150" height="30" as="geometry">
            <mxRectangle width="150" height="30" as="alternateBounds" />
          </mxGeometry>
        </mxCell>
        <mxCell id="BkoIJ332fnc5y_oovac8-204" style="shape=tableRow;horizontal=0;startSize=0;swimlaneHead=0;swimlaneBody=0;fillColor=none;collapsible=0;dropTarget=0;points=[[0,0.5],[1,0.5]];portConstraint=eastwest;top=0;left=0;right=0;bottom=0;" parent="BkoIJ332fnc5y_oovac8-191" vertex="1">
          <mxGeometry y="150" width="180" height="30" as="geometry" />
        </mxCell>
        <mxCell id="BkoIJ332fnc5y_oovac8-205" style="shape=partialRectangle;connectable=0;fillColor=none;top=0;left=0;bottom=0;right=0;editable=1;overflow=hidden;" parent="BkoIJ332fnc5y_oovac8-204" vertex="1">
          <mxGeometry width="30" height="30" as="geometry">
            <mxRectangle width="30" height="30" as="alternateBounds" />
          </mxGeometry>
        </mxCell>
        <mxCell id="BkoIJ332fnc5y_oovac8-206" value="Epost" style="shape=partialRectangle;connectable=0;fillColor=none;top=0;left=0;bottom=0;right=0;align=left;spacingLeft=6;overflow=hidden;" parent="BkoIJ332fnc5y_oovac8-204" vertex="1">
          <mxGeometry x="30" width="150" height="30" as="geometry">
            <mxRectangle width="150" height="30" as="alternateBounds" />
          </mxGeometry>
        </mxCell>
        <mxCell id="BkoIJ332fnc5y_oovac8-207" style="shape=tableRow;horizontal=0;startSize=0;swimlaneHead=0;swimlaneBody=0;fillColor=none;collapsible=0;dropTarget=0;points=[[0,0.5],[1,0.5]];portConstraint=eastwest;top=0;left=0;right=0;bottom=0;" parent="BkoIJ332fnc5y_oovac8-191" vertex="1">
          <mxGeometry y="180" width="180" height="30" as="geometry" />
        </mxCell>
        <mxCell id="BkoIJ332fnc5y_oovac8-208" value="FK" style="shape=partialRectangle;connectable=0;fillColor=none;top=0;left=0;bottom=0;right=0;editable=1;overflow=hidden;" parent="BkoIJ332fnc5y_oovac8-207" vertex="1">
          <mxGeometry width="30" height="30" as="geometry">
            <mxRectangle width="30" height="30" as="alternateBounds" />
          </mxGeometry>
        </mxCell>
        <mxCell id="BkoIJ332fnc5y_oovac8-209" value="Adress*" style="shape=partialRectangle;connectable=0;fillColor=none;top=0;left=0;bottom=0;right=0;align=left;spacingLeft=6;overflow=hidden;" parent="BkoIJ332fnc5y_oovac8-207" vertex="1">
          <mxGeometry x="30" width="150" height="30" as="geometry">
            <mxRectangle width="150" height="30" as="alternateBounds" />
          </mxGeometry>
        </mxCell>
        <mxCell id="wlHlb4CzWfCq0tqxwp-L-179" style="shape=tableRow;horizontal=0;startSize=0;swimlaneHead=0;swimlaneBody=0;fillColor=none;collapsible=0;dropTarget=0;points=[[0,0.5],[1,0.5]];portConstraint=eastwest;top=0;left=0;right=0;bottom=0;" parent="BkoIJ332fnc5y_oovac8-191" vertex="1">
          <mxGeometry y="210" width="180" height="30" as="geometry" />
        </mxCell>
        <mxCell id="wlHlb4CzWfCq0tqxwp-L-180" style="shape=partialRectangle;connectable=0;fillColor=none;top=0;left=0;bottom=0;right=0;editable=1;overflow=hidden;" parent="wlHlb4CzWfCq0tqxwp-L-179" vertex="1">
          <mxGeometry width="30" height="30" as="geometry">
            <mxRectangle width="30" height="30" as="alternateBounds" />
          </mxGeometry>
        </mxCell>
        <mxCell id="wlHlb4CzWfCq0tqxwp-L-181" value="LÃ¶n" style="shape=partialRectangle;connectable=0;fillColor=none;top=0;left=0;bottom=0;right=0;align=left;spacingLeft=6;overflow=hidden;" parent="wlHlb4CzWfCq0tqxwp-L-179" vertex="1">
          <mxGeometry x="30" width="150" height="30" as="geometry">
            <mxRectangle width="150" height="30" as="alternateBounds" />
          </mxGeometry>
        </mxCell>
        <mxCell id="wlHlb4CzWfCq0tqxwp-L-176" style="shape=tableRow;horizontal=0;startSize=0;swimlaneHead=0;swimlaneBody=0;fillColor=none;collapsible=0;dropTarget=0;points=[[0,0.5],[1,0.5]];portConstraint=eastwest;top=0;left=0;right=0;bottom=0;" parent="BkoIJ332fnc5y_oovac8-191" vertex="1">
          <mxGeometry y="240" width="180" height="30" as="geometry" />
        </mxCell>
        <mxCell id="wlHlb4CzWfCq0tqxwp-L-177" value="FK" style="shape=partialRectangle;connectable=0;fillColor=none;top=0;left=0;bottom=0;right=0;editable=1;overflow=hidden;" parent="wlHlb4CzWfCq0tqxwp-L-176" vertex="1">
          <mxGeometry width="30" height="30" as="geometry">
            <mxRectangle width="30" height="30" as="alternateBounds" />
          </mxGeometry>
        </mxCell>
        <mxCell id="wlHlb4CzWfCq0tqxwp-L-178" value="TjÃ¤nsteroll" style="shape=partialRectangle;connectable=0;fillColor=none;top=0;left=0;bottom=0;right=0;align=left;spacingLeft=6;overflow=hidden;" parent="wlHlb4CzWfCq0tqxwp-L-176" vertex="1">
          <mxGeometry x="30" width="150" height="30" as="geometry">
            <mxRectangle width="150" height="30" as="alternateBounds" />
          </mxGeometry>
        </mxCell>
        <mxCell id="QF0Q05YZkIT7eVUUkePC-176" style="shape=tableRow;horizontal=0;startSize=0;swimlaneHead=0;swimlaneBody=0;fillColor=none;collapsible=0;dropTarget=0;points=[[0,0.5],[1,0.5]];portConstraint=eastwest;top=0;left=0;right=0;bottom=0;" parent="BkoIJ332fnc5y_oovac8-191" vertex="1">
          <mxGeometry y="270" width="180" height="30" as="geometry" />
        </mxCell>
        <mxCell id="QF0Q05YZkIT7eVUUkePC-177" style="shape=partialRectangle;connectable=0;fillColor=none;top=0;left=0;bottom=0;right=0;editable=1;overflow=hidden;" parent="QF0Q05YZkIT7eVUUkePC-176" vertex="1">
          <mxGeometry width="30" height="30" as="geometry">
            <mxRectangle width="30" height="30" as="alternateBounds" />
          </mxGeometry>
        </mxCell>
        <mxCell id="QF0Q05YZkIT7eVUUkePC-178" value="Personnummer" style="shape=partialRectangle;connectable=0;fillColor=none;top=0;left=0;bottom=0;right=0;align=left;spacingLeft=6;overflow=hidden;" parent="QF0Q05YZkIT7eVUUkePC-176" vertex="1">
          <mxGeometry x="30" width="150" height="30" as="geometry">
            <mxRectangle width="150" height="30" as="alternateBounds" />
          </mxGeometry>
        </mxCell>
        <mxCell id="QF0Q05YZkIT7eVUUkePC-179" style="shape=tableRow;horizontal=0;startSize=0;swimlaneHead=0;swimlaneBody=0;fillColor=none;collapsible=0;dropTarget=0;points=[[0,0.5],[1,0.5]];portConstraint=eastwest;top=0;left=0;right=0;bottom=0;" parent="BkoIJ332fnc5y_oovac8-191" vertex="1">
          <mxGeometry y="300" width="180" height="30" as="geometry" />
        </mxCell>
        <mxCell id="QF0Q05YZkIT7eVUUkePC-180" style="shape=partialRectangle;connectable=0;fillColor=none;top=0;left=0;bottom=0;right=0;editable=1;overflow=hidden;" parent="QF0Q05YZkIT7eVUUkePC-179" vertex="1">
          <mxGeometry width="30" height="30" as="geometry">
            <mxRectangle width="30" height="30" as="alternateBounds" />
          </mxGeometry>
        </mxCell>
        <mxCell id="QF0Q05YZkIT7eVUUkePC-181" value="AnstÃ¤llningsdatum" style="shape=partialRectangle;connectable=0;fillColor=none;top=0;left=0;bottom=0;right=0;align=left;spacingLeft=6;overflow=hidden;" parent="QF0Q05YZkIT7eVUUkePC-179" vertex="1">
          <mxGeometry x="30" width="150" height="30" as="geometry">
            <mxRectangle width="150" height="30" as="alternateBounds" />
          </mxGeometry>
        </mxCell>
        <mxCell id="BkoIJ332fnc5y_oovac8-358" value="Privatperson" style="shape=table;startSize=30;container=1;collapsible=1;childLayout=tableLayout;fixedRows=1;rowLines=0;fontStyle=1;align=center;resizeLast=1;" parent="1" vertex="1">
          <mxGeometry x="-60" y="-200" width="180" height="120" as="geometry">
            <mxRectangle x="-390" y="-110" width="70" height="30" as="alternateBounds" />
          </mxGeometry>
        </mxCell>
        <mxCell id="BkoIJ332fnc5y_oovac8-362" value="" style="shape=tableRow;horizontal=0;startSize=0;swimlaneHead=0;swimlaneBody=0;fillColor=none;collapsible=0;dropTarget=0;points=[[0,0.5],[1,0.5]];portConstraint=eastwest;top=0;left=0;right=0;bottom=1;" parent="BkoIJ332fnc5y_oovac8-358" vertex="1">
          <mxGeometry y="30" width="180" height="30" as="geometry" />
        </mxCell>
        <mxCell id="BkoIJ332fnc5y_oovac8-363" value="PK, FK" style="shape=partialRectangle;connectable=0;fillColor=none;top=0;left=0;bottom=0;right=0;fontStyle=1;overflow=hidden;" parent="BkoIJ332fnc5y_oovac8-362" vertex="1">
          <mxGeometry width="60" height="30" as="geometry">
            <mxRectangle width="60" height="30" as="alternateBounds" />
          </mxGeometry>
        </mxCell>
        <mxCell id="BkoIJ332fnc5y_oovac8-364" value="Kund*" style="shape=partialRectangle;connectable=0;fillColor=none;top=0;left=0;bottom=0;right=0;align=left;spacingLeft=6;fontStyle=5;overflow=hidden;" parent="BkoIJ332fnc5y_oovac8-362" vertex="1">
          <mxGeometry x="60" width="120" height="30" as="geometry">
            <mxRectangle width="120" height="30" as="alternateBounds" />
          </mxGeometry>
        </mxCell>
        <mxCell id="BkoIJ332fnc5y_oovac8-365" value="" style="shape=tableRow;horizontal=0;startSize=0;swimlaneHead=0;swimlaneBody=0;fillColor=none;collapsible=0;dropTarget=0;points=[[0,0.5],[1,0.5]];portConstraint=eastwest;top=0;left=0;right=0;bottom=0;" parent="BkoIJ332fnc5y_oovac8-358" vertex="1">
          <mxGeometry y="60" width="180" height="30" as="geometry" />
        </mxCell>
        <mxCell id="BkoIJ332fnc5y_oovac8-366" value="" style="shape=partialRectangle;connectable=0;fillColor=none;top=0;left=0;bottom=0;right=0;editable=1;overflow=hidden;" parent="BkoIJ332fnc5y_oovac8-365" vertex="1">
          <mxGeometry width="60" height="30" as="geometry">
            <mxRectangle width="60" height="30" as="alternateBounds" />
          </mxGeometry>
        </mxCell>
        <mxCell id="BkoIJ332fnc5y_oovac8-367" value="FÃ¶rnamn" style="shape=partialRectangle;connectable=0;fillColor=none;top=0;left=0;bottom=0;right=0;align=left;spacingLeft=6;overflow=hidden;" parent="BkoIJ332fnc5y_oovac8-365" vertex="1">
          <mxGeometry x="60" width="120" height="30" as="geometry">
            <mxRectangle width="120" height="30" as="alternateBounds" />
          </mxGeometry>
        </mxCell>
        <mxCell id="BkoIJ332fnc5y_oovac8-368" value="" style="shape=tableRow;horizontal=0;startSize=0;swimlaneHead=0;swimlaneBody=0;fillColor=none;collapsible=0;dropTarget=0;points=[[0,0.5],[1,0.5]];portConstraint=eastwest;top=0;left=0;right=0;bottom=0;" parent="BkoIJ332fnc5y_oovac8-358" vertex="1">
          <mxGeometry y="90" width="180" height="30" as="geometry" />
        </mxCell>
        <mxCell id="BkoIJ332fnc5y_oovac8-369" value="" style="shape=partialRectangle;connectable=0;fillColor=none;top=0;left=0;bottom=0;right=0;editable=1;overflow=hidden;" parent="BkoIJ332fnc5y_oovac8-368" vertex="1">
          <mxGeometry width="60" height="30" as="geometry">
            <mxRectangle width="60" height="30" as="alternateBounds" />
          </mxGeometry>
        </mxCell>
        <mxCell id="BkoIJ332fnc5y_oovac8-370" value="Efternamn" style="shape=partialRectangle;connectable=0;fillColor=none;top=0;left=0;bottom=0;right=0;align=left;spacingLeft=6;overflow=hidden;" parent="BkoIJ332fnc5y_oovac8-368" vertex="1">
          <mxGeometry x="60" width="120" height="30" as="geometry">
            <mxRectangle width="120" height="30" as="alternateBounds" />
          </mxGeometry>
        </mxCell>
        <mxCell id="BkoIJ332fnc5y_oovac8-372" value="FÃ¶retag" style="shape=table;startSize=30;container=1;collapsible=1;childLayout=tableLayout;fixedRows=1;rowLines=0;fontStyle=1;align=center;resizeLast=1;" parent="1" vertex="1">
          <mxGeometry x="200" y="-200" width="200" height="120" as="geometry">
            <mxRectangle x="-390" y="-110" width="70" height="30" as="alternateBounds" />
          </mxGeometry>
        </mxCell>
        <mxCell id="BkoIJ332fnc5y_oovac8-373" value="" style="shape=tableRow;horizontal=0;startSize=0;swimlaneHead=0;swimlaneBody=0;fillColor=none;collapsible=0;dropTarget=0;points=[[0,0.5],[1,0.5]];portConstraint=eastwest;top=0;left=0;right=0;bottom=1;" parent="BkoIJ332fnc5y_oovac8-372" vertex="1">
          <mxGeometry y="30" width="200" height="30" as="geometry" />
        </mxCell>
        <mxCell id="BkoIJ332fnc5y_oovac8-374" value="PK, FK" style="shape=partialRectangle;connectable=0;fillColor=none;top=0;left=0;bottom=0;right=0;fontStyle=1;overflow=hidden;" parent="BkoIJ332fnc5y_oovac8-373" vertex="1">
          <mxGeometry width="60" height="30" as="geometry">
            <mxRectangle width="60" height="30" as="alternateBounds" />
          </mxGeometry>
        </mxCell>
        <mxCell id="BkoIJ332fnc5y_oovac8-375" value="Kund*" style="shape=partialRectangle;connectable=0;fillColor=none;top=0;left=0;bottom=0;right=0;align=left;spacingLeft=6;fontStyle=5;overflow=hidden;" parent="BkoIJ332fnc5y_oovac8-373" vertex="1">
          <mxGeometry x="60" width="140" height="30" as="geometry">
            <mxRectangle width="140" height="30" as="alternateBounds" />
          </mxGeometry>
        </mxCell>
        <mxCell id="BkoIJ332fnc5y_oovac8-376" value="" style="shape=tableRow;horizontal=0;startSize=0;swimlaneHead=0;swimlaneBody=0;fillColor=none;collapsible=0;dropTarget=0;points=[[0,0.5],[1,0.5]];portConstraint=eastwest;top=0;left=0;right=0;bottom=0;" parent="BkoIJ332fnc5y_oovac8-372" vertex="1">
          <mxGeometry y="60" width="200" height="30" as="geometry" />
        </mxCell>
        <mxCell id="BkoIJ332fnc5y_oovac8-377" value="" style="shape=partialRectangle;connectable=0;fillColor=none;top=0;left=0;bottom=0;right=0;editable=1;overflow=hidden;" parent="BkoIJ332fnc5y_oovac8-376" vertex="1">
          <mxGeometry width="60" height="30" as="geometry">
            <mxRectangle width="60" height="30" as="alternateBounds" />
          </mxGeometry>
        </mxCell>
        <mxCell id="BkoIJ332fnc5y_oovac8-378" value="Namn" style="shape=partialRectangle;connectable=0;fillColor=none;top=0;left=0;bottom=0;right=0;align=left;spacingLeft=6;overflow=hidden;" parent="BkoIJ332fnc5y_oovac8-376" vertex="1">
          <mxGeometry x="60" width="140" height="30" as="geometry">
            <mxRectangle width="140" height="30" as="alternateBounds" />
          </mxGeometry>
        </mxCell>
        <mxCell id="BkoIJ332fnc5y_oovac8-379" value="" style="shape=tableRow;horizontal=0;startSize=0;swimlaneHead=0;swimlaneBody=0;fillColor=none;collapsible=0;dropTarget=0;points=[[0,0.5],[1,0.5]];portConstraint=eastwest;top=0;left=0;right=0;bottom=0;" parent="BkoIJ332fnc5y_oovac8-372" vertex="1">
          <mxGeometry y="90" width="200" height="30" as="geometry" />
        </mxCell>
        <mxCell id="BkoIJ332fnc5y_oovac8-380" value="" style="shape=partialRectangle;connectable=0;fillColor=none;top=0;left=0;bottom=0;right=0;editable=1;overflow=hidden;" parent="BkoIJ332fnc5y_oovac8-379" vertex="1">
          <mxGeometry width="60" height="30" as="geometry">
            <mxRectangle width="60" height="30" as="alternateBounds" />
          </mxGeometry>
        </mxCell>
        <mxCell id="BkoIJ332fnc5y_oovac8-381" value="Organisationsnummer" style="shape=partialRectangle;connectable=0;fillColor=none;top=0;left=0;bottom=0;right=0;align=left;spacingLeft=6;overflow=hidden;" parent="BkoIJ332fnc5y_oovac8-379" vertex="1">
          <mxGeometry x="60" width="140" height="30" as="geometry">
            <mxRectangle width="140" height="30" as="alternateBounds" />
          </mxGeometry>
        </mxCell>
        <mxCell id="BkoIJ332fnc5y_oovac8-385" style="edgeStyle=orthogonalEdgeStyle;html=1;exitX=0;exitY=0.5;exitDx=0;exitDy=0;entryX=0;entryY=0.5;entryDx=0;entryDy=0;endArrow=none;endFill=0;" parent="1" source="BkoIJ332fnc5y_oovac8-362" target="66" edge="1">
          <mxGeometry relative="1" as="geometry">
            <Array as="points">
              <mxPoint x="-100" y="-155" />
              <mxPoint x="-100" y="155" />
            </Array>
          </mxGeometry>
        </mxCell>
        <mxCell id="BkoIJ332fnc5y_oovac8-386" style="edgeStyle=orthogonalEdgeStyle;html=1;exitX=0;exitY=0.5;exitDx=0;exitDy=0;entryX=0;entryY=0.5;entryDx=0;entryDy=0;endArrow=none;endFill=0;" parent="1" source="BkoIJ332fnc5y_oovac8-373" target="66" edge="1">
          <mxGeometry relative="1" as="geometry">
            <Array as="points">
              <mxPoint x="160" y="-155" />
              <mxPoint x="160" />
              <mxPoint x="40" />
              <mxPoint x="40" y="155" />
            </Array>
          </mxGeometry>
        </mxCell>
        <mxCell id="epBvOts_NGSz2rItUtSE-176" style="edgeStyle=orthogonalEdgeStyle;html=1;exitX=0;exitY=0.5;exitDx=0;exitDy=0;entryX=1;entryY=0.5;entryDx=0;entryDy=0;endArrow=none;endFill=0;" parent="1" source="75" target="BkoIJ332fnc5y_oovac8-177" edge="1">
          <mxGeometry relative="1" as="geometry" />
        </mxCell>
        <mxCell id="wtPSlVfiyPtjSJ1BxTp--176" style="edgeStyle=orthogonalEdgeStyle;html=1;exitX=0;exitY=0.5;exitDx=0;exitDy=0;entryX=1;entryY=0.5;entryDx=0;entryDy=0;endArrow=none;endFill=0;jumpStyle=line;" parent="1" source="NgCR5Z2Uf9liRK6gi1Le-196" target="BkoIJ332fnc5y_oovac8-177" edge="1">
          <mxGeometry relative="1" as="geometry">
            <Array as="points">
              <mxPoint x="300" y="395" />
              <mxPoint x="300" y="305" />
            </Array>
          </mxGeometry>
        </mxCell>
        <mxCell id="qmWeC5Z0hWiWk7cjUS4w-176" value="Hyresartikel" style="shape=table;startSize=30;container=1;collapsible=1;childLayout=tableLayout;fixedRows=1;rowLines=0;fontStyle=1;align=center;resizeLast=1;" parent="1" vertex="1">
          <mxGeometry x="-182" y="755" width="180" height="90" as="geometry">
            <mxRectangle x="-390" y="-110" width="70" height="30" as="alternateBounds" />
          </mxGeometry>
        </mxCell>
        <mxCell id="qmWeC5Z0hWiWk7cjUS4w-177" value="" style="shape=tableRow;horizontal=0;startSize=0;swimlaneHead=0;swimlaneBody=0;fillColor=none;collapsible=0;dropTarget=0;points=[[0,0.5],[1,0.5]];portConstraint=eastwest;top=0;left=0;right=0;bottom=1;" parent="qmWeC5Z0hWiWk7cjUS4w-176" vertex="1">
          <mxGeometry y="30" width="180" height="30" as="geometry" />
        </mxCell>
        <mxCell id="qmWeC5Z0hWiWk7cjUS4w-178" value="PK, FK" style="shape=partialRectangle;connectable=0;fillColor=none;top=0;left=0;bottom=0;right=0;fontStyle=1;overflow=hidden;" parent="qmWeC5Z0hWiWk7cjUS4w-177" vertex="1">
          <mxGeometry width="60" height="30" as="geometry">
            <mxRectangle width="60" height="30" as="alternateBounds" />
          </mxGeometry>
        </mxCell>
        <mxCell id="qmWeC5Z0hWiWk7cjUS4w-179" value="Artikel*" style="shape=partialRectangle;connectable=0;fillColor=none;top=0;left=0;bottom=0;right=0;align=left;spacingLeft=6;fontStyle=5;overflow=hidden;" parent="qmWeC5Z0hWiWk7cjUS4w-177" vertex="1">
          <mxGeometry x="60" width="120" height="30" as="geometry">
            <mxRectangle width="120" height="30" as="alternateBounds" />
          </mxGeometry>
        </mxCell>
        <mxCell id="qmWeC5Z0hWiWk7cjUS4w-180" value="" style="shape=tableRow;horizontal=0;startSize=0;swimlaneHead=0;swimlaneBody=0;fillColor=none;collapsible=0;dropTarget=0;points=[[0,0.5],[1,0.5]];portConstraint=eastwest;top=0;left=0;right=0;bottom=0;" parent="qmWeC5Z0hWiWk7cjUS4w-176" vertex="1">
          <mxGeometry y="60" width="180" height="30" as="geometry" />
        </mxCell>
        <mxCell id="qmWeC5Z0hWiWk7cjUS4w-181" value="" style="shape=partialRectangle;connectable=0;fillColor=none;top=0;left=0;bottom=0;right=0;editable=1;overflow=hidden;" parent="qmWeC5Z0hWiWk7cjUS4w-180" vertex="1">
          <mxGeometry width="60" height="30" as="geometry">
            <mxRectangle width="60" height="30" as="alternateBounds" />
          </mxGeometry>
        </mxCell>
        <mxCell id="qmWeC5Z0hWiWk7cjUS4w-182" value="ErsÃ¤ttningskostnad" style="shape=partialRectangle;connectable=0;fillColor=none;top=0;left=0;bottom=0;right=0;align=left;spacingLeft=6;overflow=hidden;" parent="qmWeC5Z0hWiWk7cjUS4w-180" vertex="1">
          <mxGeometry x="60" width="120" height="30" as="geometry">
            <mxRectangle width="120" height="30" as="alternateBounds" />
          </mxGeometry>
        </mxCell>
        <mxCell id="qmWeC5Z0hWiWk7cjUS4w-186" value="EngÃ¥ngsartikel" style="shape=table;startSize=30;container=1;collapsible=1;childLayout=tableLayout;fixedRows=1;rowLines=0;fontStyle=1;align=center;resizeLast=1;" parent="1" vertex="1">
          <mxGeometry x="-182" y="868" width="180" height="60" as="geometry">
            <mxRectangle x="-390" y="-110" width="70" height="30" as="alternateBounds" />
          </mxGeometry>
        </mxCell>
        <mxCell id="qmWeC5Z0hWiWk7cjUS4w-187" value="" style="shape=tableRow;horizontal=0;startSize=0;swimlaneHead=0;swimlaneBody=0;fillColor=none;collapsible=0;dropTarget=0;points=[[0,0.5],[1,0.5]];portConstraint=eastwest;top=0;left=0;right=0;bottom=1;" parent="qmWeC5Z0hWiWk7cjUS4w-186" vertex="1">
          <mxGeometry y="30" width="180" height="30" as="geometry" />
        </mxCell>
        <mxCell id="qmWeC5Z0hWiWk7cjUS4w-188" value="PK, FK" style="shape=partialRectangle;connectable=0;fillColor=none;top=0;left=0;bottom=0;right=0;fontStyle=1;overflow=hidden;" parent="qmWeC5Z0hWiWk7cjUS4w-187" vertex="1">
          <mxGeometry width="60" height="30" as="geometry">
            <mxRectangle width="60" height="30" as="alternateBounds" />
          </mxGeometry>
        </mxCell>
        <mxCell id="qmWeC5Z0hWiWk7cjUS4w-189" value="Artikel*" style="shape=partialRectangle;connectable=0;fillColor=none;top=0;left=0;bottom=0;right=0;align=left;spacingLeft=6;fontStyle=5;overflow=hidden;" parent="qmWeC5Z0hWiWk7cjUS4w-187" vertex="1">
          <mxGeometry x="60" width="120" height="30" as="geometry">
            <mxRectangle width="120" height="30" as="alternateBounds" />
          </mxGeometry>
        </mxCell>
        <mxCell id="qmWeC5Z0hWiWk7cjUS4w-196" style="edgeStyle=orthogonalEdgeStyle;rounded=1;orthogonalLoop=1;jettySize=auto;html=1;entryX=0;entryY=0.5;entryDx=0;entryDy=0;endArrow=none;endFill=0;" parent="1" source="qmWeC5Z0hWiWk7cjUS4w-177" target="88" edge="1">
          <mxGeometry relative="1" as="geometry" />
        </mxCell>
        <mxCell id="qmWeC5Z0hWiWk7cjUS4w-197" style="edgeStyle=orthogonalEdgeStyle;rounded=1;orthogonalLoop=1;jettySize=auto;html=1;entryX=0;entryY=0.5;entryDx=0;entryDy=0;endArrow=none;endFill=0;" parent="1" source="qmWeC5Z0hWiWk7cjUS4w-187" target="88" edge="1">
          <mxGeometry relative="1" as="geometry" />
        </mxCell>
        <mxCell id="DmbeXtbtux9_rCoSqr15-176" value="TjÃ¤nsteroll" style="shape=table;startSize=30;container=1;collapsible=1;childLayout=tableLayout;fixedRows=1;rowLines=0;fontStyle=1;align=center;resizeLast=1;html=1;whiteSpace=wrap;rounded=1;gradientColor=none;" parent="1" vertex="1">
          <mxGeometry x="1766" y="403" width="180" height="90" as="geometry" />
        </mxCell>
        <mxCell id="DmbeXtbtux9_rCoSqr15-177" value="" style="shape=tableRow;horizontal=0;startSize=0;swimlaneHead=0;swimlaneBody=0;fillColor=none;collapsible=0;dropTarget=0;points=[[0,0.5],[1,0.5]];portConstraint=eastwest;top=0;left=0;right=0;bottom=0;html=1;rounded=1;" parent="DmbeXtbtux9_rCoSqr15-176" vertex="1">
          <mxGeometry y="30" width="180" height="30" as="geometry" />
        </mxCell>
        <mxCell id="DmbeXtbtux9_rCoSqr15-178" value="PK" style="shape=partialRectangle;connectable=0;fillColor=none;top=0;left=0;bottom=0;right=0;fontStyle=1;overflow=hidden;html=1;whiteSpace=wrap;rounded=1;" parent="DmbeXtbtux9_rCoSqr15-177" vertex="1">
          <mxGeometry width="60" height="30" as="geometry">
            <mxRectangle width="60" height="30" as="alternateBounds" />
          </mxGeometry>
        </mxCell>
        <mxCell id="DmbeXtbtux9_rCoSqr15-179" value="&lt;span style=&quot;text-align: center;&quot;&gt;TjÃ¤nsterollID&lt;/span&gt;" style="shape=partialRectangle;connectable=0;fillColor=none;top=0;left=0;bottom=0;right=0;align=left;spacingLeft=6;fontStyle=5;overflow=hidden;html=1;whiteSpace=wrap;rounded=1;" parent="DmbeXtbtux9_rCoSqr15-177" vertex="1">
          <mxGeometry x="60" width="120" height="30" as="geometry">
            <mxRectangle width="120" height="30" as="alternateBounds" />
          </mxGeometry>
        </mxCell>
        <mxCell id="DmbeXtbtux9_rCoSqr15-183" value="" style="shape=tableRow;horizontal=0;startSize=0;swimlaneHead=0;swimlaneBody=0;fillColor=none;collapsible=0;dropTarget=0;points=[[0,0.5],[1,0.5]];portConstraint=eastwest;top=0;left=0;right=0;bottom=0;html=1;rounded=1;" parent="DmbeXtbtux9_rCoSqr15-176" vertex="1">
          <mxGeometry y="60" width="180" height="30" as="geometry" />
        </mxCell>
        <mxCell id="DmbeXtbtux9_rCoSqr15-184" value="" style="shape=partialRectangle;connectable=0;fillColor=none;top=0;left=0;bottom=0;right=0;editable=1;overflow=hidden;html=1;whiteSpace=wrap;rounded=1;" parent="DmbeXtbtux9_rCoSqr15-183" vertex="1">
          <mxGeometry width="60" height="30" as="geometry">
            <mxRectangle width="60" height="30" as="alternateBounds" />
          </mxGeometry>
        </mxCell>
        <mxCell id="DmbeXtbtux9_rCoSqr15-185" value="Titel" style="shape=partialRectangle;connectable=0;fillColor=none;top=0;left=0;bottom=0;right=0;align=left;spacingLeft=6;overflow=hidden;html=1;whiteSpace=wrap;rounded=1;" parent="DmbeXtbtux9_rCoSqr15-183" vertex="1">
          <mxGeometry x="60" width="120" height="30" as="geometry">
            <mxRectangle width="120" height="30" as="alternateBounds" />
          </mxGeometry>
        </mxCell>
        <mxCell id="6q1oRGfymINejNhKuT6U-176" style="edgeStyle=orthogonalEdgeStyle;rounded=1;orthogonalLoop=1;jettySize=auto;html=1;entryX=0;entryY=0.5;entryDx=0;entryDy=0;endArrow=none;endFill=0;" parent="1" source="wlHlb4CzWfCq0tqxwp-L-176" target="DmbeXtbtux9_rCoSqr15-177" edge="1">
          <mxGeometry relative="1" as="geometry" />
        </mxCell>
        <mxCell id="-yOPtmcYvd26ZPj7axq3-176" value="BestÃ¤llningstransport" style="shape=table;startSize=30;container=1;collapsible=1;childLayout=tableLayout;fixedRows=1;rowLines=0;fontStyle=1;align=center;resizeLast=1;" parent="1" vertex="1">
          <mxGeometry x="1159" y="-41" width="180" height="90" as="geometry" />
        </mxCell>
        <mxCell id="-yOPtmcYvd26ZPj7axq3-177" value="" style="shape=tableRow;horizontal=0;startSize=0;swimlaneHead=0;swimlaneBody=0;fillColor=none;collapsible=0;dropTarget=0;points=[[0,0.5],[1,0.5]];portConstraint=eastwest;top=0;left=0;right=0;bottom=0;" parent="-yOPtmcYvd26ZPj7axq3-176" vertex="1">
          <mxGeometry y="30" width="180" height="30" as="geometry" />
        </mxCell>
        <mxCell id="-yOPtmcYvd26ZPj7axq3-178" value="PK, FK" style="shape=partialRectangle;connectable=0;fillColor=none;top=0;left=0;bottom=0;right=0;fontStyle=1;overflow=hidden;" parent="-yOPtmcYvd26ZPj7axq3-177" vertex="1">
          <mxGeometry width="60" height="30" as="geometry">
            <mxRectangle width="60" height="30" as="alternateBounds" />
          </mxGeometry>
        </mxCell>
        <mxCell id="-yOPtmcYvd26ZPj7axq3-179" value="Personal*" style="shape=partialRectangle;connectable=0;fillColor=none;top=0;left=0;bottom=0;right=0;align=left;spacingLeft=6;fontStyle=5;overflow=hidden;" parent="-yOPtmcYvd26ZPj7axq3-177" vertex="1">
          <mxGeometry x="60" width="120" height="30" as="geometry">
            <mxRectangle width="120" height="30" as="alternateBounds" />
          </mxGeometry>
        </mxCell>
        <mxCell id="-yOPtmcYvd26ZPj7axq3-180" value="" style="shape=tableRow;horizontal=0;startSize=0;swimlaneHead=0;swimlaneBody=0;fillColor=none;collapsible=0;dropTarget=0;points=[[0,0.5],[1,0.5]];portConstraint=eastwest;top=0;left=0;right=0;bottom=1;" parent="-yOPtmcYvd26ZPj7axq3-176" vertex="1">
          <mxGeometry y="60" width="180" height="30" as="geometry" />
        </mxCell>
        <mxCell id="-yOPtmcYvd26ZPj7axq3-181" value="PK, FK" style="shape=partialRectangle;connectable=0;fillColor=none;top=0;left=0;bottom=0;right=0;fontStyle=1;overflow=hidden;" parent="-yOPtmcYvd26ZPj7axq3-180" vertex="1">
          <mxGeometry width="60" height="30" as="geometry">
            <mxRectangle width="60" height="30" as="alternateBounds" />
          </mxGeometry>
        </mxCell>
        <mxCell id="-yOPtmcYvd26ZPj7axq3-182" value="BestÃ¤llning*" style="shape=partialRectangle;connectable=0;fillColor=none;top=0;left=0;bottom=0;right=0;align=left;spacingLeft=6;fontStyle=5;overflow=hidden;" parent="-yOPtmcYvd26ZPj7axq3-180" vertex="1">
          <mxGeometry x="60" width="120" height="30" as="geometry">
            <mxRectangle width="120" height="30" as="alternateBounds" />
          </mxGeometry>
        </mxCell>
        <mxCell id="-yOPtmcYvd26ZPj7axq3-191" style="edgeStyle=orthogonalEdgeStyle;rounded=1;orthogonalLoop=1;jettySize=auto;html=1;entryX=0;entryY=0.5;entryDx=0;entryDy=0;endArrow=none;endFill=0;" parent="1" source="107" target="-yOPtmcYvd26ZPj7axq3-180" edge="1">
          <mxGeometry relative="1" as="geometry">
            <Array as="points">
              <mxPoint x="725" y="125" />
              <mxPoint x="725" y="27" />
            </Array>
          </mxGeometry>
        </mxCell>
        <mxCell id="-yOPtmcYvd26ZPj7axq3-192" style="edgeStyle=orthogonalEdgeStyle;rounded=1;orthogonalLoop=1;jettySize=auto;html=1;entryX=0;entryY=0.5;entryDx=0;entryDy=0;endArrow=none;endFill=0;" parent="1" source="-yOPtmcYvd26ZPj7axq3-177" target="BkoIJ332fnc5y_oovac8-192" edge="1">
          <mxGeometry relative="1" as="geometry" />
        </mxCell>
      </root>
    </mxGraphModel>
  </diagram>
</mxfile>
